# Blender 4.1.1
# www.blender.org
mtllib stage4_faucet.mtl
o stage4_faucet
v 607.787903 108.112885 -1251.444702
v 607.787903 123.299934 -1251.444702
v 607.391174 108.112885 -1250.486938
v 607.391174 123.299934 -1250.486938
v 606.433472 108.112885 -1250.090210
v 606.433411 123.299934 -1250.090210
v 605.475647 108.112885 -1250.486938
v 605.475647 123.299934 -1250.486938
v 605.078918 108.112885 -1251.444702
v 605.078857 123.299934 -1251.444702
v 605.475647 108.112885 -1252.402466
v 605.475647 123.299934 -1252.402466
v 606.433472 108.112885 -1252.799194
v 606.433411 123.299934 -1252.799194
v 607.391174 108.112885 -1252.402466
v 607.391174 123.299934 -1252.402466
v 585.727051 128.622223 -1250.138428
v 584.152039 126.449043 -1249.904785
v 586.068359 128.394638 -1249.185791
v 584.498413 126.228210 -1248.953003
v 586.803284 127.772476 -1248.798218
v 585.241333 125.616959 -1248.566895
v 587.501221 127.120178 -1249.202881
v 585.945679 124.973396 -1248.972534
v 587.753418 126.819832 -1250.162598
v 586.198730 124.674500 -1249.932373
v 587.412109 127.047424 -1251.115112
v 585.852234 124.895325 -1250.884277
v 586.677185 127.669601 -1251.502686
v 585.109192 125.506554 -1251.270386
v 585.979248 128.321899 -1251.098022
v 584.404968 126.150131 -1250.864746
v 606.856079 126.940071 -1251.444702
v 604.472595 130.109421 -1251.444702
v 601.140381 132.505463 -1251.403809
v 597.154480 133.739304 -1251.266968
v 592.860962 133.613861 -1251.023926
v 588.791565 131.920364 -1250.645020
v 606.499146 126.766815 -1252.402466
v 604.190491 129.830475 -1252.402466
v 600.928528 132.140945 -1252.355347
v 597.012024 133.312286 -1252.212769
v 592.809021 133.142029 -1251.963745
v 588.897339 131.435349 -1251.575806
v 605.637512 126.348587 -1252.799194
v 603.509277 129.155533 -1252.798828
v 600.422241 131.257156 -1252.735474
v 596.693726 132.278397 -1252.575806
v 592.757446 131.993637 -1252.303711
v 589.225891 130.364746 -1251.919312
v 604.775696 125.930336 -1252.402466
v 602.829651 128.458130 -1252.396240
v 599.927612 130.365067 -1252.318359
v 596.406738 131.229813 -1252.137085
v 592.755920 130.852921 -1251.844238
v 589.599243 129.334396 -1251.472046
v 604.418945 125.757080 -1251.444702
v 602.551331 128.166473 -1251.434937
v 599.731567 129.996353 -1251.350952
v 596.307251 130.801880 -1251.160400
v 592.787598 130.389252 -1250.857544
v 589.789978 128.931458 -1250.493286
v 604.775757 125.930328 -1250.486938
v 602.830811 128.458801 -1250.480713
v 599.936829 130.374496 -1250.403564
v 596.433777 131.250565 -1250.222168
v 592.810181 130.884079 -1249.927612
v 589.675293 129.388992 -1249.557495
v 605.637512 126.348587 -1250.090210
v 603.509399 129.155518 -1250.089844
v 600.429810 131.266342 -1250.027466
v 596.724670 132.298279 -1249.866699
v 592.827820 132.028549 -1249.591919
v 589.330139 130.436859 -1249.211060
v 588.967590 131.484177 -1249.660767
v 592.855713 133.158203 -1250.044800
v 597.028015 133.323502 -1250.297241
v 600.931213 132.144836 -1250.440308
v 604.190491 129.830475 -1250.486938
v 606.499146 126.766815 -1250.486938
v 604.766541 107.002304 -1243.082886
v 603.932373 104.988525 -1243.082886
v 601.918579 104.154388 -1243.082886
v 599.904785 104.988525 -1243.082886
v 599.070618 107.002304 -1243.082886
v 599.904785 109.016090 -1243.082886
v 601.918579 109.850227 -1243.082886
v 603.932373 109.016090 -1243.082886
v 613.763428 102.575485 -1232.868530
v 613.763428 100.175674 -1233.862549
v 613.763428 99.181633 -1236.262329
v 613.763428 100.175674 -1238.662231
v 613.763428 102.575485 -1239.656250
v 613.763428 104.975304 -1238.662231
v 613.763428 105.969337 -1236.262329
v 613.763428 104.975304 -1233.862549
v 610.936646 102.575485 -1233.872803
v 610.936646 100.885757 -1234.572632
v 610.936646 100.185852 -1236.262329
v 610.936646 100.885757 -1237.952148
v 610.936646 102.575485 -1238.651978
v 610.936646 104.265205 -1237.952148
v 610.936646 104.965111 -1236.262329
v 610.936646 104.265205 -1234.572632
v 610.936646 102.575485 -1232.868530
v 610.936646 100.175667 -1233.862549
v 610.936646 99.181625 -1236.262329
v 610.936646 100.175667 -1238.662231
v 610.936646 102.575485 -1239.656250
v 610.936646 104.975304 -1238.662231
v 610.936646 105.969337 -1236.262329
v 610.936646 104.975304 -1233.862549
v 608.331604 102.575485 -1233.872803
v 608.331604 100.885757 -1234.572632
v 608.331604 100.185852 -1236.262329
v 608.331604 100.885757 -1237.952148
v 608.331604 102.575485 -1238.651978
v 608.331604 104.265205 -1237.952148
v 608.331604 104.965111 -1236.262329
v 608.331604 104.265205 -1234.572632
v 598.265930 114.363976 -1251.826172
v 599.447205 114.363976 -1249.201294
v 601.918579 114.363976 -1248.078979
v 604.389893 114.363976 -1249.201294
v 605.905701 107.002304 -1247.233887
v 604.737854 104.182961 -1247.233887
v 601.918579 103.015144 -1247.233887
v 599.099243 104.182961 -1247.233887
v 597.931396 107.002304 -1247.233887
v 599.099243 109.821655 -1247.233887
v 601.918579 110.989471 -1247.233887
v 604.737854 109.821655 -1247.233887
v 605.571167 114.363976 -1251.826172
v 606.085449 109.821655 -1251.826172
v 605.905701 107.002304 -1251.826172
v 597.751526 109.821655 -1251.826172
v 597.931396 107.002304 -1251.826172
v 599.099243 104.182961 -1251.826172
v 601.918579 103.015144 -1251.826172
v 604.737854 104.182961 -1251.826172
v 605.571167 117.410240 -1251.826172
v 598.265930 115.340416 -1251.826172
v 599.447205 115.340416 -1249.201294
v 601.918579 115.340416 -1248.078979
v 605.571167 115.340416 -1251.826172
v 604.389893 115.340416 -1249.201294
v 601.918579 119.480072 -1251.826172
v 598.265930 119.480072 -1251.826172
v 599.447205 119.480072 -1249.201294
v 601.918579 119.480072 -1248.078979
v 605.571167 119.480072 -1251.826172
v 604.389893 119.480072 -1249.201294
v 601.918579 117.410240 -1248.078979
v 598.265930 117.410240 -1251.826172
v 599.447205 117.410240 -1249.201294
v 604.389893 117.410240 -1249.201294
v 593.572632 117.410240 -1249.201294
v 593.572632 119.480072 -1249.201294
v 592.391235 119.480072 -1251.826172
v 592.391235 117.410240 -1251.826172
v 610.234497 107.823746 -1247.233887
v 610.234497 107.823746 -1251.826172
v 610.234497 110.643097 -1251.826172
v 610.234497 110.643097 -1247.233887
v 604.766541 107.002304 -1260.811157
v 603.932312 104.988525 -1260.811157
v 601.918579 104.154388 -1260.811157
v 599.904785 104.988525 -1260.811157
v 599.070557 107.002304 -1260.811157
v 599.904785 109.016090 -1260.811157
v 601.918579 109.850227 -1260.811157
v 603.932312 109.016090 -1260.811157
v 613.858093 101.819946 -1272.213379
v 613.858093 99.420128 -1271.219238
v 613.858093 98.426102 -1268.819458
v 613.858093 99.420128 -1266.419678
v 613.858093 101.819946 -1265.425659
v 613.858093 104.219765 -1266.419678
v 613.858093 105.213806 -1268.819458
v 613.858093 104.219765 -1271.219238
v 611.031433 101.819946 -1271.209106
v 611.031433 100.130226 -1270.509155
v 611.031433 99.430321 -1268.819458
v 611.031433 100.130226 -1267.129761
v 611.031433 101.819946 -1266.429810
v 611.031433 103.509666 -1267.129761
v 611.031433 104.209579 -1268.819458
v 611.031433 103.509666 -1270.509155
v 611.031433 101.819946 -1272.213379
v 611.031433 99.420128 -1271.219238
v 611.031433 98.426094 -1268.819458
v 611.031433 99.420128 -1266.419678
v 611.031433 101.819946 -1265.425659
v 611.031433 104.219765 -1266.419678
v 611.031433 105.213799 -1268.819458
v 611.031433 104.219765 -1271.219238
v 608.426392 101.819946 -1271.209106
v 608.426392 100.130226 -1270.509155
v 608.426392 99.430321 -1268.819458
v 608.426392 100.130226 -1267.129761
v 608.426392 101.819946 -1266.429810
v 608.426392 103.509666 -1267.129761
v 608.426392 104.209579 -1268.819458
v 608.426392 103.509666 -1270.509155
v 599.447205 114.363976 -1254.451050
v 601.918579 114.363976 -1255.573364
v 604.389893 114.363976 -1254.451050
v 605.905701 107.002304 -1256.418579
v 604.737854 104.182961 -1256.418579
v 601.918579 103.015137 -1256.418579
v 599.099243 104.182961 -1256.418579
v 597.931396 107.002304 -1256.418579
v 599.099243 109.821655 -1256.418579
v 601.918579 110.989471 -1256.418579
v 604.737854 109.821655 -1256.418579
v 599.447205 115.340416 -1254.451050
v 601.918579 115.340416 -1255.573364
v 604.389893 115.340416 -1254.451050
v 599.447205 119.480072 -1254.451050
v 601.918579 119.480072 -1255.573364
v 604.389893 119.480072 -1254.451050
v 601.918579 117.410240 -1255.573364
v 599.447205 117.410240 -1254.451050
v 604.389893 117.410240 -1254.451050
v 593.572632 117.410240 -1254.451050
v 593.572632 119.480072 -1254.451050
v 610.234497 107.823746 -1256.418579
v 610.234497 110.643097 -1256.418579
vn 1.0000 -0.0000 -0.0000
vn 0.9988 0.0486 -0.0000
vn 0.7086 0.0339 0.7048
vn 0.7071 -0.0000 0.7071
vn 0.0047 0.0011 1.0000
vn -0.0000 -0.0000 1.0000
vn -0.7040 -0.0277 0.7097
vn -0.7071 -0.0000 0.7071
vn -0.9993 -0.0383 -0.0000
vn -1.0000 -0.0000 -0.0000
vn -0.7040 -0.0277 -0.7097
vn -0.7071 -0.0000 -0.7071
vn 0.0047 0.0011 -1.0000
vn -0.0000 -0.0000 -1.0000
vn 0.7086 0.0339 -0.7048
vn 0.7071 -0.0000 -0.7071
vn -0.7615 0.6480 0.0107
vn -0.8088 0.5878 0.0152
vn -0.5280 0.4594 0.7143
vn -0.4902 0.5112 0.7060
vn 0.0644 0.0603 0.9961
vn 0.0609 0.0818 0.9948
vn 0.6179 -0.3735 0.6918
vn 0.5835 -0.3990 0.7073
vn 0.8088 -0.5878 -0.0157
vn 0.7634 -0.6459 -0.0120
vn 0.5270 -0.4587 -0.7155
vn 0.4767 -0.4986 -0.7240
vn -0.0659 -0.0592 -0.9961
vn -0.0882 -0.0577 -0.9944
vn -0.6533 -0.7545 0.0627
vn -0.6184 0.3741 -0.6911
vn -0.5945 0.4119 -0.6906
vn 0.0672 0.0882 0.9938
vn -0.3369 0.6089 0.7182
vn 0.4483 -0.4921 0.7462
vn 0.5787 -0.8155 -0.0018
vn 0.3211 -0.5906 -0.7403
vn -0.0931 -0.0500 -0.9944
vn -0.4550 0.5162 -0.7256
vn -0.5742 0.8187 0.0019
vn -0.2187 0.9758 -0.0060
vn -0.2025 0.6249 -0.7540
vn 0.1277 0.9918 -0.0065
vn 0.0451 0.6613 -0.7487
vn 0.4408 0.8976 -0.0034
vn 0.2830 0.6233 -0.7290
vn 0.6961 0.7179 -0.0006
vn 0.4878 0.5119 -0.7071
vn 0.8985 0.4389 -0.0000
vn 0.6443 0.3158 -0.6965
vn -0.0725 -0.0328 -0.9968
vn -0.0503 -0.0112 -0.9987
vn -0.0241 0.0051 -0.9997
vn 0.0023 0.0105 -0.9999
vn 0.0209 0.0085 -0.9997
vn 0.1139 -0.6581 -0.7443
vn -0.0908 -0.6673 -0.7392
vn -0.2936 -0.6179 -0.7293
vn -0.4733 -0.5056 -0.7213
vn -0.6171 -0.3161 -0.7206
vn 0.2722 -0.9622 0.0075
vn -0.0622 -0.9980 0.0100
vn -0.3933 -0.9194 0.0067
vn -0.6733 -0.7394 0.0021
vn -0.8887 -0.4586 0.0002
vn 0.2357 -0.5944 0.7689
vn 0.0019 -0.6432 0.7657
vn -0.2421 -0.6183 0.7477
vn -0.4569 -0.5092 0.7293
vn -0.6155 -0.3159 0.7221
vn 0.0737 0.0635 0.9953
vn 0.0634 0.0338 0.9974
vn 0.0425 0.0146 0.9990
vn 0.0242 0.0101 0.9997
vn 0.0225 0.0091 0.9997
vn -0.0972 0.6786 0.7281
vn 0.1205 0.6783 0.7248
vn 0.3219 0.6212 0.7145
vn 0.4974 0.5088 0.7027
vn 0.6444 0.3158 0.6965
vn 0.0530 -0.8190 -0.5713
vn -0.6209 -0.7571 0.2031
vn 0.0529 -0.8190 -0.5713
vn -0.0000 0.2862 0.9582
vn 0.7436 0.2131 0.6337
vn 0.7161 -0.0000 0.6980
vn -0.0000 -0.7071 0.7071
vn -0.0000 -1.0000 -0.0000
vn -0.0000 -0.7071 -0.7071
vn -0.0000 0.7071 -0.7071
vn -0.0000 1.0000 -0.0000
vn -0.0000 0.7071 0.7071
vn 0.6034 -0.2980 -0.7396
vn 0.6035 -0.2980 -0.7396
vn -0.7414 -0.2221 0.6333
vn -0.7414 -0.2220 0.6333
vn -0.6044 0.2646 0.7514
vn -0.1433 0.7592 0.6349
vn 0.6509 0.7589 0.0210
vn 0.8380 0.2125 -0.5027
vn -0.0000 0.9643 0.2647
vn 0.6819 0.6819 0.2647
vn 0.5028 0.5028 0.7031
vn -0.8163 0.4045 0.4123
vn -0.6819 0.6819 0.2647
vn -0.9851 -0.0663 0.1587
vn -0.9643 -0.0000 0.2647
vn -0.7021 -0.7021 0.1190
vn -0.6819 -0.6819 0.2647
vn -0.0000 -0.9929 0.1190
vn -0.0000 -0.9643 0.2647
vn 0.7021 -0.7021 0.1190
vn 0.6819 -0.6819 0.2647
vn 0.7534 -0.5170 0.4063
vn 0.9643 -0.0000 0.2646
vn 0.5522 -0.8337 -0.0000
vn 0.1864 -0.9825 -0.0000
vn -0.0000 0.3455 0.9384
vn -0.7436 0.2131 0.6338
vn 0.4319 0.7933 0.4291
vn -0.9854 0.1702 -0.0000
vn -0.9893 0.1461 -0.0000
vn 0.4514 0.8923 -0.0000
vn 0.9893 0.1461 -0.0000
vn 0.7071 -0.7071 -0.0000
vn -0.7071 -0.7071 -0.0000
vn -0.9929 -0.1187 -0.0000
vn -0.7161 -0.0000 0.6980
vn -0.3761 -0.0000 0.9266
vn -0.1333 -0.0000 0.9911
vn -0.9119 -0.0000 0.4104
vn -0.1679 0.9855 -0.0246
vn -0.1679 0.9858 -0.0000
vn 0.0665 -0.8204 0.5680
vn 0.0666 -0.8204 0.5679
vn -0.6519 -0.7421 -0.1560
vn -0.6519 -0.7421 -0.1561
vn -0.0000 0.2862 -0.9582
vn 0.7161 -0.0000 -0.6980
vn 0.7436 0.2131 -0.6337
vn 0.6524 -0.3175 0.6881
vn 0.6525 -0.3175 0.6881
vn -0.7800 -0.2072 -0.5905
vn -0.6332 0.2787 -0.7221
vn -0.6332 0.2786 -0.7221
vn -0.1458 0.7655 -0.6268
vn -0.1457 0.7655 -0.6268
vn 0.6788 0.7325 -0.0528
vn 0.6787 0.7325 -0.0528
vn 0.8787 0.1855 0.4399
vn -0.0000 0.9680 -0.2510
vn 0.5167 0.5167 -0.6827
vn 0.6845 0.6845 -0.2510
vn -0.8163 0.4117 -0.4051
vn -0.6845 0.6845 -0.2510
vn -0.9858 -0.0647 -0.1549
vn -0.9680 -0.0000 -0.2510
vn -0.7023 -0.7023 -0.1160
vn -0.6845 -0.6845 -0.2510
vn -0.0000 -0.9932 -0.1160
vn -0.0000 -0.9680 -0.2511
vn 0.7023 -0.7023 -0.1160
vn 0.6845 -0.6845 -0.2510
vn 0.7635 -0.5078 -0.3991
vn 0.9680 -0.0000 -0.2510
vn -0.7436 0.2131 -0.6337
vn -0.0000 0.3455 -0.9384
vn 0.4319 0.7933 -0.4291
vn -0.7161 -0.0000 -0.6980
vn -0.3761 -0.0000 -0.9266
vn -0.1333 -0.0000 -0.9911
vn -0.9119 -0.0000 -0.4104
vn -0.1679 0.9855 0.0246
vt 0.626403 0.000185
vt 0.625422 0.265526
vt 0.608061 0.266563
vt 0.607285 0.000144
vt 0.590364 0.269256
vt 0.588304 0.000196
vt 0.572030 0.272374
vt 0.569674 0.000304
vt 0.553105 0.274141
vt 0.551396 0.000421
vt 0.700904 0.000899
vt 0.698009 0.274446
vt 0.679015 0.272547
vt 0.682232 0.000702
vt 0.660586 0.269326
vt 0.663974 0.000506
vt 0.642814 0.266582
vt 0.645370 0.000318
vt 0.625672 0.684299
vt 0.625701 0.730412
vt 0.606877 0.730963
vt 0.608550 0.684945
vt 0.588268 0.731499
vt 0.591210 0.685110
vt 0.569878 0.731408
vt 0.573441 0.684365
vt 0.551396 0.730167
vt 0.555040 0.682788
vt 0.696858 0.683297
vt 0.699785 0.730725
vt 0.681260 0.730830
vt 0.678306 0.683387
vt 0.662940 0.730350
vt 0.660307 0.683501
vt 0.713514 0.395184
vt 0.730939 0.395185
vt 0.743263 0.407506
vt 0.743263 0.424932
vt 0.730942 0.437255
vt 0.713514 0.437255
vt 0.701193 0.424933
vt 0.701193 0.407507
vt 0.644442 0.730076
vt 0.642822 0.683803
vt 0.593715 0.624164
vt 0.610779 0.618877
vt 0.575503 0.628757
vt 0.557097 0.629647
vt 0.676081 0.627340
vt 0.694654 0.630264
vt 0.657821 0.621897
vt 0.641074 0.617345
vt 0.626075 0.616020
vt 0.625761 0.556373
vt 0.640602 0.557540
vt 0.625476 0.498030
vt 0.640553 0.498699
vt 0.625335 0.439922
vt 0.640701 0.440167
vt 0.625268 0.380909
vt 0.641077 0.381081
vt 0.625340 0.322924
vt 0.641167 0.323200
vt 0.657519 0.561814
vt 0.657301 0.501394
vt 0.657244 0.441199
vt 0.657405 0.381393
vt 0.657734 0.323357
vt 0.676085 0.567196
vt 0.675621 0.504865
vt 0.675108 0.442636
vt 0.675062 0.381590
vt 0.675718 0.323528
vt 0.694520 0.570378
vt 0.693958 0.507071
vt 0.693570 0.443769
vt 0.693896 0.382008
vt 0.695064 0.324139
vt 0.556805 0.569654
vt 0.574991 0.568507
vt 0.556854 0.506278
vt 0.575027 0.505809
vt 0.556895 0.443087
vt 0.575150 0.443057
vt 0.556487 0.381505
vt 0.575327 0.381484
vt 0.555685 0.323699
vt 0.574995 0.323267
vt 0.593456 0.563918
vt 0.593241 0.503022
vt 0.593031 0.442116
vt 0.593004 0.381529
vt 0.592950 0.323218
vt 0.610673 0.558937
vt 0.610231 0.499824
vt 0.609801 0.440803
vt 0.609421 0.381204
vt 0.609508 0.323142
vt 0.158195 0.161126
vt 0.179676 0.138938
vt 0.235654 0.362600
vt 0.200750 0.341887
vt 0.363965 0.460117
vt 0.385176 0.465106
vt 0.379848 0.471207
vt 0.364730 0.466857
vt 0.240373 0.054354
vt 0.194326 0.058322
vt 0.185404 0.002247
vt 0.241711 0.000144
vt 0.150206 0.073580
vt 0.125556 0.018009
vt 0.108316 0.096813
vt 0.072871 0.051395
vt 0.072873 0.127904
vt 0.032217 0.091538
vt 0.043791 0.166549
vt 0.000144 0.131646
vt 0.376976 0.110224
vt 0.330673 0.078428
vt 0.352886 0.022088
vt 0.409947 0.050105
vt 0.285763 0.061405
vt 0.296379 0.006003
vt 0.320917 0.098301
vt 0.296068 0.154044
vt 0.266729 0.133181
vt 0.281418 0.081148
vt 0.197523 0.077697
vt 0.239772 0.071921
vt 0.157634 0.092242
vt 0.121293 0.115593
vt 0.086280 0.140683
vt 0.064486 0.171194
vt 0.355925 0.123362
vt 0.130553 0.186505
vt 0.157281 0.330680
vt 0.097455 0.206524
vt 0.237384 0.123639
vt 0.206913 0.126418
vt 0.332783 0.167170
vt 0.267976 0.370609
vt 0.300547 0.367060
vt 0.331353 0.353140
vt 0.353907 0.328298
vt 0.378895 0.293045
vt 0.110280 0.331443
vt 0.357870 0.415584
vt 0.416342 0.395308
vt 0.312458 0.427303
vt 0.268414 0.428592
vt 0.225416 0.425736
vt 0.183924 0.420868
vt 0.137538 0.414077
vt 0.086997 0.406174
vt 0.080516 0.489378
vt 0.000144 0.488627
vt 0.003609 0.401707
vt 0.346618 0.469420
vt 0.462744 0.343494
vt 0.301851 0.488124
vt 0.341987 0.487168
vt 0.441540 0.484184
vt 0.393743 0.485558
vt 0.133182 0.489419
vt 0.180333 0.489521
vt 0.224273 0.489239
vt 0.266284 0.488728
vt 0.351537 0.473536
vt 0.730847 0.028161
vt 0.797536 0.000144
vt 0.795342 0.048288
vt 0.758833 0.059259
vt 0.701193 0.138795
vt 0.701193 0.081712
vt 0.737711 0.090298
vt 0.740721 0.136266
vt 0.790303 0.158852
vt 0.786592 0.240269
vt 0.756013 0.223840
vt 0.386088 0.485887
vt 0.347253 0.487041
vt 0.792999 0.099697
vt 0.373456 0.479451
vt 0.365803 0.476481
vt 0.358425 0.479460
vt 0.355004 0.486833
vt 0.377023 0.487235
vt 0.784964 0.276002
vt 0.725258 0.252767
vt 0.745315 0.296146
vt 0.789437 0.276290
vt 0.789437 0.375037
vt 0.745315 0.394896
vt 0.496783 0.428741
vt 0.533071 0.402987
vt 0.551108 0.481785
vt 0.508217 0.482805
vt 0.171068 0.843349
vt 0.202033 0.642028
vt 0.238029 0.621834
vt 0.190620 0.864297
vt 0.365291 0.513500
vt 0.365787 0.506671
vt 0.380620 0.501861
vt 0.386495 0.507689
vt 0.252414 0.943323
vt 0.254093 0.999856
vt 0.195716 0.995224
vt 0.205705 0.941107
vt 0.139090 0.978907
vt 0.162473 0.926808
vt 0.090517 0.947042
vt 0.123922 0.904066
vt 0.052496 0.910183
vt 0.090188 0.876412
vt 0.022307 0.872711
vt 0.063084 0.839859
vt 0.377855 0.881456
vt 0.414548 0.931996
vt 0.366423 0.964163
vt 0.338703 0.914916
vt 0.313715 0.989123
vt 0.296532 0.932186
vt 0.327246 0.896661
vt 0.291236 0.915882
vt 0.273928 0.865512
vt 0.300450 0.843509
vt 0.208844 0.923654
vt 0.250573 0.922123
vt 0.170949 0.907790
vt 0.133641 0.889884
vt 0.104490 0.862581
vt 0.080335 0.835257
vt 0.360416 0.872218
vt 0.144576 0.818442
vt 0.158471 0.652346
vt 0.111154 0.800001
vt 0.216489 0.875373
vt 0.245950 0.876350
vt 0.335928 0.829189
vt 0.271042 0.612547
vt 0.304802 0.614726
vt 0.336987 0.627080
vt 0.361213 0.650079
vt 0.385989 0.681266
vt 0.114233 0.654368
vt 0.361433 0.558574
vt 0.421350 0.574263
vt 0.314818 0.549188
vt 0.270119 0.549524
vt 0.226729 0.553270
vt 0.185221 0.558464
vt 0.138487 0.564982
vt 0.085487 0.573407
vt 0.001698 0.576043
vt 0.347436 0.504790
vt 0.468803 0.624586
vt 0.393744 0.485568
vt 0.352208 0.500417
vt 0.861401 0.034111
vt 0.830702 0.062535
vt 0.880868 0.146984
vt 0.841734 0.140870
vt 0.848913 0.095366
vt 0.886061 0.090137
vt 0.818539 0.226690
vt 0.386089 0.485896
vt 0.366556 0.496914
vt 0.373411 0.494352
vt 0.358904 0.494039
vt 0.377030 0.487244
vt 0.846536 0.258294
vt 0.701193 0.375037
vt 0.701193 0.276290
vt 0.499365 0.537431
vt 0.536934 0.561627
s 1
f 1/1/1 2/2/2 4/3/3 3/4/4
f 3/4/4 4/3/3 6/5/5 5/6/6
f 5/6/6 6/5/5 8/7/7 7/8/8
f 7/8/8 8/7/7 10/9/9 9/10/10
f 9/11/10 10/12/9 12/13/11 11/14/12
f 11/14/12 12/13/11 14/15/13 13/16/14
f 13/16/14 14/15/13 16/17/15 15/18/16
f 15/18/16 16/17/15 2/2/2 1/1/1
f 17/19/17 18/20/18 20/21/19 19/22/20
f 19/22/20 20/21/19 22/23/21 21/24/22
f 21/24/22 22/23/21 24/25/23 23/26/24
f 23/26/24 24/25/23 26/27/25 25/28/26
f 25/29/26 26/30/25 28/31/27 27/32/28
f 27/32/28 28/31/27 30/33/29 29/34/30
f 20/35/31 18/36/31 32/37/31 30/38/31 28/39/31 26/40/31 24/41/31 22/42/31
f 29/34/30 30/33/29 32/43/32 31/44/33
f 31/44/33 32/43/32 18/20/18 17/19/17
f 19/22/20 21/24/22 74/45/34 75/46/35
f 21/24/22 23/26/24 68/47/36 74/45/34
f 23/26/24 25/28/26 62/48/37 68/47/36
f 25/29/26 27/32/28 56/49/38 62/50/37
f 27/32/28 29/34/30 50/51/39 56/49/38
f 29/34/30 31/44/33 44/52/40 50/51/39
f 31/44/33 17/19/17 38/53/41 44/52/40
f 17/19/17 19/22/20 75/46/35 38/53/41
f 44/52/40 38/53/41 37/54/42 43/55/43
f 43/55/43 37/54/42 36/56/44 42/57/45
f 42/57/45 36/56/44 35/58/46 41/59/47
f 41/59/47 35/58/46 34/60/48 40/61/49
f 40/61/49 34/60/48 33/62/50 39/63/51
f 39/63/51 33/62/50 2/2/2 16/17/15
f 50/51/39 44/52/40 43/55/43 49/64/52
f 49/64/52 43/55/43 42/57/45 48/65/53
f 48/65/53 42/57/45 41/59/47 47/66/54
f 47/66/54 41/59/47 40/61/49 46/67/55
f 46/67/55 40/61/49 39/63/51 45/68/56
f 45/68/56 39/63/51 16/17/15 14/15/13
f 56/49/38 50/51/39 49/64/52 55/69/57
f 55/69/57 49/64/52 48/65/53 54/70/58
f 54/70/58 48/65/53 47/66/54 53/71/59
f 53/71/59 47/66/54 46/67/55 52/72/60
f 52/72/60 46/67/55 45/68/56 51/73/61
f 51/73/61 45/68/56 14/15/13 12/13/11
f 62/50/37 56/49/38 55/69/57 61/74/62
f 61/74/62 55/69/57 54/70/58 60/75/63
f 60/75/63 54/70/58 53/71/59 59/76/64
f 59/76/64 53/71/59 52/72/60 58/77/65
f 58/77/65 52/72/60 51/73/61 57/78/66
f 57/78/66 51/73/61 12/13/11 10/12/9
f 68/47/36 62/48/37 61/79/62 67/80/67
f 67/80/67 61/79/62 60/81/63 66/82/68
f 66/82/68 60/81/63 59/83/64 65/84/69
f 65/84/69 59/83/64 58/85/65 64/86/70
f 64/86/70 58/85/65 57/87/66 63/88/71
f 63/88/71 57/87/66 10/9/9 8/7/7
f 74/45/34 68/47/36 67/80/67 73/89/72
f 73/89/72 67/80/67 66/82/68 72/90/73
f 72/90/73 66/82/68 65/84/69 71/91/74
f 71/91/74 65/84/69 64/86/70 70/92/75
f 70/92/75 64/86/70 63/88/71 69/93/76
f 69/93/76 63/88/71 8/7/7 6/5/5
f 75/46/35 74/45/34 73/89/72 76/94/77
f 76/94/77 73/89/72 72/90/73 77/95/78
f 77/95/78 72/90/73 71/91/74 78/96/79
f 78/96/79 71/91/74 70/92/75 79/97/80
f 79/97/80 70/92/75 69/93/76 80/98/81
f 80/98/81 69/93/76 6/5/5 4/3/3
f 38/53/41 75/46/35 76/94/77 37/54/42
f 37/54/42 76/94/77 77/95/78 36/56/44
f 36/56/44 77/95/78 78/96/79 35/58/46
f 35/58/46 78/96/79 79/97/80 34/60/48
f 34/60/48 79/97/80 80/98/81 33/62/50
f 33/62/50 80/98/81 4/3/3 2/2/2
f 116/99/82 115/100/83 84/101/83 83/102/84
f 123/103/85 124/104/86 146/105/87 144/106/6
f 105/107/6 106/108/88 90/109/88 89/110/6
f 106/108/88 107/111/89 91/112/89 90/109/88
f 107/111/89 108/113/90 92/114/90 91/112/89
f 108/113/90 109/115/14 93/116/14 92/114/90
f 109/115/14 110/117/91 94/118/91 93/116/14
f 110/119/91 111/120/92 95/121/92 94/122/91
f 111/120/92 112/123/93 96/124/93 95/121/92
f 112/123/93 105/107/6 89/110/6 96/124/93
f 103/125/92 119/126/92 120/127/93 104/128/93
f 98/129/10 106/108/10 105/107/10 97/130/10
f 99/131/10 107/111/10 106/108/10 98/129/10
f 100/132/10 108/113/10 107/111/10 99/131/10
f 101/133/10 109/115/10 108/113/10 100/132/10
f 102/134/10 110/117/10 109/115/10 101/133/10
f 103/125/10 111/120/10 110/119/10 102/135/10
f 104/128/10 112/123/10 111/120/10 103/125/10
f 97/130/10 105/107/10 112/123/10 104/128/10
f 117/136/94 116/99/82 83/102/84 82/137/95
f 101/133/14 117/136/14 118/138/91 102/134/91
f 99/131/89 115/100/89 116/99/90 100/132/90
f 97/130/6 113/139/6 114/140/88 98/129/88
f 104/128/93 120/127/93 113/139/6 97/130/6
f 102/135/91 118/141/91 119/126/92 103/125/92
f 100/132/90 116/99/90 117/136/14 101/133/14
f 98/129/88 114/140/88 115/100/89 99/131/89
f 115/100/83 114/140/96 85/142/97 84/101/83
f 114/140/96 113/139/98 86/143/98 85/142/97
f 113/139/98 120/127/99 87/144/99 86/143/98
f 120/127/99 119/126/100 88/145/100 87/144/99
f 119/126/100 118/141/101 81/146/101 88/145/100
f 118/138/101 117/136/94 82/137/95 81/147/101
f 131/148/102 87/144/102 88/145/103 132/149/104
f 130/150/105 86/143/106 87/144/102 131/148/102
f 129/151/107 85/142/108 86/143/106 130/150/105
f 128/152/109 84/101/110 85/142/108 129/151/107
f 127/153/111 83/102/112 84/101/110 128/152/109
f 126/154/113 82/137/114 83/102/112 127/153/111
f 125/155/115 81/147/116 82/137/114 126/154/113
f 125/155/115 135/156/117 162/157/118 161/158/118
f 130/150/105 131/148/119 123/103/85 122/159/120
f 131/148/119 132/149/121 124/104/86 123/103/85
f 132/149/104 88/145/103 81/146/116 125/160/115
f 136/161/122 130/150/105 122/159/120 121/162/123
f 132/149/121 134/163/124 133/164/125 124/104/86
f 125/155/115 126/154/113 140/165/126 135/156/117
f 126/154/113 127/153/111 139/166/89 140/165/126
f 127/153/111 128/152/109 138/167/127 139/166/89
f 128/152/109 129/151/107 137/168/128 138/167/127
f 129/151/107 130/150/105 136/161/122 137/168/128
f 122/159/120 123/103/85 144/106/6 143/169/129
f 156/170/87 141/171/1 151/172/1 152/173/87
f 155/174/130 153/175/6 150/176/6 149/177/131
f 149/177/92 148/178/92 159/179/92 158/180/92
f 124/104/86 133/164/125 145/181/1 146/105/87
f 121/162/123 122/159/120 143/169/129 142/182/10
f 149/177/92 150/176/92 147/183/92 148/178/92
f 150/176/92 152/173/92 151/172/92 147/183/92
f 153/175/6 156/170/87 152/173/87 150/176/6
f 144/106/6 146/105/87 156/184/87 153/185/6
f 142/182/10 143/169/129 155/186/130 154/187/10
f 143/169/129 144/106/6 153/185/6 155/186/130
f 146/105/87 145/181/1 141/188/1 156/184/87
f 160/189/10 157/190/132 158/180/132 159/179/10
f 154/191/89 155/192/89 157/193/89 160/194/89
f 155/174/130 149/177/131 158/180/6 157/190/6
f 164/195/1 161/196/1 162/197/1 163/198/1
f 132/149/104 125/160/115 161/196/6 164/195/6
f 134/163/124 132/149/121 164/195/133 163/198/134
f 200/199/135 167/200/136 168/201/137 199/202/138
f 206/203/139 217/204/14 218/205/140 207/206/141
f 189/207/14 173/208/14 174/209/90 190/210/90
f 190/210/90 174/209/90 175/211/89 191/212/89
f 191/212/89 175/211/89 176/213/88 192/214/88
f 192/214/88 176/213/88 177/215/6 193/216/6
f 193/216/6 177/215/6 178/217/93 194/218/93
f 194/219/93 178/220/93 179/221/92 195/222/92
f 195/222/92 179/221/92 180/223/91 196/224/91
f 196/224/91 180/223/91 173/208/14 189/207/14
f 187/225/92 188/226/91 204/227/91 203/228/92
f 182/229/10 181/230/10 189/207/10 190/210/10
f 183/231/10 182/229/10 190/210/10 191/212/10
f 184/232/10 183/231/10 191/212/10 192/214/10
f 185/233/10 184/232/10 192/214/10 193/216/10
f 186/234/10 185/233/10 193/216/10 194/218/10
f 187/225/10 186/235/10 194/219/10 195/222/10
f 188/226/10 187/225/10 195/222/10 196/224/10
f 181/230/10 188/226/10 196/224/10 189/207/10
f 201/236/142 166/237/143 167/200/136 200/199/135
f 185/233/6 186/234/93 202/238/93 201/236/6
f 183/231/89 184/232/88 200/199/88 199/202/89
f 181/230/14 182/229/90 198/239/90 197/240/14
f 188/226/91 181/230/14 197/240/14 204/227/91
f 186/235/93 187/225/92 203/228/92 202/241/93
f 184/232/88 185/233/6 201/236/6 200/199/88
f 182/229/90 183/231/89 199/202/89 198/239/90
f 199/202/138 168/201/137 169/242/144 198/239/144
f 198/239/144 169/242/144 170/243/145 197/240/146
f 197/240/146 170/243/145 171/244/147 204/227/148
f 204/227/148 171/244/147 172/245/149 203/228/150
f 203/228/150 172/245/149 165/246/151 202/241/151
f 202/238/151 165/247/151 166/237/143 201/236/142
f 214/248/152 215/249/153 172/245/154 171/244/152
f 213/250/155 214/248/152 171/244/152 170/243/156
f 212/251/157 213/250/155 170/243/156 169/242/158
f 211/252/159 212/251/157 169/242/158 168/201/160
f 210/253/161 211/252/159 168/201/160 167/200/162
f 209/254/163 210/253/161 167/200/162 166/237/164
f 208/255/165 209/254/163 166/237/164 165/247/166
f 208/255/165 227/256/118 162/157/118 135/156/117
f 213/250/155 205/257/167 206/203/139 214/248/168
f 214/248/168 206/203/139 207/206/141 215/249/169
f 215/249/153 208/258/165 165/246/166 172/245/154
f 136/161/122 121/162/123 205/257/167 213/250/155
f 215/249/169 207/206/141 133/259/125 134/163/124
f 208/255/165 135/156/117 140/165/126 209/254/163
f 209/254/163 140/165/126 139/166/89 210/253/161
f 210/253/161 139/166/89 138/167/127 211/252/159
f 211/252/159 138/167/127 137/168/128 212/251/157
f 212/251/157 137/168/128 136/161/122 213/250/155
f 205/257/167 216/260/170 217/204/14 206/203/139
f 224/261/140 221/262/140 151/172/1 141/171/1
f 223/263/171 219/264/172 220/265/14 222/266/14
f 219/264/92 226/267/92 159/179/92 148/178/92
f 207/206/141 218/205/140 145/268/1 133/259/125
f 121/162/123 142/182/10 216/260/170 205/257/167
f 219/264/92 148/178/92 147/183/92 220/265/92
f 220/265/92 147/183/92 151/172/92 221/262/92
f 222/266/14 220/265/14 221/262/140 224/261/140
f 217/204/14 222/269/14 224/270/140 218/205/140
f 142/182/10 154/187/10 223/271/171 216/260/170
f 216/260/170 223/271/171 222/269/14 217/204/14
f 218/205/140 224/270/140 141/272/1 145/268/1
f 160/189/10 159/179/10 226/267/173 225/273/173
f 154/191/89 160/194/89 225/274/89 223/275/89
f 223/263/171 225/273/14 226/267/14 219/264/172
f 228/276/1 163/198/1 162/197/1 227/277/1
f 215/249/153 228/276/14 227/277/14 208/258/165
f 134/163/124 163/198/134 228/276/174 215/249/169
