# Blender 4.1.1
# www.blender.org
mtllib stage4_box1.mtl
o cardboardboxes_cardboardboxes_006_0
v 286.543335 216.609879 -1360.123779
v 299.348541 216.625351 -1353.332397
v 299.439697 235.009811 -1353.283936
v 286.611694 234.979080 -1360.087524
v 290.688904 216.625244 -1337.114746
v 282.029236 216.625244 -1320.897339
v 282.029236 235.009811 -1320.897339
v 290.734406 235.009811 -1337.090454
v 243.637405 216.578812 -1341.258911
v 230.810593 216.563278 -1348.061890
v 230.810593 234.661133 -1348.061890
v 243.637405 234.908951 -1341.258911
v 245.885162 216.563385 -1376.484741
v 248.038834 216.563385 -1380.545166
v 248.038834 234.885986 -1380.545166
v 245.885162 234.885986 -1376.484741
v 252.252045 198.240616 -1357.500488
v 239.425232 198.240616 -1364.303467
v 230.810593 198.240738 -1348.061890
v 243.637405 198.240616 -1341.258911
v 256.780182 234.006653 -1365.890991
v 252.648407 233.096268 -1358.063965
v 240.209213 233.096313 -1364.661133
v 244.124069 233.991180 -1372.603271
v 273.475616 235.047119 -1336.110962
v 277.704529 235.115402 -1344.545288
v 290.106689 235.115402 -1337.967529
v 286.067993 235.062546 -1329.432251
v 244.889114 235.654099 -1361.405396
v 250.354111 236.422195 -1358.507080
v 242.005127 236.422195 -1342.766357
v 236.408386 235.626801 -1345.413940
v 288.911774 235.179672 -1353.321411
v 285.565887 235.247772 -1354.958252
v 287.653015 235.509491 -1358.893555
v 291.024323 235.366592 -1357.288940
v 290.972351 216.493530 -1336.965332
v 290.972351 235.007675 -1336.965332
v 282.293915 235.007675 -1320.602295
v 282.293915 216.493530 -1320.602295
v 239.097092 216.493530 -1364.478638
v 239.097092 235.007675 -1364.478638
v 247.775269 235.007782 -1380.841797
v 247.775269 216.493652 -1380.841797
v 290.263275 235.207306 -1337.877686
v 290.419891 235.299271 -1337.787598
v 286.269073 235.202744 -1329.202148
v 282.118317 235.106049 -1320.616699
v 282.105652 235.094009 -1320.621460
v 282.092987 235.081909 -1320.626465
v 282.061157 235.045944 -1320.761719
v 240.176758 233.170227 -1364.750488
v 240.144379 233.244171 -1364.840210
v 244.099854 234.184738 -1372.797852
v 248.055328 235.125412 -1380.755493
v 248.058777 235.094345 -1380.739014
v 248.063309 235.063110 -1380.722534
v 248.050568 234.974518 -1380.633911
v 256.800354 234.185303 -1366.068970
v 252.649796 233.244171 -1358.207764
v 299.576874 235.074417 -1353.459595
v 299.558228 235.083542 -1353.461548
v 299.539490 235.092606 -1353.463379
v 290.829376 235.092484 -1337.041382
v 282.119232 235.092484 -1320.619019
v 282.131439 235.083313 -1320.604736
v 282.143616 235.074203 -1320.590454
v 282.218719 235.040939 -1320.596313
v 299.650818 235.007675 -1353.328735
v 299.613861 235.041046 -1353.394165
v 243.406860 216.522583 -1341.109985
v 243.406860 235.060303 -1341.109985
v 230.478638 234.850189 -1347.966797
v 230.478638 216.524216 -1347.966797
v 293.546295 235.259705 -1356.088623
v 287.799438 235.613449 -1358.948608
v 287.945862 235.717529 -1359.003418
v 293.725769 235.401718 -1356.261597
v 299.505707 235.086304 -1353.519653
v 299.522797 235.083542 -1353.492554
v 299.539917 235.080948 -1353.465576
v 299.489807 235.045380 -1353.374634
v 299.650818 216.493530 -1353.328735
v 299.650818 197.979462 -1353.328735
v 299.603668 197.979462 -1353.412109
v 299.556519 197.979462 -1353.495605
v 299.556519 216.517914 -1353.495605
v 299.556519 235.056351 -1353.495605
v 299.566711 235.065414 -1353.477539
v 256.559601 236.512985 -1370.428223
v 258.659363 236.512985 -1374.387573
v 258.616669 236.603607 -1374.527100
v 256.503387 236.603607 -1370.543457
v 252.774445 235.140335 -1357.760376
v 240.249985 233.831787 -1364.403198
v 240.086990 234.225708 -1364.482422
v 252.691879 235.236008 -1357.797363
v 230.417816 234.795929 -1348.115479
v 230.417816 216.493530 -1348.115479
v 230.417816 197.979462 -1348.115479
v 230.447678 197.979462 -1348.041138
v 230.478638 197.979462 -1347.966797
v 230.471909 234.858124 -1347.983398
v 230.465179 234.866058 -1348.000122
v 230.440948 234.830933 -1348.057861
v 277.549316 233.170105 -1344.929565
v 289.978119 233.170105 -1338.337646
v 290.078644 233.244064 -1338.356689
v 277.616547 233.244064 -1344.966064
v 258.702026 236.422318 -1374.248169
v 253.370956 235.654205 -1377.396606
v 248.082855 235.074203 -1380.708862
v 248.102325 235.085281 -1380.695190
v 253.359497 235.844391 -1377.611206
v 282.053711 235.086075 -1320.615723
v 282.086456 235.089218 -1320.617432
v 285.831421 235.455856 -1355.016479
v 283.716888 235.194138 -1351.029907
v 279.488037 234.670807 -1343.056396
v 271.030273 233.624207 -1327.109375
v 276.542023 234.355118 -1323.862549
v 273.546417 235.204269 -1335.949829
v 277.858429 235.299271 -1344.449829
v 241.859436 236.512878 -1342.712158
v 241.713760 236.603485 -1342.657959
v 236.121567 235.828522 -1345.300171
v 233.325409 235.371719 -1346.621216
v 230.529312 234.883682 -1347.942505
v 230.520432 234.873825 -1347.959351
v 230.511536 234.863922 -1347.976440
v 230.661621 234.766830 -1348.019043
v 286.687836 216.517456 -1360.313843
v 286.706207 235.055511 -1360.297119
v 279.396240 234.566849 -1343.104492
v 270.993195 233.520248 -1327.260620
v 299.506989 197.876129 -1353.405029
v 299.531769 197.927795 -1353.450195
v 299.578857 197.927795 -1353.366699
v 247.918808 197.876129 -1380.765503
v 247.846558 197.927795 -1380.803833
v 247.919098 197.927795 -1380.823853
v 282.150085 197.876129 -1320.678711
v 282.222046 197.927795 -1320.640625
v 282.126160 197.927795 -1320.632812
v 230.562500 197.876129 -1348.039185
v 230.520020 197.927795 -1348.003052
v 230.490158 197.927795 -1348.077393
v 260.844330 197.927902 -1373.968750
v 247.918335 197.979462 -1380.882568
v 260.850586 197.979462 -1374.023804
v 248.075668 235.087250 -1380.706055
v 248.048904 235.089111 -1380.716797
v 239.271866 235.097168 -1364.357788
v 230.494873 234.889465 -1347.998901
v 230.512619 234.886826 -1347.970459
v 250.164642 236.603607 -1358.592529
v 254.390152 236.603607 -1366.560059
v 282.122864 235.065186 -1320.588745
v 282.102295 235.056183 -1320.587036
v 282.102295 216.517792 -1320.587036
v 282.102295 197.979462 -1320.587036
v 282.198059 197.979462 -1320.594849
v 282.293915 197.979462 -1320.602295
v 290.900513 197.927795 -1337.003662
v 290.972351 197.979462 -1336.965332
v 289.877563 233.096207 -1338.318848
v 294.658569 234.053085 -1345.801392
v 299.542938 235.104980 -1353.483521
v 299.546204 235.128906 -1353.501709
v 294.812500 234.186600 -1345.929321
v 270.956085 233.416183 -1327.411621
v 274.123444 233.872025 -1325.548462
v 276.492676 234.212997 -1324.154419
v 282.073364 235.083984 -1320.621094
v 269.246979 197.927795 -1327.463623
v 269.218597 197.979462 -1327.420288
v 240.411835 233.661530 -1364.324097
v 235.611740 233.927017 -1356.192749
v 230.502426 234.880859 -1347.986450
v 235.290680 234.135605 -1356.239624
v 239.168335 197.927795 -1364.440430
v 239.097092 197.979462 -1364.478638
v 247.775269 197.979462 -1380.841797
v 247.896194 235.041611 -1380.803101
v 248.017227 235.075317 -1380.764526
v 248.042297 235.064117 -1380.756592
v 248.066238 235.052811 -1380.748779
v 247.992813 216.516159 -1380.815552
v 247.846741 197.979462 -1380.862061
v 252.159836 197.876129 -1357.550293
v 243.481659 197.876129 -1341.187134
v 239.240677 197.876129 -1364.402344
v 248.061310 235.089111 -1380.751953
v 248.033600 235.082245 -1380.740479
v 299.551331 235.092606 -1353.498657
v 282.110321 235.081070 -1320.601929
v 230.485947 234.874054 -1347.981689
v 230.479523 234.877716 -1347.999634
v 286.701019 235.091812 -1360.300293
v 243.414200 235.084946 -1341.125000
v 269.226440 235.084320 -1327.435059
v 256.342377 235.087479 -1334.268188
v 256.335022 235.062546 -1334.253052
v 269.218597 235.059341 -1327.420288
v 260.955780 235.089951 -1373.927002
v 273.850616 235.090973 -1367.101807
v 273.855896 235.054550 -1367.098755
v 260.960724 235.053650 -1373.923706
v 277.953796 197.876129 -1343.869995
v 269.275269 197.876129 -1327.506958
v 256.400818 197.876129 -1334.335327
v 265.078979 197.876129 -1350.698364
v 243.444229 197.927795 -1341.148560
v 256.367401 197.927795 -1334.294312
v 256.335022 197.979462 -1334.253052
v 243.406860 197.979462 -1341.109985
v 286.650818 197.927795 -1360.281738
v 273.769897 197.927795 -1367.113403
v 273.782318 197.979462 -1367.165283
v 286.669342 197.979462 -1360.330444
v 260.906158 216.516617 -1373.973755
v 273.819153 216.517059 -1367.132080
v 248.057251 235.152481 -1349.468506
v 260.823761 235.205902 -1342.697388
v 265.296967 235.299271 -1351.111938
v 252.649139 233.170105 -1358.135864
v 265.120483 233.170105 -1351.521240
v 265.154510 233.244064 -1351.575439
v 277.781403 235.207306 -1344.497559
v 265.299622 235.207306 -1351.117676
v 269.218597 216.519318 -1327.420288
v 256.335022 216.520950 -1334.253052
v 282.156158 234.186142 -1352.634644
v 269.499969 234.185699 -1359.340332
v 248.247757 234.957291 -1349.491089
v 252.883377 234.998550 -1357.773682
v 265.302338 235.115402 -1351.123047
v 260.883270 235.031708 -1342.789551
v 282.046936 234.037506 -1352.490356
v 277.481964 233.096207 -1344.893066
v 265.086334 233.096207 -1351.467163
v 269.435120 234.022186 -1359.179077
v 277.860840 198.240738 -1343.918335
v 265.078400 198.240616 -1350.697754
v 256.464172 198.240616 -1334.455933
v 269.246796 198.240616 -1327.676758
v 269.246796 216.609772 -1327.676758
v 256.464172 216.594223 -1334.455933
v 256.464172 234.947952 -1334.455933
v 269.246796 234.978958 -1327.676758
v 260.888763 216.578918 -1373.730103
v 273.738129 216.594345 -1366.915161
v 273.783722 234.948059 -1366.890991
v 260.911865 234.916992 -1373.718018
v 248.038834 198.240616 -1380.545166
v 260.865662 198.240616 -1373.742188
v 273.692444 198.240616 -1366.939453
v 282.029236 198.240616 -1320.897339
v 290.643311 198.240738 -1337.138916
v 294.950348 198.240616 -1345.259888
v 282.167847 198.240616 -1352.039062
v 269.385406 198.240616 -1358.818481
v 286.695770 235.128113 -1360.303345
v 273.845367 235.127274 -1367.104980
v 243.422607 235.109650 -1341.139648
v 256.350800 235.112473 -1334.283081
v 286.632294 197.876129 -1360.233398
v 273.757538 197.876129 -1367.061646
v 290.828491 197.876129 -1337.041748
v 260.950928 235.126434 -1373.930176
v 269.234467 235.109207 -1327.450073
v 260.838013 197.876129 -1373.913574
v 283.597809 235.090073 -1351.026367
v 283.478790 234.986115 -1351.023193
v 279.304565 234.462784 -1343.152588
v 250.259415 236.512878 -1358.550049
v 256.614777 236.422318 -1370.312866
v 297.263336 235.009811 -1349.235474
v 291.414581 235.128906 -1352.096802
v 285.019531 234.736374 -1340.121582
v 282.573914 234.619247 -1341.418701
v 239.425232 234.885864 -1364.303467
v 243.731506 234.885986 -1372.424316
v 249.130081 235.654205 -1369.401001
v 254.527512 236.422318 -1366.377808
v 256.558319 198.240616 -1365.621582
v 243.731506 198.240616 -1372.424316
v 239.425232 216.563385 -1364.303467
v 245.885162 198.240616 -1376.484741
v 295.018738 216.625244 -1345.223389
v 295.087097 235.009811 -1345.187256
v 286.474823 198.240616 -1360.160034
v 299.257355 198.240616 -1353.380615
v 297.103790 198.240616 -1349.320312
v 297.183594 216.625244 -1349.277832
v 243.731506 216.563385 -1372.424316
v 258.711945 198.240616 -1369.681763
v 271.538910 198.240616 -1362.879028
v 251.250504 235.654205 -1373.398682
v 289.282928 234.997986 -1348.105103
v 254.458862 236.512985 -1366.468872
v 285.698639 235.351730 -1354.987549
v 284.321381 198.240616 -1356.099609
v 286.799225 234.992859 -1349.353882
v 297.017090 220.820953 -1403.644897
v 278.481262 218.502121 -1363.838379
v 317.600586 225.944717 -1345.188965
v 336.136353 228.263412 -1384.995483
v 318.308807 220.829407 -1345.439941
v 279.798126 213.502686 -1363.799316
v 278.943359 218.294052 -1363.918213
v 317.454041 225.620773 -1345.558960
v 297.963074 215.755905 -1403.583008
v 337.063660 223.194885 -1384.942627
v 336.628906 223.121216 -1384.782959
v 298.118256 215.794617 -1403.142334
v 337.104126 223.204742 -1384.828003
v 318.577026 220.887192 -1345.040527
v 318.421844 220.848541 -1345.481323
v 336.669159 223.131241 -1384.668579
v 278.699829 217.148010 -1363.732056
v 317.800537 224.587036 -1345.091431
v 317.572693 225.864502 -1345.123169
v 278.471924 218.425430 -1363.763672
v 336.400146 226.913742 -1385.034790
v 297.299500 219.474838 -1403.675537
v 297.071655 220.752243 -1403.707031
v 336.172241 228.191162 -1385.066650
v 317.913544 224.606125 -1345.132690
v 336.440552 226.923752 -1384.920410
v 336.212646 228.201157 -1384.952026
v 317.685577 225.883606 -1345.164551
v 279.323029 213.419113 -1363.754272
v 297.850098 215.736801 -1403.541748
v 298.005341 215.775436 -1403.100952
v 279.757843 213.492645 -1363.913696
v 297.186615 219.455734 -1403.633911
v 278.659515 217.137924 -1363.846558
v 278.431610 218.415390 -1363.878296
v 296.958649 220.733231 -1403.665771
v 297.150482 220.566650 -1403.219727
v 278.903076 218.283966 -1364.032715
v 335.773987 227.912415 -1384.901978
v 297.263428 220.585800 -1403.261353
v 317.566956 225.639893 -1345.600220
v 335.814362 227.922501 -1384.787598
v 279.363403 213.429138 -1363.639648
v 318.464142 220.868149 -1344.999146
v 599.177185 26.713303 -960.225220
v 601.940186 26.735794 -939.334961
v 601.959839 53.462906 -939.186279
v 599.191895 53.418060 -960.113647
v 575.434204 26.735641 -935.904907
v 548.927917 26.735641 -932.474609
v 548.927917 53.462738 -932.474609
v 575.444092 53.462738 -935.830444
v 540.643982 26.668137 -995.106079
v 537.876221 26.645554 -1016.031372
v 537.876221 52.955841 -1016.031372
v 540.643982 53.316116 -995.106079
v 584.244690 26.645721 -1022.164368
v 590.868896 26.645721 -1023.040527
v 590.868896 53.282715 -1023.040527
v 584.244690 53.282547 -1022.164368
v 567.140381 0.008469 -998.610596
v 564.372681 0.008469 -1019.536011
v 537.876221 0.008469 -1016.031372
v 540.643982 0.008469 -995.106079
v 580.894287 52.004364 -1000.328796
v 568.141907 50.680786 -998.617004
v 565.458008 50.680786 -1018.908813
v 578.163574 51.981873 -1020.974609
v 559.723022 53.516983 -955.437012
v 573.276184 53.616226 -957.546387
v 575.952332 53.616226 -937.313477
v 562.440186 53.539398 -934.894043
v 565.551758 54.399384 -1010.621643
v 566.730835 55.516052 -1001.707275
v 541.050903 55.516052 -998.310730
v 539.463562 54.359711 -1007.171143
v 593.121948 53.709686 -951.682190
v 592.237061 53.808853 -957.024414
v 598.657104 54.189178 -957.873535
v 599.601746 53.981415 -952.528381
v 575.496460 26.544189 -935.443237
v 575.496460 53.459625 -935.443237
v 548.801758 53.459625 -931.912415
v 548.801758 26.544189 -931.912415
v 564.302979 26.544189 -1020.072571
v 564.302979 53.459625 -1020.072571
v 590.997192 53.459793 -1023.603333
v 590.997192 26.544342 -1023.603333
v 575.977905 53.749847 -937.052246
v 576.003540 53.883560 -936.791016
v 562.337158 53.743225 -934.461731
v 548.670593 53.602661 -932.132446
v 548.665894 53.585144 -932.151733
v 548.660645 53.567551 -932.170654
v 548.794434 53.515274 -932.322693
v 565.536255 50.788208 -1019.023071
v 565.614746 50.895737 -1019.137390
v 578.373230 52.263275 -1021.167847
v 591.131775 53.630798 -1023.198120
v 591.115601 53.585632 -1023.180054
v 591.099121 53.540222 -1023.161865
v 590.984131 53.411423 -1023.101196
v 581.121826 52.264084 -1000.454956
v 568.313110 50.895737 -998.736572
v 602.283569 53.556671 -939.171997
v 602.270142 53.569931 -939.195984
v 602.256836 53.583267 -939.219727
v 575.465698 53.582947 -935.676514
v 548.674500 53.582947 -932.133484
v 548.667786 53.569595 -932.106995
v 548.660767 53.556335 -932.080322
v 548.731201 53.507980 -931.996338
v 602.190674 53.459793 -938.973999
v 602.237549 53.508148 -939.073120
v 540.272278 26.586395 -995.254150
v 540.272278 53.536133 -995.254150
v 537.482666 53.230682 -1016.345337
v 537.482666 26.588776 -1016.345337
v 600.308594 53.826050 -948.529968
v 598.845459 54.340302 -957.746521
v 599.034424 54.491608 -957.619507
v 600.664246 54.032654 -948.463257
v 602.294739 53.573929 -939.307068
v 602.259399 53.566162 -939.220825
v 602.109680 53.514450 -939.203552
v 602.190674 26.544342 -938.973999
v 602.190674 -0.371185 -938.973999
v 602.250061 -0.371185 -939.100220
v 602.309082 -0.371185 -939.226562
v 602.309082 26.579605 -939.226562
v 602.309082 53.530396 -939.226562
v 602.296265 53.543564 -939.199402
v 586.079773 55.648010 -1004.417786
v 592.539062 55.648010 -1005.272156
v 592.667908 55.779770 -1005.440674
v 586.169128 55.779770 -1004.581055
v 567.888733 53.652481 -998.210693
v 565.186096 51.749985 -1018.644043
v 565.142944 52.322845 -1018.902832
v 567.862671 53.791428 -998.339600
v 537.608154 53.151810 -1016.541748
v 537.608154 26.544189 -1016.541748
v 537.608154 -0.371185 -1016.541748
v 537.545654 -0.371185 -1016.443604
v 537.482666 -0.371185 -1016.345337
v 537.497070 53.242218 -1016.367310
v 537.510864 53.253754 -1016.389404
v 537.559509 53.202698 -1016.465515
v 573.600342 50.788208 -958.054199
v 576.282166 50.788208 -937.778076
v 576.389404 50.895737 -937.674866
v 573.700439 50.895737 -958.005493
v 592.410156 55.516205 -1005.103821
v 591.639648 54.399551 -1014.072144
v 591.099731 53.556335 -1023.127075
v 591.100342 53.572464 -1023.092102
v 591.884155 54.676041 -1014.266357
v 548.615173 53.573608 -932.208130
v 548.644836 53.578186 -932.170776
v 602.275757 53.578522 -939.263306
v 592.530151 54.111191 -956.759277
v 586.026245 53.730865 -955.898987
v 573.018494 52.969910 -954.178528
v 547.002563 51.448380 -950.737488
v 547.808838 52.510956 -941.472778
v 559.591980 53.745438 -955.217163
v 573.293030 53.883560 -957.283569
v 540.863831 55.647858 -998.437256
v 540.676758 55.779602 -998.563965
v 539.087097 54.652954 -1007.414062
v 538.291992 53.988861 -1011.838806
v 537.497437 53.279358 -1016.263916
v 537.509888 53.265045 -1016.288818
v 537.522095 53.250656 -1016.313660
v 537.699341 53.109497 -1016.172546
v 599.524170 26.578949 -960.214600
v 599.519897 53.529175 -960.178589
v 572.998169 52.818771 -954.327759
v 547.150208 51.297241 -950.908997
v 602.159668 -0.521423 -939.208740
v 602.234497 -0.446320 -939.217651
v 602.175171 -0.446320 -939.091370
v 591.028198 -0.521423 -1023.368591
v 591.012695 -0.446320 -1023.485901
v 591.097717 -0.446320 -1023.418030
v 548.770630 -0.521423 -932.147217
v 548.786133 -0.446320 -932.029846
v 548.696594 -0.446320 -932.136902
v 537.639160 -0.521423 -1016.307068
v 537.561279 -0.446320 -1016.326172
v 537.623657 -0.446320 -1016.424377
v 593.886719 -0.446320 -1002.331482
v 591.166870 -0.371185 -1023.467407
v 593.957275 -0.371185 -1002.370789
v 591.090698 53.575333 -1023.132568
v 591.080688 53.578033 -1023.173157
v 564.307861 53.589722 -1019.762451
v 537.535278 53.287796 -1016.351990
v 537.516357 53.283951 -1016.307861
v 566.672607 55.779602 -1002.002319
v 579.670105 55.779770 -1003.721436
v 548.641357 53.543243 -932.103516
v 548.621948 53.530167 -932.126587
v 548.621948 26.579437 -932.126587
v 548.621948 -0.371185 -932.126587
v 548.712158 -0.371185 -932.019531
v 548.801758 -0.371185 -931.912415
v 575.480957 -0.446320 -935.560669
v 575.496460 -0.371185 -935.443237
v 576.175171 50.680786 -937.881287
v 589.067627 52.072052 -938.533813
v 602.283325 53.601105 -939.232483
v 602.307678 53.636047 -939.244141
v 589.348267 52.265961 -938.459412
v 547.297852 51.145950 -951.080444
v 547.764038 51.808655 -945.758667
v 548.112915 52.304352 -941.777588
v 548.638062 53.570572 -932.189453
v 545.917603 -0.446320 -953.147888
v 545.841919 -0.371185 -953.144836
v 565.229370 51.502472 -1018.384888
v 551.552734 51.888596 -1017.208130
v 537.526978 53.275284 -1016.332764
v 551.337219 52.191833 -1017.627563
v 564.318481 -0.446320 -1019.955200
v 564.302979 -0.371185 -1020.072571
v 590.997192 -0.371185 -1023.603333
v 591.053833 53.508972 -1023.427490
v 591.110107 53.557983 -1023.251465
v 591.121399 53.541702 -1023.215637
v 591.133179 53.525253 -1023.180115
v 591.150024 26.577072 -1023.323853
v 591.082153 -0.371185 -1023.535400
v 567.121704 -0.521423 -998.761597
v 540.426880 -0.521423 -995.230835
v 564.333984 -0.521423 -1019.837891
v 591.132324 53.578033 -1023.189026
v 591.095276 53.568039 -1023.212158
v 602.308594 53.583267 -939.235229
v 548.646301 53.566330 -932.129395
v 537.506958 53.265366 -1016.348694
v 537.523254 53.270691 -1016.370605
v 599.519409 53.581955 -960.187378
v 540.296631 53.571976 -995.257568
v 545.866272 53.571075 -953.147949
v 543.086182 53.575653 -974.166382
v 543.061890 53.539398 -974.163147
v 545.841919 53.534744 -953.144836
v 593.931396 53.579254 -1002.164429
v 596.729858 53.580734 -981.139526
v 596.730713 53.527786 -981.130737
v 593.931641 53.526474 -1002.155396
v 572.687378 -0.521423 -956.681641
v 545.992615 -0.521423 -953.150818
v 543.214539 -0.521423 -974.154297
v 569.909424 -0.521423 -977.685059
v 540.349915 -0.446320 -995.242615
v 543.138550 -0.446320 -974.158752
v 543.061890 -0.371185 -974.163147
v 540.272278 -0.371185 -995.254150
v 599.455078 -0.446320 -960.231445
v 596.675781 -0.446320 -981.244995
v 596.747620 -0.371185 -981.274109
v 599.528381 -0.371185 -960.250366
v 593.944641 26.577728 -1002.263000
v 596.739136 26.578369 -981.202515
v 554.091980 53.670166 -996.800110
v 556.846680 53.747818 -975.972900
v 570.582520 53.883560 -977.776123
v 568.227295 50.788208 -998.676758
v 570.918457 50.788208 -978.330444
v 571.011414 50.895737 -978.335693
v 573.284607 53.749847 -957.414917
v 570.591309 53.749847 -977.777527
v 545.841919 26.581650 -953.144836
v 543.061890 26.584015 -974.163147
v 586.609497 52.265320 -959.100830
v 583.870361 52.264664 -979.742188
v 554.279297 53.386398 -996.593994
v 567.996704 53.446365 -998.092773
v 570.600098 53.616226 -977.778992
v 557.005859 53.494568 -975.980042
v 586.346375 52.049210 -959.108459
v 573.500488 50.680786 -958.103149
v 570.825806 50.680786 -978.325012
v 583.625061 52.026947 -979.682922
v 572.666260 0.008469 -956.832336
v 569.908081 0.008469 -977.685364
v 543.411621 0.008469 -974.180786
v 546.169800 0.008469 -953.327759
v 546.169800 26.713150 -953.327759
v 543.411621 26.690567 -974.180786
v 543.411621 53.372803 -974.180786
v 546.169800 53.417908 -953.327759
v 593.641479 26.668304 -1002.078064
v 596.414124 26.690720 -981.115417
v 596.423950 53.372971 -981.040894
v 593.646423 53.327805 -1002.040649
v 590.868896 0.008469 -1023.040527
v 593.636597 0.008469 -1002.115173
v 596.404236 0.008469 -981.189941
v 548.927917 0.008469 -932.474609
v 575.424438 0.008469 -935.979187
v 588.672485 0.008469 -937.731445
v 585.914307 0.008469 -958.584595
v 583.156189 0.008469 -979.437622
v 599.518555 53.634735 -960.196289
v 596.729309 53.633499 -981.148560
v 540.320923 53.607895 -995.260742
v 543.110596 53.611984 -974.169434
v 599.381592 -0.521423 -960.212341
v 596.603638 -0.521423 -981.215820
v 575.465454 -0.521423 -935.678040
v 593.930542 53.632278 -1002.173401
v 545.890625 53.607239 -953.151001
v 593.815857 -0.521423 -1002.292358
v 585.921753 53.579575 -956.037109
v 585.817261 53.428452 -956.175293
v 572.977783 52.667480 -954.476990
v 566.701721 55.647949 -1001.854736
v 585.990112 55.516205 -1004.254639
v 595.330811 53.462738 -938.347290
v 593.783691 53.635880 -947.685913
v 574.210938 53.065231 -945.153809
v 573.683228 52.894958 -949.143433
v 564.372681 53.282547 -1019.536011
v 577.620789 53.282547 -1021.288269
v 578.595398 54.399384 -1012.346863
v 579.570312 55.516205 -1003.405518
v 580.388489 0.008469 -1000.362915
v 577.620789 0.008469 -1021.288269
v 564.372681 26.645554 -1019.536011
v 584.244690 0.008469 -1022.164368
v 588.687256 26.735794 -937.619873
v 588.701965 53.462738 -937.508423
v 599.162354 0.008469 -960.336853
v 601.920532 0.008469 -939.483765
v 595.296387 0.008469 -938.607544
v 595.313599 26.735794 -938.477417
v 577.620789 26.645721 -1021.288269
v 587.012390 0.008469 -1001.239014
v 589.780029 0.008469 -980.313721
v 585.117188 54.399384 -1013.209473
v 587.259521 53.445724 -946.841736
v 579.620239 55.647949 -1003.563416
v 592.383789 53.959900 -956.891846
v 592.538208 0.008469 -959.460693
v 586.642456 53.438278 -950.835938
v 599.521606 71.770615 -988.232361
v 599.515198 75.225983 -988.225586
v 596.245483 75.158615 -931.608154
v 596.251831 71.703247 -931.614990
v 542.411499 75.169312 -991.523438
v 539.141602 75.101944 -934.906616
v 539.581665 75.102859 -935.298340
v 542.803223 75.169220 -991.083679
v 599.285889 75.226028 -988.482788
v 542.668701 75.169846 -991.752930
v 543.060913 75.169754 -991.312500
v 598.845825 75.225128 -988.091064
v 539.370850 75.101898 -934.649109
v 595.987549 75.158081 -931.379578
v 595.596313 75.158173 -931.818848
v 539.811035 75.102814 -935.041077
v 595.994019 71.702713 -931.386353
v 539.377197 71.646515 -934.655884
v 595.635376 54.042679 -931.860474
v 539.850220 53.987320 -935.082764
v 599.074951 75.225067 -987.833374
v 595.852966 75.158707 -932.048828
v 539.148010 71.646576 -934.913330
v 542.417847 71.713928 -991.530212
v 542.672729 71.688385 -991.759827
v 599.294678 71.744583 -988.489624
v 539.620850 53.987350 -935.339966
v 542.842285 54.053741 -991.125305
v 543.099976 54.054260 -991.354187
v 598.884888 54.109634 -988.132751
v 595.892090 54.043198 -932.090515
v 599.114075 54.109589 -987.875244
v 596.069702 53.533813 -931.633972
v 596.285156 53.695953 -931.650574
v 596.027344 53.695419 -931.421936
v 539.393677 53.477570 -934.907227
v 539.410522 53.639236 -934.691467
v 539.181335 53.639282 -934.948975
v 542.693970 53.545273 -991.796692
v 542.451233 53.706589 -991.565796
v 599.554932 53.763336 -988.267944
v 599.340820 53.601486 -988.524780
v 541.842651 75.885925 -992.326355
v 538.473877 75.816528 -933.999023
v 596.801392 75.874496 -930.630310
v 600.170105 75.943817 -988.957886
v 596.377625 70.698990 -931.005615
v 538.957153 70.641998 -934.322266
v 538.948120 75.532120 -934.312500
v 596.368530 75.589096 -930.995850
v 541.871826 70.710678 -992.436157
v 600.171509 70.768539 -989.069092
v 599.706299 70.767593 -988.654907
v 542.286255 70.710602 -991.970947
v 600.279175 70.768509 -988.948486
v 596.911865 70.699142 -930.649048
v 596.498047 70.699249 -931.113647
v 599.813965 70.767563 -988.533936
v 538.484619 74.436707 -933.900635
v 596.784546 74.494568 -930.533325
v 596.782227 75.798370 -930.530762
v 538.482178 75.740509 -933.898071
v 600.164551 74.564194 -989.061646
v 541.864807 74.506332 -992.428711
v 541.862427 75.810150 -992.426147
v 600.162109 75.868011 -989.059082
v 596.904907 74.494812 -930.641296
v 600.272095 74.564178 -988.940735
v 600.269775 75.867981 -988.938171
v 596.902466 75.798615 -930.638733
v 538.383911 70.641068 -934.028687
v 541.751099 70.710434 -992.328735
v 542.165283 70.710342 -991.863281
v 538.849243 70.642014 -934.443237
v 541.744019 74.506088 -992.320984
v 538.376953 74.436722 -934.021301
v 538.374512 75.740524 -934.018799
v 541.741577 75.809906 -992.318420
v 542.156250 75.600449 -991.853516
v 538.840088 75.532135 -934.433472
v 599.697266 75.657684 -988.645081
v 542.277222 75.600693 -991.961182
v 596.488953 75.589340 -931.104126
v 599.804932 75.657669 -988.524170
v 538.491577 70.641037 -933.908081
v 596.791626 70.698914 -930.540771
v 338.687195 215.985565 -1386.026611
v 338.687195 219.425629 -1386.026611
v 322.660156 219.425629 -1346.468018
v 322.660156 215.985565 -1346.468018
v 298.788910 219.425629 -1402.191895
v 282.761353 219.425629 -1362.633057
v 283.169891 219.425629 -1362.806152
v 298.961670 219.425629 -1401.783569
v 338.586823 219.425629 -1386.265625
v 299.027588 219.425629 -1402.293091
v 299.200592 219.425629 -1401.884521
v 338.177795 219.425629 -1386.092651
v 282.862549 219.425629 -1362.394409
v 322.421143 219.425629 -1346.366943
v 322.248230 219.425629 -1346.775269
v 283.270813 219.425629 -1362.567383
v 322.421143 215.985565 -1346.366943
v 282.862549 215.985565 -1362.394409
v 322.248230 198.403641 -1346.775269
v 283.270813 198.403641 -1362.567383
v 338.279388 219.425629 -1385.853882
v 322.487061 219.425629 -1346.876587
v 282.761353 215.985565 -1362.633057
v 298.788910 215.985565 -1402.191895
v 299.025879 215.959534 -1402.293579
v 338.588440 215.959595 -1386.265015
v 283.169891 198.403641 -1362.806152
v 298.961670 198.403641 -1401.783569
v 299.200592 198.403641 -1401.884521
v 338.177795 198.403641 -1386.092651
v 322.487061 198.403641 -1346.876587
v 338.279388 198.403641 -1385.853882
v 322.502289 197.896835 -1346.507690
v 322.660156 198.058014 -1346.468018
v 322.421143 198.058014 -1346.366943
v 282.902252 197.896835 -1362.552124
v 282.862549 198.057953 -1362.394409
v 282.761353 198.057953 -1362.633057
v 299.017456 197.896835 -1402.297119
v 298.788910 198.057953 -1402.191895
v 338.687195 198.057953 -1386.026611
v 338.596375 197.896835 -1386.261353
vn -0.4685 -0.0000 0.8834
vn -0.8815 0.0014 -0.4723
vn 0.4685 -0.0000 -0.8834
vn 0.8834 -0.0000 0.4686
vn -0.0000 1.0000 -0.0000
vn 0.0480 -0.9948 -0.0894
vn 0.0035 -1.0000 -0.0054
vn 0.1111 -0.9921 0.0581
vn -0.0032 -0.9983 -0.0584
vn 0.8834 -0.0000 0.4685
vn -0.8834 -0.0000 -0.4685
vn 0.4083 -0.8934 0.1873
vn -0.7396 -0.5208 -0.4262
vn -0.0493 0.9944 0.0930
vn 0.4102 0.8857 0.2176
vn -0.4686 -0.0000 0.8834
vn 0.1942 -0.8472 -0.4945
vn 0.8707 -0.0000 -0.4917
vn 0.5824 0.7520 0.3089
vn 0.4666 0.0245 -0.8841
vn -0.9256 -0.0000 0.3785
vn -0.3548 0.6532 0.6689
vn 0.4513 -0.6559 -0.6050
vn -0.0423 0.9991 0.0097
vn -0.0047 0.9999 0.0089
vn -0.2198 -0.6888 0.6908
vn 0.4680 0.0002 -0.8837
vn -0.6539 0.6940 -0.3011
vn 0.6645 -0.6465 -0.3749
vn -0.1805 -0.7363 -0.6521
vn 0.0614 -0.6460 0.7608
vn -0.6483 -0.7155 0.2604
vn 0.3319 -0.7058 -0.6258
vn -0.1115 0.9921 -0.0578
vn 0.0795 -0.0000 0.9968
vn 0.4734 -0.8443 0.2511
vn 0.7688 -0.4772 0.4257
vn -0.1447 -0.8800 0.4524
vn -0.3315 -0.7068 0.6250
vn -0.6203 -0.7128 -0.3273
vn -0.4739 -0.8440 -0.2513
vn 0.1195 0.0016 -0.9928
vn -0.0000 -1.0000 -0.0000
vn 0.1351 0.6368 -0.7591
vn 0.8613 0.4905 -0.1325
vn 0.1209 0.4218 0.8986
vn -0.8480 -0.0731 0.5249
vn 0.4678 -0.0079 -0.8838
vn -0.3934 0.5660 0.7245
vn -0.3434 0.9220 -0.1787
vn -0.3890 0.5570 0.7337
vn 0.4678 -0.0113 -0.8838
vn -0.3316 -0.7065 0.6252
vn 0.3312 -0.7074 -0.6245
vn 0.4680 0.0008 -0.8837
vn -0.0079 0.9999 0.0063
vn -0.3549 0.6530 0.6691
vn 0.4675 0.0671 -0.8814
vn 0.0090 -1.0000 -0.0026
vn 0.0496 -0.9945 -0.0924
vn 0.0505 -0.9945 -0.0919
vn 0.0513 -0.9943 -0.0934
vn 0.0504 -0.9943 -0.0939
vn 0.0067 -1.0000 -0.0043
vn 0.0214 -0.9983 0.0541
vn 0.0666 -0.9964 0.0519
vn 0.4675 0.0667 -0.8815
vn 0.4675 0.0659 -0.8815
vn 0.4675 0.0663 -0.8815
vn -0.3545 0.6540 0.6684
vn -0.3547 0.6535 0.6687
vn -0.3545 0.6538 0.6685
vn -0.0655 0.9975 -0.0268
vn -0.0195 0.9984 -0.0539
vn -0.0050 1.0000 0.0054
vn 0.4684 0.0008 -0.8835
vn 0.4684 0.0011 -0.8835
vn 0.4680 0.0012 -0.8837
vn 0.3312 -0.7074 -0.6244
vn 0.3318 -0.7060 -0.6256
vn 0.3319 -0.7059 -0.6258
vn -0.3318 -0.7060 0.6257
vn -0.3310 -0.7078 0.6240
vn -0.3311 -0.7077 0.6242
vn 0.4678 -0.0156 -0.8837
vn 0.4678 -0.0115 -0.8838
vn 0.4678 -0.0118 -0.8838
vn -0.3882 0.5598 0.7321
vn -0.3880 0.5603 0.7318
vn -0.3868 0.5640 0.7296
vn -0.3882 0.5602 0.7317
vn -0.3869 0.5644 0.7292
vn -0.3560 0.6713 0.6500
vn 0.4678 -0.0074 -0.8838
vn -0.4760 -0.8425 -0.2524
vn -0.4718 -0.8454 -0.2502
vn -0.4719 -0.8454 -0.2503
vn -0.3316 -0.7064 0.6253
vn -0.3312 -0.7074 0.6244
vn 0.4733 -0.8444 0.2510
vn 0.3315 -0.7067 -0.6250
vn 0.3317 -0.7063 -0.6254
vn 0.3311 -0.7076 -0.6243
vn -0.6483 -0.7155 0.2603
vn -0.6499 -0.7102 0.2706
vn 0.0617 -0.6461 0.7607
vn 0.0615 -0.6459 0.7609
vn 0.0597 -0.6464 0.7606
vn -0.1856 -0.7384 -0.6483
vn -0.1808 -0.7353 -0.6532
vn -0.1852 -0.7347 -0.6526
vn 0.6633 -0.6478 -0.3746
vn 0.6636 -0.6477 -0.3743
vn 0.6636 -0.6474 -0.3748
vn -0.6395 0.7110 -0.2924
vn -0.6397 0.7109 -0.2922
vn -0.6547 0.6933 -0.3013
vn 0.4684 0.0002 -0.8835
vn 0.4684 0.0005 -0.8835
vn 0.4680 0.0005 -0.8837
vn -0.0046 1.0000 0.0088
vn -0.0045 1.0000 0.0088
vn -0.0046 0.9999 0.0090
vn -0.3547 0.6534 0.6687
vn -0.3548 0.6530 0.6691
vn 0.4673 0.0654 -0.8817
vn 0.4495 0.2825 -0.8474
vn 0.4411 0.1979 -0.8754
vn 0.5823 0.7521 0.3088
vn 0.5821 0.7523 0.3087
vn 0.5840 0.7503 0.3097
vn -0.8834 -0.0000 -0.4686
vn -0.0187 -0.9995 -0.0263
vn 0.0799 -0.9964 0.0266
vn 0.0973 -0.9952 -0.0048
vn 0.1257 -0.9903 0.0589
vn 0.1089 -0.9924 0.0577
vn 0.0045 -1.0000 -0.0050
vn 0.0052 -1.0000 -0.0064
vn 0.0043 -1.0000 -0.0069
vn 0.0490 -0.9948 -0.0889
vn 0.0498 -0.9947 -0.0904
vn 0.0488 -0.9947 -0.0909
vn -0.8815 0.0035 -0.4723
vn -0.8828 0.0035 -0.4698
vn -0.8828 0.0014 -0.4698
vn -0.8828 0.0046 -0.4698
vn -0.8815 0.0046 -0.4723
vn 0.8835 -0.0000 0.4685
vn 0.1089 -0.9924 0.0578
vn 0.0260 -0.9997 -0.0023
vn 0.5820 0.7523 0.3086
vn -0.6317 0.7200 -0.2873
vn -0.6319 0.7196 -0.2878
vn 0.5821 0.7522 0.3087
vn 0.0424 -0.9985 -0.0341
vn -0.6265 0.7257 -0.2845
vn -0.6264 0.7259 -0.2841
vn -0.8814 0.0053 -0.4723
vn -0.8828 0.0053 -0.4698
vn -0.0009 -0.9999 -0.0168
vn 0.5835 0.7508 0.3096
vn 0.5818 0.7525 0.3087
vn 0.0150 -0.9987 -0.0487
vn 0.0084 -0.9993 -0.0354
vn 0.0356 -0.9991 -0.0209
vn 0.0901 -0.9959 0.0083
vn -0.0096 -0.9989 -0.0450
vn -0.6364 0.6267 0.4498
vn -0.1756 0.9842 -0.0244
vn 0.4215 0.0527 -0.9053
vn 0.1756 -0.9842 0.0245
vn 0.1754 -0.9842 0.0244
vn -0.4215 -0.0527 0.9053
vn 0.8896 0.1693 0.4241
vn 0.1755 -0.9842 0.0244
vn -0.8896 -0.1693 -0.4241
vn 0.8896 0.1692 0.4241
vn 0.1756 -0.9842 0.0244
vn 0.1908 0.5818 0.7906
vn -0.8833 0.3780 0.2774
vn -0.3730 0.4419 -0.8158
vn 0.7002 0.6463 -0.3033
vn -0.4223 0.6583 0.6231
vn -0.7529 0.5768 -0.3170
vn 0.1739 0.7332 -0.6574
vn 0.5048 0.8157 0.2826
vn -0.3313 -0.0824 -0.9399
vn 0.9269 0.1569 -0.3409
vn 0.3301 0.0823 0.9403
vn -0.9271 -0.1570 0.3403
vn 0.1757 -0.9841 0.0245
vn 0.1753 -0.9842 0.0238
vn 0.1754 -0.9842 0.0246
vn -0.9270 -0.1569 0.3406
vn -0.3300 -0.0822 -0.9404
vn 0.9271 0.1569 -0.3403
vn 0.3310 0.0824 0.9400
vn 0.1755 -0.9842 0.0246
vn -0.9272 -0.1570 0.3400
vn 0.3302 0.0822 0.9403
vn -0.3312 -0.0824 -0.9400
vn -0.8896 -0.1692 -0.4241
vn -0.9914 -0.0000 0.1311
vn -0.1269 0.0014 -0.9919
vn 0.9914 -0.0000 -0.1311
vn 0.1311 -0.0000 0.9914
vn 0.1007 -0.9948 -0.0128
vn 0.0065 -1.0000 -0.0003
vn 0.0172 -0.9921 0.1242
vn 0.0457 -0.9983 -0.0365
vn -0.1311 -0.0000 -0.9914
vn 0.0844 -0.8934 0.4412
vn -0.0820 -0.5215 -0.8493
vn -0.1044 0.9944 0.0138
vn 0.0609 0.8857 0.4602
vn 0.5157 -0.8470 -0.1288
vn 0.9056 -0.0000 0.4242
vn 0.0865 0.7517 0.6538
vn 0.9908 0.0239 -0.1330
vn -0.8429 -0.0000 -0.5381
vn -0.7504 0.6535 0.0992
vn 0.7547 -0.6559 0.0164
vn -0.0324 0.9991 -0.0288
vn -0.0100 0.9999 0.0014
vn -0.6902 -0.6888 0.2219
vn 0.9913 0.0002 -0.1317
vn -0.1343 0.6940 -0.7073
vn 0.6891 -0.6481 0.3241
vn 0.4214 -0.7377 -0.5275
vn -0.5859 -0.6451 0.4904
vn -0.5931 -0.7114 -0.3770
vn 0.7013 -0.7068 -0.0927
vn -0.0176 0.9921 -0.1243
vn -0.7659 -0.0000 0.6430
vn 0.0703 -0.8444 0.5310
vn 0.0995 -0.4775 0.8730
vn -0.4525 -0.8799 0.1447
vn -0.6999 -0.7082 0.0925
vn -0.0935 -0.7127 -0.6952
vn -0.0703 -0.8444 -0.5310
vn 0.8773 0.0016 -0.4799
vn 0.6927 0.6420 -0.3286
vn -0.6531 0.4310 0.6227
vn -0.9187 -0.0757 -0.3875
vn 0.9912 -0.0117 -0.1319
vn -0.8149 0.5709 0.0995
vn -0.0537 0.9225 -0.3824
vn -0.8214 0.5599 0.1089
vn -0.6998 -0.7083 0.0925
vn 0.9913 0.0008 -0.1318
vn -0.0097 0.9999 -0.0028
vn -0.7503 0.6536 0.0993
vn 0.9892 0.0663 -0.1308
vn -0.1043 0.9944 0.0138
vn 0.0074 -1.0000 0.0058
vn 0.1041 -0.9945 -0.0132
vn 0.1042 -0.9945 -0.0122
vn 0.1058 -0.9943 -0.0124
vn 0.1057 -0.9943 -0.0134
vn 0.0074 -1.0000 0.0030
vn -0.0317 -0.9983 0.0488
vn -0.0036 -0.9964 0.0843
vn 0.9892 0.0662 -0.1308
vn 0.9892 0.0664 -0.1308
vn -0.7502 0.6537 0.0992
vn -0.7512 0.6526 0.0993
vn -0.7512 0.6526 0.0994
vn -0.0162 0.9975 -0.0689
vn 0.0326 0.9984 -0.0471
vn -0.0073 1.0000 -0.0010
vn 0.9913 0.0008 -0.1313
vn 0.9913 0.0012 -0.1313
vn 0.9913 0.0012 -0.1317
vn 0.7011 -0.7070 -0.0927
vn 0.6997 -0.7084 -0.0926
vn -0.6996 -0.7085 0.0926
vn -0.7026 -0.7055 0.0930
vn -0.7026 -0.7055 0.0929
vn 0.9912 -0.0120 -0.1318
vn 0.9912 -0.0087 -0.1320
vn 0.9912 -0.0089 -0.1321
vn -0.8212 0.5602 0.1088
vn -0.8213 0.5601 0.1087
vn -0.8212 0.5603 0.1087
vn -0.8198 0.5623 0.1083
vn -0.8204 0.5614 0.1084
vn -0.7350 0.6724 0.0872
vn 0.9912 -0.0087 -0.1319
vn 0.9912 -0.0060 -0.1320
vn -0.0702 -0.8444 -0.5310
vn -0.0703 -0.8442 -0.5314
vn -0.7025 -0.7056 0.0929
vn 0.0702 -0.8445 0.5309
vn 0.0702 -0.8444 0.5311
vn 0.7012 -0.7069 -0.0928
vn 0.6998 -0.7083 -0.0925
vn 0.6996 -0.7085 -0.0926
vn -0.5930 -0.7115 -0.3770
vn -0.5927 -0.7118 -0.3767
vn -0.5901 -0.7131 -0.3785
vn -0.5832 -0.6470 0.4912
vn -0.5862 -0.6449 0.4903
vn -0.5864 -0.6448 0.4903
vn 0.4235 -0.7365 -0.5275
vn 0.4211 -0.7376 -0.5278
vn 0.4220 -0.7371 -0.5278
vn 0.6893 -0.6482 0.3236
vn 0.6890 -0.6486 0.3235
vn 0.6907 -0.6471 0.3227
vn -0.1330 0.7111 -0.6904
vn -0.1333 0.7110 -0.6904
vn -0.1346 0.6935 -0.7078
vn 0.9913 0.0002 -0.1313
vn 0.9913 0.0005 -0.1313
vn 0.9913 0.0005 -0.1318
vn -0.0098 1.0000 0.0014
vn -0.0098 1.0000 0.0015
vn -0.0099 0.9999 0.0015
vn -0.7503 0.6536 0.0992
vn -0.7511 0.6527 0.0993
vn 0.9892 0.0650 -0.1311
vn 0.9507 0.2836 -0.1257
vn 0.9686 0.1992 -0.1489
vn 0.0865 0.7518 0.6537
vn 0.0866 0.7510 0.6546
vn 0.0866 0.7512 0.6544
vn 0.0106 -0.9995 -0.0305
vn 0.0247 -0.9964 0.0805
vn 0.0604 -0.9952 0.0765
vn 0.0250 -0.9903 0.1366
vn 0.0162 -0.9924 0.1222
vn 0.0066 -1.0000 0.0007
vn 0.0082 -1.0000 0.0005
vn 0.0081 -1.0000 -0.0005
vn 0.1008 -0.9948 -0.0117
vn 0.1025 -0.9947 -0.0119
vn 0.1024 -0.9947 -0.0130
vn -0.1269 0.0035 -0.9919
vn -0.1297 0.0035 -0.9915
vn -0.1297 0.0014 -0.9915
vn -0.1297 0.0046 -0.9915
vn -0.1269 0.0046 -0.9919
vn 0.0170 -0.9997 0.0198
vn 0.0866 0.7511 0.6544
vn -0.1326 0.7201 -0.6810
vn -0.1323 0.7198 -0.6815
vn 0.0865 0.7516 0.6539
vn 0.0524 -0.9985 0.0147
vn -0.1319 0.7255 -0.6754
vn -0.1322 0.7261 -0.6748
vn -0.1269 0.0053 -0.9919
vn -0.1297 0.0053 -0.9915
vn 0.0131 -0.9999 -0.0105
vn 0.0865 0.7515 0.6540
vn 0.0483 -0.9987 -0.0161
vn 0.0337 -0.9993 -0.0137
vn 0.0377 -0.9991 0.0168
vn 0.0455 -0.9959 0.0782
vn 0.0311 -0.9989 -0.0340
vn 0.6065 0.4866 0.6288
vn -0.7260 0.6380 -0.2567
vn 0.9983 0.0017 0.0577
vn -0.0010 1.0000 0.0011
vn -0.0011 1.0000 0.0011
vn -0.0577 -0.0021 0.9983
vn 0.0577 0.0021 -0.9983
vn -0.9983 -0.0017 -0.0577
vn -0.0576 -0.0021 0.9983
vn 0.5171 -0.6278 0.5818
vn -0.5808 -0.6290 0.5167
vn -0.0339 -0.7983 0.6013
vn 0.6634 -0.0002 0.7482
vn -0.7469 -0.0027 0.6649
vn -0.5882 -0.8080 -0.0350
vn -0.6791 0.0004 -0.7341
vn 0.7584 0.0029 -0.6517
vn 0.5899 -0.8068 0.0330
vn -0.6674 0.0002 -0.7447
vn -0.7471 -0.0027 0.6647
vn 0.6641 -0.0002 0.7476
vn 0.7464 0.0027 -0.6655
vn 0.0011 -1.0000 -0.0011
vn 0.7481 0.0029 -0.6636
vn -0.6675 0.0005 -0.7446
vn -0.7470 -0.0027 0.6648
vn 0.6634 -0.0003 0.7482
vn 0.0010 -1.0000 -0.0011
vn 0.9983 0.0018 0.0577
vn 0.5195 0.6272 0.5803
vn -0.5818 0.6258 0.5195
vn -0.5185 0.6284 -0.5800
vn 0.5808 0.6287 -0.5171
vn -0.0356 0.7972 0.6027
vn -0.6029 0.7971 -0.0339
vn 0.0339 0.7988 -0.6006
vn 0.6014 0.7981 0.0357
vn -0.6655 0.0002 -0.7464
vn 0.7467 0.0027 -0.6652
vn 0.6681 -0.0002 0.7440
vn -0.7461 -0.0027 0.6659
vn 0.0010 -1.0000 -0.0012
vn -0.6680 0.0002 -0.7442
vn 0.7461 0.0027 -0.6658
vn 0.6649 -0.0003 0.7469
vn -0.7461 -0.0027 0.6658
vn 0.6684 -0.0003 0.7438
vn 0.7471 0.0027 -0.6647
vn -0.6650 0.0003 -0.7468
vn 0.9268 -0.0000 0.3755
vn -0.3755 -0.0000 0.9268
vn 0.3755 -0.0000 -0.9268
vn -0.9268 -0.0000 -0.3755
vn 0.3326 -0.5197 0.7870
vn -0.7863 -0.5202 0.3333
vn -0.2656 -0.7069 0.6556
vn 0.3893 -0.0000 0.9211
vn -0.9207 -0.0000 0.3903
vn -0.6443 -0.7189 -0.2611
vn -0.4062 0.0002 -0.9138
vn 0.9282 0.0002 -0.3721
vn 0.6441 -0.7191 0.2608
vn -0.3903 -0.0000 -0.9207
vn -0.9202 -0.0000 0.3914
vn 0.9211 -0.0000 -0.3894
vn 0.9229 0.0002 -0.3850
vn -0.3923 0.0002 -0.9198
vt 0.182801 0.555457
vt 0.225573 0.555529
vt 0.225878 0.640923
vt 0.183029 0.640779
vt 0.139877 0.726845
vt 0.225271 0.726845
vt 0.225271 0.812238
vt 0.139877 0.812239
vt 0.444388 0.553043
vt 0.401691 0.552971
vt 0.401978 0.467866
vt 0.444675 0.467866
vt 0.658400 0.617305
vt 0.658400 0.638653
vt 0.573295 0.638653
vt 0.573295 0.617305
vt 0.489162 0.684558
vt 0.489162 0.641861
vt 0.574555 0.641861
vt 0.574555 0.684558
vt 0.453785 0.846597
vt 0.446617 0.879873
vt 0.403769 0.879873
vt 0.410936 0.846525
vt 0.355505 0.856514
vt 0.355560 0.813047
vt 0.398257 0.813102
vt 0.398202 0.856541
vt 0.139876 0.962591
vt 0.139876 0.943483
vt 0.222636 0.943483
vt 0.223953 0.962591
vt 0.250291 0.970553
vt 0.250819 0.980314
vt 0.230129 0.980386
vt 0.229436 0.970608
vt 0.875167 0.867064
vt 0.875167 0.781673
vt 0.960596 0.781673
vt 0.960596 0.867065
vt 0.873833 0.684999
vt 0.872880 0.770075
vt 0.787768 0.769122
vt 0.788720 0.684046
vt 0.745413 0.672004
vt 0.684204 0.672004
vt 0.622994 0.672004
vt 0.622774 0.670926
vt 0.622554 0.669848
vt 0.684486 0.669849
vt 0.746418 0.669849
vt 0.746495 0.669959
vt 0.746572 0.670069
vt 0.745993 0.671036
vt 0.680877 0.686990
vt 0.721617 0.687273
vt 0.762358 0.687556
vt 0.762510 0.688220
vt 0.762662 0.688885
vt 0.724348 0.689320
vt 0.686034 0.689755
vt 0.684241 0.689080
vt 0.682447 0.688405
vt 0.681662 0.687697
vt 0.453037 0.912612
vt 0.410883 0.912609
vt 0.403769 0.880402
vt 0.446008 0.880407
vt 0.787941 0.779288
vt 0.788104 0.778966
vt 0.788268 0.778644
vt 0.874599 0.778654
vt 0.960930 0.778665
vt 0.961166 0.778888
vt 0.961401 0.779112
vt 0.960998 0.780392
vt 0.789738 0.781673
vt 0.788839 0.780480
vt 0.653402 0.863670
vt 0.653395 0.948651
vt 0.610934 0.948663
vt 0.610941 0.863674
vt 0.687789 0.679418
vt 0.656403 0.679418
vt 0.640710 0.679418
vt 0.625016 0.679418
vt 0.625700 0.678355
vt 0.626383 0.677293
vt 0.657081 0.677414
vt 0.687779 0.677534
vt 0.687895 0.677669
vt 0.688012 0.677803
vt 0.687901 0.678610
vt 0.403216 0.642551
vt 0.403228 0.727429
vt 0.403240 0.812307
vt 0.401757 0.812319
vt 0.400274 0.812332
vt 0.400261 0.727342
vt 0.400249 0.642353
vt 0.400499 0.642107
vt 0.400750 0.641861
vt 0.401983 0.642206
vt 0.623635 0.657927
vt 0.603812 0.657928
vt 0.602545 0.656524
vt 0.622592 0.656524
vt 0.531332 0.466313
vt 0.508027 0.466316
vt 0.507008 0.465497
vt 0.530640 0.465497
vt 0.607972 0.948356
vt 0.607979 0.863500
vt 0.607986 0.778644
vt 0.609466 0.778664
vt 0.610947 0.778685
vt 0.610700 0.948905
vt 0.610465 0.949147
vt 0.609219 0.948751
vt 0.722303 0.662420
vt 0.760784 0.662418
vt 0.761484 0.663765
vt 0.722782 0.663765
vt 0.686892 0.685141
vt 0.656229 0.685129
vt 0.625566 0.685118
vt 0.625291 0.684240
vt 0.625016 0.683363
vt 0.625140 0.683296
vt 0.625265 0.683229
vt 0.655474 0.683229
vt 0.685683 0.683229
vt 0.686287 0.684185
vt 0.398861 0.940086
vt 0.398555 0.940414
vt 0.398249 0.940742
vt 0.313969 0.940742
vt 0.229689 0.940742
vt 0.228524 0.939452
vt 0.227359 0.938161
vt 0.228978 0.919335
vt 0.230597 0.900509
vt 0.251249 0.900850
vt 0.271901 0.901190
vt 0.313204 0.901871
vt 0.395810 0.903234
vt 0.397336 0.921660
vt 0.182130 0.859005
vt 0.224620 0.859002
vt 0.224855 0.902277
vt 0.182262 0.902277
vt 0.626334 0.674192
vt 0.656996 0.674290
vt 0.687658 0.674388
vt 0.687043 0.675417
vt 0.686429 0.676446
vt 0.655784 0.676446
vt 0.640462 0.676446
vt 0.625139 0.676446
vt 0.625078 0.676333
vt 0.625016 0.676219
vt 0.625675 0.675205
vt 0.357844 0.727350
vt 0.357902 0.642363
vt 0.453662 0.466422
vt 0.505628 0.466417
vt 0.506480 0.467338
vt 0.453914 0.467338
vt 0.225799 0.643245
vt 0.225970 0.642952
vt 0.226138 0.643245
vt 0.225799 0.644846
vt 0.226057 0.645066
vt 0.225799 0.645194
vt 0.226386 0.642130
vt 0.226093 0.641960
vt 0.226386 0.641791
vt 0.226478 0.643773
vt 0.226266 0.644045
vt 0.226138 0.643773
vt 0.228827 0.596767
vt 0.228826 0.638756
vt 0.227359 0.639105
vt 0.227361 0.597032
vt 0.054483 0.905622
vt 0.054720 0.904214
vt 0.054957 0.902806
vt 0.139095 0.902806
vt 0.223233 0.902806
vt 0.224395 0.904098
vt 0.225558 0.905391
vt 0.224720 0.914781
vt 0.223882 0.924172
vt 0.222207 0.942954
vt 0.139697 0.941340
vt 0.098441 0.940533
vt 0.077814 0.940130
vt 0.057186 0.939726
vt 0.055835 0.922674
vt 0.781417 0.948984
vt 0.781098 0.948800
vt 0.780779 0.948617
vt 0.780785 0.863657
vt 0.780792 0.778698
vt 0.782266 0.778686
vt 0.783740 0.778674
vt 0.783740 0.863153
vt 0.783740 0.947632
vt 0.782579 0.948308
vt 0.314110 0.469330
vt 0.230281 0.469330
vt 0.230269 0.467866
vt 0.314098 0.467866
vt 0.680006 0.689824
vt 0.637379 0.690307
vt 0.594751 0.690791
vt 0.594958 0.690049
vt 0.595166 0.689306
vt 0.595320 0.688569
vt 0.595473 0.687832
vt 0.637760 0.688090
vt 0.680046 0.688348
vt 0.680026 0.689086
vt 0.625016 0.680264
vt 0.640472 0.680355
vt 0.655927 0.680445
vt 0.686838 0.680626
vt 0.687364 0.681393
vt 0.687889 0.682160
vt 0.687830 0.682271
vt 0.687771 0.682383
vt 0.657073 0.682383
vt 0.626375 0.682383
vt 0.625696 0.681323
vt 0.399413 0.512725
vt 0.399413 0.470808
vt 0.400875 0.470824
vt 0.400875 0.512754
vt 0.622994 0.666581
vt 0.690999 0.666581
vt 0.759004 0.666581
vt 0.759456 0.667670
vt 0.759908 0.668760
vt 0.759827 0.668881
vt 0.759745 0.669002
vt 0.691150 0.668985
vt 0.622554 0.668968
vt 0.622774 0.667775
vt 0.314134 0.639869
vt 0.397962 0.639869
vt 0.397974 0.641332
vt 0.314146 0.641332
vt 0.227359 0.812307
vt 0.227622 0.727664
vt 0.227885 0.643021
vt 0.229125 0.642535
vt 0.230365 0.642048
vt 0.230613 0.642221
vt 0.230861 0.642393
vt 0.230593 0.727375
vt 0.230325 0.812356
vt 0.228842 0.812331
vt 0.314122 0.596503
vt 0.397950 0.596503
vt 0.397950 0.638406
vt 0.314122 0.638406
vt 0.226406 0.470425
vt 0.226522 0.470301
vt 0.226639 0.470178
vt 0.226730 0.470157
vt 0.226822 0.470136
vt 0.226822 0.470239
vt 0.226822 0.470342
vt 0.226763 0.470405
vt 0.226705 0.470467
vt 0.226700 0.470379
vt 0.226696 0.470291
vt 0.226551 0.470358
vt 0.226580 0.470996
vt 0.226622 0.471160
vt 0.226664 0.471325
vt 0.226558 0.471235
vt 0.226452 0.471145
vt 0.226494 0.471251
vt 0.226406 0.471177
vt 0.226411 0.471102
vt 0.226415 0.471028
vt 0.226497 0.471012
vt 0.401584 0.464557
vt 0.401690 0.464648
vt 0.401796 0.464739
vt 0.401712 0.464739
vt 0.401628 0.464739
vt 0.401589 0.464676
vt 0.401551 0.464612
vt 0.401449 0.464667
vt 0.401348 0.464721
vt 0.401401 0.464663
vt 0.401455 0.464605
vt 0.401519 0.464581
vt 0.226562 0.471854
vt 0.226649 0.471889
vt 0.226735 0.471925
vt 0.226739 0.472005
vt 0.226742 0.472086
vt 0.226670 0.471996
vt 0.544358 0.946285
vt 0.586424 0.946285
vt 0.586579 0.947753
vt 0.544513 0.947753
vt 0.097214 0.814264
vt 0.054826 0.814269
vt 0.054813 0.812790
vt 0.097204 0.812784
vt 0.959899 0.773310
vt 0.959744 0.773643
vt 0.959590 0.773975
vt 0.874719 0.774514
vt 0.789849 0.775052
vt 0.788700 0.773573
vt 0.787551 0.772094
vt 0.787659 0.770608
vt 0.957993 0.771028
vt 0.958946 0.772169
vt 0.181992 0.814253
vt 0.139603 0.814258
vt 0.139594 0.812779
vt 0.181985 0.812773
vt 0.460224 0.946285
vt 0.502291 0.946285
vt 0.502448 0.947753
vt 0.460382 0.947753
vt 0.314122 0.512696
vt 0.397950 0.512696
vt 0.397950 0.554599
vt 0.314122 0.554599
vt 0.399413 0.596559
vt 0.399413 0.554642
vt 0.400875 0.554685
vt 0.400875 0.596615
vt 0.228830 0.512791
vt 0.228828 0.554779
vt 0.227364 0.554959
vt 0.227366 0.512886
vt 0.273010 0.727366
vt 0.273208 0.642383
vt 0.315555 0.642373
vt 0.315427 0.727358
vt 0.097150 0.859010
vt 0.139640 0.859008
vt 0.139669 0.902277
vt 0.097076 0.902277
vt 0.645340 0.662424
vt 0.683821 0.662422
vt 0.684080 0.663765
vt 0.645378 0.663765
vt 0.577942 0.466307
vt 0.554637 0.466310
vt 0.554272 0.465497
vt 0.577904 0.465497
vt 0.738324 0.863662
vt 0.738317 0.948628
vt 0.695856 0.948640
vt 0.695863 0.863666
vt 0.537344 0.912617
vt 0.495190 0.912615
vt 0.488246 0.880412
vt 0.530485 0.880418
vt 0.270111 0.856459
vt 0.270167 0.812939
vt 0.312864 0.812993
vt 0.312808 0.856487
vt 0.539482 0.846741
vt 0.532315 0.879873
vt 0.489466 0.879873
vt 0.496634 0.846669
vt 0.489162 0.769951
vt 0.489162 0.727254
vt 0.574555 0.727254
vt 0.574555 0.769951
vt 0.529781 0.553187
vt 0.487085 0.553115
vt 0.487372 0.467866
vt 0.530069 0.467866
vt 0.097255 0.555313
vt 0.140028 0.555385
vt 0.140180 0.640635
vt 0.097332 0.640491
vt 0.054483 0.555241
vt 0.054483 0.640347
vt 0.054483 0.470136
vt 0.097179 0.470136
vt 0.139876 0.470136
vt 0.572478 0.553259
vt 0.572766 0.467866
vt 0.572190 0.638652
vt 0.529493 0.638508
vt 0.486797 0.638364
vt 0.489162 0.812648
vt 0.574555 0.812648
vt 0.446465 0.812648
vt 0.446465 0.769951
vt 0.446465 0.727254
vt 0.546650 0.813608
vt 0.503801 0.813464
vt 0.589498 0.813752
vt 0.582331 0.846813
vt 0.575163 0.879873
vt 0.270056 0.899980
vt 0.312753 0.899980
vt 0.227359 0.899980
vt 0.227415 0.856432
vt 0.227470 0.812884
vt 0.579497 0.912620
vt 0.572724 0.880423
vt 0.586270 0.944817
vt 0.544202 0.944817
vt 0.502134 0.944817
vt 0.738330 0.778695
vt 0.695869 0.778692
vt 0.601247 0.466304
vt 0.601535 0.465497
vt 0.600959 0.467111
vt 0.577981 0.467117
vt 0.555002 0.467124
vt 0.606859 0.662426
vt 0.606677 0.663765
vt 0.607042 0.661087
vt 0.645302 0.661083
vt 0.683563 0.661079
vt 0.054660 0.859013
vt 0.054483 0.902277
vt 0.054838 0.815749
vt 0.097225 0.815743
vt 0.139612 0.815738
vt 0.272812 0.812350
vt 0.315299 0.812344
vt 0.228831 0.470803
vt 0.227368 0.470813
vt 0.230293 0.470793
vt 0.230293 0.512696
vt 0.230293 0.554599
vt 0.399413 0.638476
vt 0.400875 0.638546
vt 0.314122 0.470793
vt 0.397950 0.470793
vt 0.418157 0.946285
vt 0.418317 0.947753
vt 0.417998 0.944817
vt 0.460066 0.944817
vt 0.224381 0.814247
vt 0.224376 0.812768
vt 0.224385 0.815727
vt 0.181998 0.815732
vt 0.230293 0.596503
vt 0.230293 0.638406
vt 0.230306 0.639869
vt 0.230318 0.641332
vt 0.397938 0.469330
vt 0.397926 0.467866
vt 0.225927 0.644045
vt 0.225799 0.643773
vt 0.226055 0.644317
vt 0.226093 0.641620
vt 0.226386 0.641452
vt 0.225799 0.641789
vt 0.226057 0.645415
vt 0.225799 0.645543
vt 0.226315 0.645287
vt 0.226309 0.642952
vt 0.226478 0.643245
vt 0.226141 0.642659
vt 0.427679 0.466424
vt 0.427631 0.467338
vt 0.427726 0.465510
vt 0.453410 0.465506
vt 0.504777 0.465497
vt 0.357786 0.812338
vt 0.721823 0.661075
vt 0.760084 0.661071
vt 0.532024 0.467130
vt 0.509045 0.467136
vt 0.762389 0.657914
vt 0.683101 0.657921
vt 0.682731 0.656524
vt 0.762916 0.656524
vt 0.761862 0.659305
vt 0.683471 0.659319
vt 0.624677 0.659330
vt 0.605080 0.659333
vt 0.653408 0.778688
vt 0.874786 0.599923
vt 0.789673 0.598970
vt 0.959899 0.600877
vt 0.958946 0.685952
vt 0.875167 0.952456
vt 0.960596 0.952456
vt 0.789738 0.952456
vt 0.789738 0.867064
vt 0.248707 0.941272
vt 0.249763 0.960793
vt 0.228744 0.960829
vt 0.227359 0.941272
vt 0.398147 0.941271
vt 0.396898 0.960539
vt 0.312821 0.960684
vt 0.312753 0.941272
vt 0.396273 0.970173
vt 0.395649 0.979807
vt 0.312889 0.980096
vt 0.312855 0.970390
vt 0.139876 0.981699
vt 0.225269 0.981699
vt 0.097179 0.981699
vt 0.097838 0.962591
vt 0.098496 0.943483
vt 0.355450 0.899980
vt 0.398147 0.899980
vt 0.460952 0.813320
vt 0.418104 0.813177
vt 0.446465 0.684558
vt 0.446465 0.641861
vt 0.658400 0.467866
vt 0.658400 0.553260
vt 0.573295 0.553260
vt 0.573295 0.467866
vt 0.743505 0.467866
vt 0.743505 0.553260
vt 0.743505 0.617305
vt 0.743505 0.638653
vt 0.444101 0.638220
vt 0.401404 0.638076
vt 0.097180 0.726845
vt 0.097180 0.812239
vt 0.097181 0.641452
vt 0.139877 0.641452
vt 0.225271 0.641452
vt 0.182573 0.470136
vt 0.225269 0.470136
vt 0.075832 0.641452
vt 0.075832 0.726845
vt 0.075831 0.812239
vt 0.743505 0.595956
vt 0.658400 0.595956
vt 0.425117 0.684558
vt 0.425117 0.641861
vt 0.425117 0.727254
vt 0.076819 0.962591
vt 0.077806 0.943483
vt 0.075831 0.981699
vt 0.270782 0.960757
vt 0.270056 0.941272
vt 0.644275 0.659326
vt 0.643457 0.657925
vt 0.414885 0.465513
vt 0.414687 0.466425
vt 0.414489 0.467338
vt 0.425117 0.769951
vt 0.425117 0.812648
vt 0.642638 0.656524
vt 0.271509 0.980241
vt 0.271146 0.970499
vt 0.573295 0.595956
vt 0.403769 0.812648
vt 0.403769 0.769951
vt 0.403769 0.727254
vt 0.401695 0.466426
vt 0.401348 0.467338
vt 0.402043 0.465515
vt 0.054483 0.981699
vt 0.055799 0.962591
vt 0.057116 0.943482
vt 0.403769 0.684558
vt 0.403769 0.641861
vt 0.054483 0.726845
vt 0.054483 0.812239
vt 0.054484 0.641452
vt 0.226406 0.472086
vt 0.226484 0.471970
vt 0.226574 0.471975
vt 0.226551 0.472043
vt 0.226478 0.472064
vt 0.344695 0.096564
vt 0.361469 0.182582
vt 0.084021 0.181260
vt 0.067247 0.095241
vt 0.599841 0.249038
vt 0.384342 0.249090
vt 0.408177 0.223165
vt 0.572828 0.225485
vt 0.386109 0.028846
vt 0.587491 0.035171
vt 0.584489 0.038169
vt 0.389239 0.032142
vt 0.588193 0.035857
vt 0.604157 0.251590
vt 0.600605 0.248238
vt 0.585174 0.038882
vt 0.364380 0.194046
vt 0.081498 0.193115
vt 0.083971 0.182541
vt 0.361683 0.183773
vt 0.064337 0.083777
vt 0.347218 0.084708
vt 0.344745 0.095282
vt 0.067034 0.094050
vt 0.080206 0.182278
vt 0.063340 0.095543
vt 0.065901 0.095045
vt 0.082767 0.181780
vt 0.380088 0.251621
vt 0.385329 0.029594
vt 0.388506 0.032878
vt 0.383581 0.248307
vt 0.348510 0.095545
vt 0.365376 0.182280
vt 0.362815 0.182779
vt 0.345949 0.096043
vt 0.414070 0.054805
vt 0.407486 0.222513
vt 0.562102 0.060908
vt 0.414650 0.054083
vt 0.573568 0.224830
vt 0.562622 0.061630
vt 0.348156 0.084852
vt 0.063368 0.083940
vt 0.061196 0.056626
vt 0.062075 0.056557
vt 0.080561 0.192971
vt 0.365348 0.193883
vt 0.367521 0.221198
vt 0.366641 0.221266
vt 0.603350 0.252443
vt 0.380884 0.252443
vt 0.078311 0.219854
vt 0.079177 0.219926
vt 0.350405 0.057969
vt 0.349539 0.057897
vt 0.355968 0.094095
vt 0.372834 0.180830
vt 0.072749 0.183728
vt 0.055882 0.096993
vt 0.966079 0.387266
vt 0.966111 0.402202
vt 0.788816 0.402204
vt 0.788815 0.387915
vt 0.966580 0.207373
vt 0.791632 0.207369
vt 0.792883 0.204368
vt 0.963549 0.204342
vt 0.230225 0.290263
vt 0.405387 0.290263
vt 0.404134 0.293268
vt 0.233259 0.293297
vt 0.966794 0.118646
vt 0.791632 0.118646
vt 0.792885 0.115641
vt 0.963759 0.115612
vt 0.592562 0.365620
vt 0.592486 0.379740
vt 0.417300 0.378802
vt 0.417376 0.364682
vt 0.792870 0.030226
vt 0.963745 0.030197
vt 0.034458 0.286388
vt 0.217145 0.280519
vt 0.215056 0.283430
vt 0.037699 0.289421
vt 0.967731 0.287354
vt 0.967876 0.301664
vt 0.790372 0.303328
vt 0.790253 0.288394
vt 0.965381 0.482182
vt 0.965369 0.496408
vt 0.790181 0.496347
vt 0.790178 0.482121
vt 0.792870 0.119058
vt 0.963535 0.119031
vt 0.404149 0.378683
vt 0.233274 0.378712
vt 0.610471 0.220676
vt 0.611265 0.217718
vt 0.781103 0.222158
vt 0.784043 0.222862
vt 0.784095 0.390558
vt 0.781117 0.393537
vt 0.611221 0.393551
vt 0.608257 0.390558
vt 0.193006 0.378651
vt 0.034459 0.366434
vt 0.335437 0.014918
vt 0.335437 0.013088
vt 0.337146 0.014262
vt 0.332992 0.014918
vt 0.332992 0.013088
vt 0.334701 0.014262
vt 0.316046 0.024569
vt 0.127132 0.024569
vt 0.127204 0.021277
vt 0.315724 0.021274
vt 0.179760 0.028903
vt 0.150054 0.028914
vt 0.150053 0.026674
vt 0.179759 0.026663
vt 0.179760 0.029989
vt 0.308082 0.030291
vt 0.308082 0.032531
vt 0.179761 0.032229
vt 0.319185 0.016425
vt 0.127132 0.016475
vt 0.127203 0.013168
vt 0.316588 0.013088
vt 0.789082 0.288282
vt 0.788920 0.217001
vt 0.790153 0.217787
vt 0.965984 0.316486
vt 0.967217 0.315695
vt 0.967251 0.387146
vt 0.127132 0.017212
vt 0.318312 0.017211
vt 0.317468 0.020534
vt 0.127416 0.020537
vt 0.218688 0.281652
vt 0.216751 0.284293
vt 0.963560 0.206888
vt 0.965038 0.204335
vt 0.965049 0.206881
vt 0.167437 0.035775
vt 0.163239 0.035795
vt 0.163227 0.033340
vt 0.167425 0.033321
vt 0.163228 0.036549
vt 0.167427 0.036529
vt 0.167438 0.038984
vt 0.163240 0.039004
vt 0.308085 0.038949
vt 0.308073 0.036494
vt 0.194480 0.378992
vt 0.965024 0.119024
vt 0.308072 0.033285
vt 0.308084 0.035740
vt 0.613009 0.032752
vt 0.789041 0.032798
vt 0.789041 0.208078
vt 0.613009 0.208123
vt 0.967237 0.402204
vt 0.789245 0.303341
vt 0.150055 0.030001
vt 0.150055 0.032240
vt 0.308081 0.029204
vt 0.308080 0.026965
vt 0.965445 0.408043
vt 0.790166 0.407983
vt 0.965938 0.213519
vt 0.592955 0.292038
vt 0.417770 0.291100
vt 0.789750 0.314272
s 0
usemtl stage4_box1
f 1/1/1 2/2/1 3/3/1 4/4/1
f 5/5/2 6/6/2 7/7/2 8/8/2
f 9/9/3 10/10/3 11/11/3 12/12/3
f 13/13/4 14/14/4 15/15/4 16/16/4
f 17/17/5 18/18/5 19/19/5 20/20/5
f 21/21/6 22/22/6 23/23/6 24/24/6
f 25/25/7 26/26/7 27/27/7 28/28/7
f 29/29/8 30/30/8 31/31/8 32/32/8
f 33/33/9 34/34/9 35/35/9 36/36/9
f 37/37/10 38/38/10 39/39/10 40/40/10
f 41/41/11 42/42/11 43/43/11 44/44/11
f 7/45/12 28/46/12 27/47/12 45/48/12 46/49/12 47/50/12 48/51/12 49/52/12 50/53/12 51/54/12
f 15/55/13 24/56/13 23/57/13 52/58/13 53/59/13 54/60/13 55/61/13 56/62/13 57/63/13 58/64/13
f 59/65/14 54/66/14 53/67/14 60/68/14
f 61/69/15 62/70/15 63/71/15 64/72/15 65/73/15 66/74/15 67/75/15 68/76/15 39/39/15 38/38/15 69/77/15 70/78/15
f 71/79/16 72/80/16 73/81/16 74/82/16
f 3/83/17 75/84/17 36/85/17 35/86/17 76/87/17 77/88/17 78/89/17 79/90/17 80/91/17 81/92/17 82/93/17
f 69/94/18 83/95/18 84/96/18 85/97/18 86/98/18 87/99/18 88/100/18 89/101/18 61/102/18 70/103/18
f 90/104/19 91/105/19 92/106/19 93/107/19
f 94/108/20 95/109/20 96/110/20 97/111/20
f 98/112/21 99/113/21 100/114/21 101/115/21 102/116/21 74/82/21 73/81/21 103/117/21 104/118/21 105/119/21
f 106/120/22 107/121/22 108/122/22 109/123/22
f 110/124/23 111/125/23 15/126/23 58/127/23 57/128/23 112/129/23 113/130/23 114/131/23 92/132/23 91/133/23
f 115/134/24 116/135/24 65/136/24 64/137/24 63/138/24 80/139/24 79/140/24 78/141/24 77/142/24 117/143/24 118/144/24 119/145/24 120/146/24 121/147/24
f 122/148/25 47/149/25 46/150/25 123/151/25
f 11/152/26 32/153/26 31/154/26 124/155/26 125/156/26 126/157/26 127/158/26 128/159/26 129/160/26 130/161/26 131/162/26
f 132/163/27 133/164/27 88/100/27 87/99/27
f 134/165/28 135/166/28 120/167/28 119/168/28
f 136/169/29 137/170/29 138/171/29
f 139/172/30 140/173/30 141/174/30
f 142/175/31 143/176/31 144/177/31
f 145/178/32 146/179/32 147/180/32
f 148/181/33 141/182/33 149/183/33 150/184/33
f 113/185/34 151/186/34 152/187/34 153/188/34 154/189/34 155/190/34 128/191/34 127/192/34 126/193/34 125/194/34 156/195/34 157/196/34 93/197/34 92/198/34 114/199/34
f 67/200/35 158/201/35 159/202/35 160/203/35 161/204/35 162/205/35 163/206/35 40/207/35 39/208/35 68/209/35
f 164/210/36 138/211/36 84/212/36 165/213/36
f 166/214/37 167/215/37 3/216/37 82/217/37 81/218/37 168/219/37 169/220/37 170/221/37 108/222/37 107/223/37
f 171/224/38 172/225/38 173/226/38 7/227/38 51/228/38 50/229/38 174/230/38 115/231/38 121/232/38 120/233/38 135/234/38
f 175/235/39 144/236/39 161/237/39 176/238/39
f 177/239/40 178/240/40 11/241/40 131/242/40 130/243/40 179/244/40 154/245/40 180/246/40 96/247/40 95/248/40
f 181/249/41 147/250/41 100/251/41 182/252/41
f 183/253/42 44/254/42 43/255/42 184/256/42 185/257/42 186/258/42 187/259/42 188/260/42 149/261/42 189/262/42
f 190/263/43 191/264/43 145/265/43 192/266/43
f 55/267/44 193/268/44 187/269/44 186/270/44 185/271/44 194/272/44 152/273/44 151/274/44 113/275/44 112/276/44 57/277/44 56/278/44
f 88/279/45 195/280/45 169/281/45 168/282/45 81/283/45 80/284/45 63/285/45 62/286/45 61/287/45 89/288/45
f 48/289/46 196/290/46 159/291/46 158/292/46 67/293/46 66/294/46 65/295/46 116/296/46 115/297/46 174/298/46 50/299/46 49/300/46
f 154/301/47 179/302/47 130/303/47 129/304/47 128/305/47 155/306/47
f 199/307/48 195/308/48 88/309/48 133/310/48
f 200/311/49 197/312/49 73/313/49 72/314/49
f 104/315/50 198/316/50 154/317/50 153/318/50 152/319/50 194/320/50 185/321/50 184/322/50 43/43/50 42/42/50 98/323/50 105/324/50
f 201/325/51 202/326/51 203/327/51 204/328/51
f 205/329/52 206/330/52 207/331/52 208/332/52
f 209/333/43 210/334/43 211/335/43 212/336/43
f 213/337/53 214/338/53 215/339/53 216/340/53
f 217/341/54 218/342/54 219/343/54 220/344/54
f 221/345/55 208/346/55 207/347/55 222/348/55
f 223/349/56 224/350/56 225/351/56 97/352/56
f 226/353/57 227/354/57 228/355/57 60/356/57
f 229/357/58 230/358/58 225/359/58 123/360/58
f 231/361/1 204/362/1 203/363/1 232/364/1
f 233/365/14 234/366/14 228/367/14 109/368/14
f 235/369/59 236/370/59 237/371/59 238/372/59
f 239/373/60 240/374/60 241/375/60 242/376/60
f 243/377/5 244/378/5 245/379/5 246/380/5
f 247/381/3 248/382/3 249/383/3 250/384/3
f 251/385/16 252/386/16 253/387/16 254/388/16
f 14/389/1 251/385/1 254/388/1 15/390/1
f 255/391/1 256/392/1 251/385/1 14/389/1
f 256/392/1 257/393/1 252/386/1 251/385/1
f 6/394/3 247/381/3 250/384/3 7/395/3
f 258/396/3 246/397/3 247/381/3 6/394/3
f 246/397/3 245/398/3 248/382/3 247/381/3
f 259/399/5 243/377/5 246/380/5 258/400/5
f 260/401/5 261/402/5 243/377/5 259/399/5
f 261/402/5 262/403/5 244/378/5 243/377/5
f 4/404/61 239/373/61 242/376/61 253/405/61
f 3/406/62 167/407/62 239/373/62 4/404/62
f 167/407/63 166/408/63 240/374/63 239/373/63
f 12/409/64 235/369/64 238/372/64 249/410/64
f 11/411/65 178/412/65 235/369/65 12/409/65
f 178/412/66 177/413/66 236/370/66 235/369/66
f 170/414/14 233/365/14 109/368/14 108/415/14
f 169/416/14 263/417/14 233/365/14 170/414/14
f 263/417/14 264/418/14 234/366/14 233/365/14
f 176/419/1 231/361/1 232/364/1 215/420/1
f 161/204/16 160/203/16 231/361/16 176/419/16
f 160/203/16 159/202/16 204/362/16 231/361/16
f 45/421/67 229/357/67 123/360/67 46/422/67
f 27/423/68 26/424/68 229/357/68 45/421/68
f 26/424/69 237/425/69 230/358/69 229/357/69
f 52/426/70 226/353/70 60/356/70 53/427/70
f 23/428/71 22/429/71 226/353/71 52/426/71
f 22/429/72 241/430/72 227/354/72 226/353/72
f 180/431/73 223/349/73 97/352/73 96/432/73
f 154/433/74 265/434/74 223/349/74 180/431/74
f 265/434/75 266/435/75 224/350/75 223/349/75
f 150/436/76 221/345/76 222/348/76 219/437/76
f 149/261/77 188/260/77 221/345/77 150/436/77
f 188/260/78 187/259/78 208/346/78 221/345/78
f 137/438/79 217/341/79 220/344/79 86/439/79
f 136/440/80 267/441/80 217/341/80 137/438/80
f 267/441/81 268/442/81 218/342/81 217/341/81
f 146/443/82 213/337/82 216/340/82 102/444/82
f 145/265/83 191/264/83 213/337/83 146/443/83
f 191/264/84 211/335/84 214/338/84 213/337/84
f 267/441/43 209/333/43 212/336/43 268/442/43
f 136/440/43 269/445/43 209/333/43 267/441/43
f 269/445/43 142/446/43 210/334/43 209/333/43
f 193/447/85 205/329/85 208/332/85 187/448/85
f 55/449/86 270/450/86 205/329/86 193/447/86
f 270/450/87 264/418/87 206/330/87 205/329/87
f 196/451/88 201/325/88 204/328/88 159/452/88
f 48/453/89 271/454/89 201/325/89 196/451/89
f 271/454/90 266/435/90 202/326/90 201/325/90
f 202/326/91 200/311/91 72/314/91 203/327/91
f 266/435/92 265/434/92 200/311/92 202/326/92
f 265/434/93 154/433/93 197/312/93 200/311/93
f 206/330/94 199/307/94 133/310/94 207/331/94
f 264/418/94 263/417/94 199/307/94 206/330/94
f 263/417/48 169/416/48 195/308/48 199/307/48
f 272/455/43 190/263/43 192/266/43 139/456/43
f 268/442/43 212/336/43 190/263/43 272/455/43
f 212/336/43 211/335/43 191/264/43 190/263/43
f 140/457/95 181/249/95 182/252/95 183/458/95
f 139/456/96 192/266/96 181/249/96 140/457/96
f 192/266/97 145/265/97 147/250/97 181/249/97
f 214/338/98 175/235/98 176/238/98 215/339/98
f 211/335/99 210/334/99 175/235/99 214/338/99
f 210/334/39 142/446/39 144/236/39 175/235/39
f 143/459/36 164/210/36 165/213/36 163/460/36
f 142/446/100 269/445/100 164/210/100 143/459/100
f 269/445/100 136/440/100 138/211/100 164/210/100
f 218/342/101 148/181/101 150/184/101 219/343/101
f 268/442/102 272/455/102 148/181/102 218/342/102
f 272/455/103 139/456/103 141/182/103 148/181/103
f 147/180/104 101/461/104 100/462/104
f 147/180/104 146/179/104 101/461/104
f 146/179/105 102/463/105 101/461/105
f 144/177/106 162/464/106 161/465/106
f 144/177/107 143/176/107 162/464/107
f 143/176/108 163/466/108 162/464/108
f 141/174/109 189/467/109 149/468/109
f 141/174/110 140/173/110 189/467/110
f 140/173/111 183/469/111 189/467/111
f 138/171/112 85/470/112 84/471/112
f 138/171/113 137/170/113 85/470/113
f 137/170/114 86/472/114 85/470/114
f 273/473/115 134/165/115 119/168/115 118/474/115
f 274/475/116 275/476/116 134/165/116 273/473/116
f 275/476/117 171/477/117 135/166/117 134/165/117
f 220/478/118 132/163/118 87/99/118 86/98/118
f 219/437/119 222/348/119 132/163/119 220/478/119
f 222/348/120 207/347/120 133/164/120 132/163/120
f 224/350/121 122/148/121 123/151/121 225/351/121
f 266/435/122 271/454/122 122/148/122 224/350/122
f 271/454/123 48/453/123 47/149/123 122/148/123
f 227/354/57 106/120/57 109/123/57 228/355/57
f 241/430/124 240/479/124 106/120/124 227/354/124
f 240/479/125 166/480/125 107/121/125 106/120/125
f 230/358/126 94/108/126 97/111/126 225/359/126
f 237/425/127 236/481/127 94/108/127 230/358/127
f 236/481/128 177/482/128 95/109/128 94/108/128
f 124/483/129 276/484/129 156/485/129 125/486/129
f 31/487/130 30/488/130 276/484/130 124/483/130
f 277/489/131 110/490/131 91/105/131 90/104/131
f 216/491/16 71/79/16 74/82/16 102/116/16
f 215/420/16 232/364/16 71/79/16 216/491/16
f 232/364/16 203/363/16 72/80/16 71/79/16
f 234/366/14 59/65/14 60/68/14 228/367/14
f 264/418/14 270/450/14 59/65/14 234/366/14
f 270/450/14 55/449/14 54/66/14 59/65/14
f 182/492/11 41/41/11 44/44/11 183/493/11
f 100/494/132 99/495/132 41/41/132 182/492/132
f 99/495/132 98/323/132 42/42/132 41/41/132
f 165/496/10 37/37/10 40/40/10 163/497/10
f 84/498/10 83/499/10 37/37/10 165/496/10
f 83/499/10 69/77/10 38/38/10 37/37/10
f 278/500/133 279/501/133 75/502/133 3/503/133
f 7/504/134 173/505/134 280/506/134 8/507/134
f 172/508/135 171/509/135 275/510/135 281/511/135
f 282/512/136 29/29/136 32/32/136 11/513/136
f 283/514/137 284/515/137 29/29/137 282/512/137
f 284/515/137 285/516/137 30/30/137 29/29/137
f 250/517/138 25/25/138 28/28/138 7/518/138
f 249/410/139 238/372/139 25/25/139 250/517/139
f 238/372/140 237/371/140 26/26/140 25/25/140
f 254/519/141 21/21/141 24/24/141 15/520/141
f 253/405/142 242/376/142 21/21/142 254/519/142
f 242/376/143 241/375/143 22/22/143 21/21/143
f 244/378/5 17/17/5 20/20/5 245/379/5
f 262/403/5 286/521/5 17/17/5 244/378/5
f 286/521/5 287/522/5 18/18/5 17/17/5
f 10/523/4 288/524/4 282/525/4 11/526/4
f 19/527/4 18/528/4 288/524/4 10/523/4
f 289/529/4 255/530/4 14/14/4 13/13/4
f 248/382/3 9/9/3 12/12/3 249/383/3
f 245/398/3 20/531/3 9/9/3 248/382/3
f 20/531/3 19/532/3 10/10/3 9/9/3
f 290/533/144 5/5/144 8/8/144 291/534/144
f 260/535/145 259/536/145 5/5/145 290/533/145
f 259/536/146 258/537/146 6/6/146 5/5/146
f 252/386/1 1/1/1 4/4/1 253/387/1
f 257/393/1 292/538/1 1/1/1 252/386/1
f 292/538/1 293/539/1 2/2/1 1/1/1
f 294/540/147 260/535/147 290/533/147 295/541/147
f 295/541/148 290/533/148 291/534/148 278/542/148
f 18/528/149 287/543/149 296/544/149 288/524/149
f 297/545/5 289/546/5 287/522/5 286/521/5
f 298/547/5 297/545/5 286/521/5 262/403/5
f 299/548/150 277/549/150 285/516/150 284/515/150
f 16/550/137 299/548/137 284/515/137 283/514/137
f 8/507/151 280/506/151 300/551/151 291/552/151
f 30/488/152 285/553/152 301/554/152 276/484/152
f 34/555/153 274/475/153 273/473/153 302/556/153
f 302/556/154 273/473/154 118/474/154 117/557/154
f 303/558/5 298/547/5 262/403/5 261/402/5
f 294/559/5 303/558/5 261/402/5 260/401/5
f 276/484/155 301/554/155 157/560/155 156/485/155
f 281/511/156 275/510/156 274/561/156 304/562/156
f 288/524/149 296/544/149 283/563/149 282/525/149
f 293/564/5 292/565/5 303/558/5 294/559/5
f 292/565/5 257/566/5 298/547/5 303/558/5
f 76/567/157 302/556/157 117/557/157 77/568/157
f 35/569/158 34/555/158 302/556/158 76/567/158
f 15/570/137 111/571/137 299/548/137 16/550/137
f 111/571/137 110/572/137 277/549/137 299/548/137
f 257/566/5 256/573/5 297/545/5 298/547/5
f 256/573/5 255/574/5 289/546/5 297/545/5
f 2/575/159 295/541/159 278/542/159 3/576/159
f 293/577/160 294/540/160 295/541/160 2/575/160
f 287/543/4 289/529/4 13/13/4 296/544/4
f 291/552/161 300/551/161 279/501/161 278/500/161
f 285/553/162 277/489/162 90/104/162 301/554/162
f 301/554/163 90/104/163 93/107/163 157/560/163
f 304/562/164 274/561/164 34/34/164 33/33/164
f 296/544/4 13/13/4 16/16/4 283/563/4
f 300/551/165 304/562/165 33/33/165 279/501/165
f 280/506/166 281/511/166 304/562/166 300/551/166
f 173/505/167 172/508/167 281/511/167 280/506/167
f 279/501/168 33/33/168 36/36/168 75/502/168
f 73/578/169 197/579/169 154/301/169 198/580/169 104/581/169 103/582/169
f 305/583/170 306/584/170 307/585/170 308/586/170
f 309/587/171 310/588/171 311/589/171 312/590/171
f 313/591/172 314/592/172 315/593/172 316/594/172
f 317/595/173 318/596/173 319/597/173 320/598/173
f 321/599/174 322/600/174 323/601/174 324/602/174
f 325/603/171 326/604/171 327/605/171 328/606/171
f 329/607/175 330/608/175 331/609/175 332/610/175
f 333/611/176 334/612/176 335/613/176 336/614/176
f 337/615/177 338/616/177 339/617/177 340/618/177
f 336/614/178 335/613/178 341/619/178 342/620/178
f 316/594/174 315/593/174 343/621/174 344/622/174
f 345/623/179 312/590/179 311/589/179 342/620/179 341/619/179 344/622/179 343/621/179 346/624/179
f 320/598/177 319/597/177 345/623/177 346/624/177
f 323/601/180 332/610/180 307/585/180
f 324/602/181 306/584/181 339/617/181
f 340/618/182 305/583/182 327/605/182
f 328/606/183 308/586/183 331/609/183
f 307/585/184 306/584/184 324/602/184 323/601/184
f 306/584/185 305/583/185 340/618/185 339/617/185
f 305/583/186 308/586/186 328/606/186 327/605/186
f 308/586/187 307/585/187 332/610/187 331/609/187
f 337/625/188 340/618/188 327/605/188 326/604/188
f 330/626/189 317/627/189 314/628/189 325/603/189
f 329/629/190 332/610/190 323/601/190 322/600/190
f 338/630/191 333/631/191 347/632/191 321/599/191
f 335/613/192 334/612/192 313/591/192 316/594/192
f 317/595/193 320/598/193 315/593/193 314/592/193
f 319/597/194 318/596/194 348/633/194 309/587/194
f 333/611/173 336/614/173 310/588/173 347/634/173
f 343/621/195 315/593/195 320/598/195 346/624/195
f 309/587/196 312/590/196 345/623/196 319/597/196
f 311/589/197 310/588/197 336/614/197 342/620/197
f 316/594/198 344/622/198 341/619/198 335/613/198
f 348/633/199 347/634/199 310/588/199 309/587/199
f 339/617/200 338/630/200 321/599/200 324/602/200
f 318/635/201 329/629/201 322/600/201 348/636/201
f 331/609/189 330/626/189 325/603/189 328/606/189
f 334/637/202 337/625/202 326/604/202 313/638/202
f 334/639/203 333/640/203 338/616/203 337/615/203
f 318/641/175 317/642/175 330/608/175 329/607/175
f 314/628/171 313/638/171 326/604/171 325/603/171
f 347/632/174 348/636/174 322/600/174 321/599/174
f 349/1/204 350/2/204 351/3/204 352/4/204
f 353/5/205 354/6/205 355/7/205 356/8/205
f 357/9/206 358/10/206 359/11/206 360/12/206
f 361/13/207 362/14/207 363/15/207 364/16/207
f 365/17/5 366/18/5 367/19/5 368/20/5
f 369/21/208 370/22/208 371/23/208 372/24/208
f 373/25/209 374/26/209 375/27/209 376/28/209
f 377/29/210 378/30/210 379/31/210 380/32/210
f 381/33/211 382/34/211 383/35/211 384/36/211
f 385/37/207 386/38/207 387/39/207 388/40/207
f 389/41/212 390/42/212 391/43/212 392/44/212
f 355/45/213 376/46/213 375/47/213 393/48/213 394/49/213 395/50/213 396/51/213 397/52/213 398/53/213 399/54/213
f 363/55/214 372/56/214 371/57/214 400/58/214 401/59/214 402/60/214 403/61/214 404/62/214 405/63/214 406/64/214
f 407/65/215 402/66/215 401/67/215 408/68/215
f 409/69/216 410/70/216 411/71/216 412/72/216 413/73/216 414/74/216 415/75/216 416/76/216 387/39/216 386/38/216 417/77/216 418/78/216
f 419/79/204 420/80/204 421/81/204 422/82/204
f 351/83/217 423/84/217 384/85/217 383/86/217 424/87/217 425/88/217 426/89/217 427/90/217 464/91/217 428/92/217 429/93/217
f 417/94/218 430/95/218 431/96/218 432/97/218 433/98/218 434/99/218 435/100/218 436/101/218 409/102/218 418/103/218
f 437/104/219 438/105/219 439/106/219 440/107/219
f 441/108/220 442/109/220 443/110/220 444/111/220
f 445/112/221 446/113/221 447/114/221 448/115/221 449/116/221 422/82/221 421/81/221 450/117/221 451/118/221 452/119/221
f 453/120/222 454/121/222 455/122/222 456/123/222
f 457/124/223 458/125/223 363/126/223 406/127/223 405/128/223 459/129/223 460/130/223 461/131/223 439/132/223 438/133/223
f 462/134/224 463/135/224 413/136/224 412/137/224 411/138/224 464/139/224 427/140/224 426/141/224 425/142/224 465/143/224 466/144/224 467/145/224 468/146/224 469/147/224
f 470/148/225 395/149/225 394/150/225 471/151/225
f 359/152/226 380/153/226 379/154/226 472/155/226 473/156/226 474/157/226 475/158/226 476/159/226 477/160/226 478/161/226 479/162/226
f 480/163/227 481/164/227 435/100/227 434/99/227
f 482/165/228 483/166/228 468/167/228 467/168/228
f 484/169/229 485/170/229 486/171/229
f 487/172/230 488/173/230 489/174/230
f 490/175/231 491/176/231 492/177/231
f 493/178/232 494/179/232 495/180/232
f 496/181/233 489/182/233 497/183/233 498/184/233
f 460/185/234 499/186/234 500/187/234 501/188/234 502/189/234 503/190/234 476/191/234 475/192/234 474/193/234 473/194/234 504/195/234 505/196/234 440/197/234 439/198/234 461/199/234
f 415/200/235 506/201/235 507/202/235 508/203/235 509/204/235 510/205/235 511/206/235 388/207/235 387/208/235 416/209/235
f 512/210/236 486/211/236 431/212/236 513/213/236
f 514/214/237 515/215/237 351/216/237 429/217/237 428/218/237 516/219/237 517/220/237 518/221/237 455/222/237 454/223/237
f 519/224/238 520/225/238 521/226/238 355/227/238 399/228/238 398/229/238 522/230/238 462/231/238 469/232/238 468/233/238 483/234/238
f 523/235/239 492/236/239 509/237/239 524/238/239
f 525/239/240 526/240/240 359/241/240 479/242/240 478/243/240 527/244/240 502/245/240 528/246/240 443/247/240 442/248/240
f 529/249/241 495/250/241 447/251/241 530/252/241
f 531/253/242 392/254/242 391/255/242 532/256/242 533/257/242 534/258/242 535/259/242 536/260/242 497/261/242 537/262/242
f 538/263/43 539/264/43 493/265/43 540/266/43
f 403/267/243 541/268/243 535/269/243 534/270/243 533/271/243 542/272/243 500/273/243 499/274/243 460/275/243 459/276/243 405/277/243 404/278/243
f 396/289/244 544/290/244 507/291/244 506/292/244 415/293/244 414/294/244 413/295/244 463/296/244 462/297/244 522/298/244 398/299/244 397/300/244
f 502/301/245 527/302/245 478/303/245 477/304/245 476/305/245 503/306/245
f 547/307/246 543/308/246 435/309/246 481/310/246
f 548/311/247 545/312/247 421/313/247 420/314/247
f 451/315/248 546/316/248 502/317/248 501/318/248 500/319/248 542/320/248 533/321/248 532/322/248 391/43/248 390/42/248 445/323/248 452/324/248
f 549/325/249 550/326/249 551/327/249 552/328/249
f 553/329/246 554/330/246 555/331/246 556/332/246
f 557/333/43 558/334/43 559/335/43 560/336/43
f 561/337/250 562/338/250 563/339/250 564/340/250
f 565/341/233 566/342/233 567/343/233 568/344/233
f 569/345/251 556/346/251 555/347/251 570/348/251
f 571/349/252 572/350/252 573/351/252 444/352/252
f 574/353/253 575/354/253 576/355/253 408/356/253
f 577/357/254 578/358/254 573/359/254 471/360/254
f 579/361/204 552/362/204 551/363/204 580/364/204
f 581/365/255 582/366/255 576/367/255 456/368/255
f 583/369/256 584/370/256 585/371/256 586/372/256
f 587/373/257 588/374/257 589/375/257 590/376/257
f 591/377/5 592/378/5 593/379/5 594/380/5
f 595/381/206 596/382/206 597/383/206 598/384/206
f 599/385/204 600/386/204 601/387/204 602/388/204
f 362/389/204 599/385/204 602/388/204 363/390/204
f 603/391/204 604/392/204 599/385/204 362/389/204
f 604/392/204 605/393/204 600/386/204 599/385/204
f 354/394/206 595/381/206 598/384/206 355/395/206
f 606/396/206 594/397/206 595/381/206 354/394/206
f 594/397/206 593/398/206 596/382/206 595/381/206
f 607/399/5 591/377/5 594/380/5 606/400/5
f 608/401/5 609/402/5 591/377/5 607/399/5
f 609/402/5 610/403/5 592/378/5 591/377/5
f 352/404/258 587/373/258 590/376/258 601/405/258
f 351/406/259 515/407/259 587/373/259 352/404/259
f 515/407/260 514/408/260 588/374/260 587/373/260
f 360/409/261 583/369/261 586/372/261 597/410/261
f 359/411/262 526/412/262 583/369/262 360/409/262
f 526/412/263 525/413/263 584/370/263 583/369/263
f 518/414/255 581/365/255 456/368/255 455/415/255
f 517/416/255 611/417/255 581/365/255 518/414/255
f 611/417/255 612/418/255 582/366/255 581/365/255
f 524/419/204 579/361/204 580/364/204 563/420/204
f 509/204/204 508/203/204 579/361/204 524/419/204
f 508/203/204 507/202/204 552/362/204 579/361/204
f 393/421/264 577/357/264 471/360/264 394/422/264
f 375/423/254 374/424/254 577/357/254 393/421/254
f 374/424/265 585/425/265 578/358/265 577/357/265
f 400/426/266 574/353/266 408/356/266 401/427/266
f 371/428/267 370/429/267 574/353/267 400/426/267
f 370/429/268 589/430/268 575/354/268 574/353/268
f 528/431/269 571/349/269 444/352/269 443/432/269
f 502/433/270 613/434/270 571/349/270 528/431/270
f 613/434/271 614/435/271 572/350/271 571/349/271
f 498/436/272 569/345/272 570/348/272 567/437/272
f 497/261/273 536/260/273 569/345/273 498/436/273
f 536/260/274 535/259/274 556/346/274 569/345/274
f 485/438/275 565/341/275 568/344/275 433/439/275
f 484/440/276 615/441/276 565/341/276 485/438/276
f 615/441/276 616/442/276 566/342/276 565/341/276
f 494/443/277 561/337/277 564/340/277 449/444/277
f 493/265/278 539/264/278 561/337/278 494/443/278
f 539/264/279 559/335/279 562/338/279 561/337/279
f 615/441/43 557/333/43 560/336/43 616/442/43
f 484/440/43 617/445/43 557/333/43 615/441/43
f 617/445/43 490/446/43 558/334/43 557/333/43
f 541/447/280 553/329/280 556/332/280 535/448/280
f 403/449/281 618/450/281 553/329/281 541/447/281
f 618/450/282 612/418/282 554/330/282 553/329/282
f 544/451/283 549/325/283 552/328/283 507/452/283
f 396/453/284 619/454/284 549/325/284 544/451/284
f 619/454/285 614/435/285 550/326/285 549/325/285
f 550/326/286 548/311/286 420/314/286 551/327/286
f 614/435/287 613/434/287 548/311/287 550/326/287
f 613/434/288 502/433/288 545/312/288 548/311/288
f 554/330/289 547/307/289 481/310/289 555/331/289
f 612/418/281 611/417/281 547/307/281 554/330/281
f 611/417/290 517/416/290 543/308/290 547/307/290
f 620/455/43 538/263/43 540/266/43 487/456/43
f 616/442/43 560/336/43 538/263/43 620/455/43
f 560/336/43 559/335/43 539/264/43 538/263/43
f 488/457/291 529/249/291 530/252/291 531/458/291
f 487/456/292 540/266/292 529/249/292 488/457/292
f 540/266/292 493/265/292 495/250/292 529/249/292
f 562/338/239 523/235/239 524/238/239 563/339/239
f 559/335/293 558/334/293 523/235/293 562/338/293
f 558/334/278 490/446/278 492/236/278 523/235/278
f 491/459/236 512/210/236 513/213/236 511/460/236
f 490/446/294 617/445/294 512/210/294 491/459/294
f 617/445/295 484/440/295 486/211/295 512/210/295
f 566/342/296 496/181/296 498/184/296 567/343/296
f 616/442/297 620/455/297 496/181/297 566/342/297
f 620/455/298 487/456/298 489/182/298 496/181/298
f 495/180/299 448/461/299 447/462/299
f 495/180/300 494/179/300 448/461/300
f 494/179/301 449/463/301 448/461/301
f 492/177/302 510/464/302 509/465/302
f 492/177/303 491/176/303 510/464/303
f 491/176/304 511/466/304 510/464/304
f 489/174/305 537/467/305 497/468/305
f 489/174/306 488/173/306 537/467/306
f 488/173/307 531/469/307 537/467/307
f 486/171/308 432/470/308 431/471/308
f 486/171/309 485/170/309 432/470/309
f 485/170/310 433/472/310 432/470/310
f 621/473/311 482/165/311 467/168/311 466/474/311
f 622/475/312 623/476/312 482/165/312 621/473/312
f 623/476/313 519/477/313 483/166/313 482/165/313
f 568/478/314 480/163/314 434/99/314 433/98/314
f 567/437/315 570/348/315 480/163/315 568/478/315
f 570/348/316 555/347/316 481/164/316 480/163/316
f 572/350/317 470/148/317 471/151/317 573/351/317
f 614/435/318 619/454/318 470/148/318 572/350/318
f 619/454/319 396/453/319 395/149/319 470/148/319
f 575/354/320 453/120/320 456/123/320 576/355/320
f 589/430/321 588/479/321 453/120/321 575/354/321
f 588/479/321 514/480/321 454/121/321 453/120/321
f 578/358/322 441/108/322 444/111/322 573/359/322
f 585/425/323 584/481/323 441/108/323 578/358/323
f 584/481/324 525/482/324 442/109/324 441/108/324
f 472/483/325 624/484/325 504/485/325 473/486/325
f 379/487/326 378/488/326 624/484/326 472/483/326
f 625/489/327 457/490/327 438/105/327 437/104/327
f 564/491/204 419/79/204 422/82/204 449/116/204
f 563/420/204 580/364/204 419/79/204 564/491/204
f 580/364/204 551/363/204 420/80/204 419/79/204
f 582/366/215 407/65/215 408/68/215 576/367/215
f 612/418/215 618/450/215 407/65/215 582/366/215
f 618/450/215 403/449/215 402/66/215 407/65/215
f 530/492/212 389/41/212 392/44/212 531/493/212
f 447/494/212 446/495/212 389/41/212 530/492/212
f 446/495/212 445/323/212 390/42/212 389/41/212
f 513/496/207 385/37/207 388/40/207 511/497/207
f 431/498/207 430/499/207 385/37/207 513/496/207
f 430/499/207 417/77/207 386/38/207 385/37/207
f 626/500/328 627/501/328 423/502/328 351/503/328
f 355/504/329 521/505/329 628/506/329 356/507/329
f 520/508/330 519/509/330 623/510/330 629/511/330
f 630/512/331 377/29/331 380/32/331 359/513/331
f 631/514/332 632/515/332 377/29/332 630/512/332
f 632/515/332 633/516/332 378/30/332 377/29/332
f 598/517/333 373/25/333 376/28/333 355/518/333
f 597/410/334 586/372/334 373/25/334 598/517/334
f 586/372/335 585/371/335 374/26/335 373/25/335
f 602/519/336 369/21/336 372/24/336 363/520/336
f 601/405/337 590/376/337 369/21/337 602/519/337
f 590/376/338 589/375/338 370/22/338 369/21/338
f 592/378/5 365/17/5 368/20/5 593/379/5
f 610/403/5 634/521/5 365/17/5 592/378/5
f 634/521/5 635/522/5 366/18/5 365/17/5
f 358/523/207 636/524/207 630/525/207 359/526/207
f 367/527/207 366/528/207 636/524/207 358/523/207
f 637/529/207 603/530/207 362/14/207 361/13/207
f 596/382/206 357/9/206 360/12/206 597/383/206
f 593/398/206 368/531/206 357/9/206 596/382/206
f 368/531/206 367/532/206 358/10/206 357/9/206
f 638/533/339 353/5/339 356/8/339 639/534/339
f 608/535/340 607/536/340 353/5/340 638/533/340
f 607/536/341 606/537/341 354/6/341 353/5/341
f 600/386/204 349/1/204 352/4/204 601/387/204
f 605/393/204 640/538/204 349/1/204 600/386/204
f 640/538/204 641/539/204 350/2/204 349/1/204
f 642/540/342 608/535/342 638/533/342 643/541/342
f 643/541/343 638/533/343 639/534/343 626/542/343
f 366/528/207 635/543/207 644/544/207 636/524/207
f 645/545/5 637/546/5 635/522/5 634/521/5
f 646/547/5 645/545/5 634/521/5 610/403/5
f 647/548/332 625/549/332 633/516/332 632/515/332
f 364/550/332 647/548/332 632/515/332 631/514/332
f 356/507/344 628/506/344 648/551/344 639/552/344
f 378/488/345 633/553/345 649/554/345 624/484/345
f 382/555/346 622/475/346 621/473/346 650/556/346
f 650/556/347 621/473/347 466/474/347 465/557/347
f 651/558/5 646/547/5 610/403/5 609/402/5
f 642/559/5 651/558/5 609/402/5 608/401/5
f 624/484/348 649/554/348 505/560/348 504/485/348
f 629/511/349 623/510/349 622/561/349 652/562/349
f 636/524/207 644/544/207 631/563/207 630/525/207
f 641/564/5 640/565/5 651/558/5 642/559/5
f 640/565/5 605/566/5 646/547/5 651/558/5
f 424/567/350 650/556/350 465/557/350 425/568/350
f 383/569/351 382/555/351 650/556/351 424/567/351
f 363/570/332 458/571/332 647/548/332 364/550/332
f 458/571/332 457/572/332 625/549/332 647/548/332
f 605/566/5 604/573/5 645/545/5 646/547/5
f 604/573/5 603/574/5 637/546/5 645/545/5
f 350/575/352 643/541/352 626/542/352 351/576/352
f 641/577/353 642/540/353 643/541/353 350/575/353
f 635/543/207 637/529/207 361/13/207 644/544/207
f 639/552/354 648/551/354 627/501/354 626/500/354
f 633/553/327 625/489/327 437/104/327 649/554/327
f 649/554/355 437/104/355 440/107/355 505/560/355
f 652/562/356 622/561/356 382/34/356 381/33/356
f 644/544/207 361/13/207 364/16/207 631/563/207
f 648/551/357 652/562/357 381/33/357 627/501/357
f 628/506/358 629/511/358 652/562/358 648/551/358
f 521/505/359 520/508/359 629/511/359 628/506/359
f 627/501/360 381/33/360 384/36/360 423/502/360
f 435/279/361 543/280/361 517/281/361 516/282/361 428/283/361 464/284/361 411/285/361 410/286/361 409/287/361 436/288/361
f 421/578/362 545/579/362 502/301/362 546/580/362 451/581/362 450/582/362
f 653/643/363 654/644/363 655/645/363 656/646/363
f 657/647/364 658/648/364 659/649/364 660/650/364
f 661/651/365 662/652/365 663/653/365 664/654/365
f 665/655/365 666/656/365 667/657/365 668/658/365
f 669/659/366 666/660/366 665/661/366 670/662/366
f 668/658/367 667/657/367 671/663/367 672/664/367
f 655/665/364 654/666/364 673/667/364 674/668/364
f 675/669/368 658/670/368 657/671/368 676/672/368
f 677/673/367 662/674/367 661/675/367 678/676/367
f 660/650/363 659/649/363 679/677/363 680/678/363
f 664/654/369 663/653/369 681/679/369 682/680/369
f 671/681/365 683/682/365 684/683/365 682/684/365 681/685/365 680/686/365 679/687/365 672/688/365
f 674/668/368 673/667/368 684/689/368 683/690/368
f 685/691/370 686/692/370 687/693/370
f 688/694/371 689/695/371 690/696/371
f 688/697/372 685/698/372 687/699/372 689/700/372
f 656/701/373 655/702/373 666/703/373 669/704/373
f 675/705/374 690/706/374 689/707/374 670/708/374
f 691/709/375 688/710/375 690/711/375 692/712/375
f 677/713/376 691/714/376 692/715/376 676/672/376
f 653/643/377 693/716/377 694/717/377 678/718/377
f 685/719/378 694/720/378 693/721/378 686/722/378
f 673/667/364 654/666/364 661/723/364 664/724/364
f 657/725/365 660/650/365 663/726/365 662/727/365
f 659/728/364 658/729/364 665/730/364 668/731/364
f 655/732/365 674/733/365 667/734/365 666/735/365
f 671/736/379 667/734/379 674/733/379 683/737/379
f 664/724/380 682/738/380 684/689/380 673/667/380
f 681/739/381 663/726/381 660/650/381 680/678/381
f 668/731/382 672/740/382 679/741/382 659/728/382
f 688/742/383 691/743/383 694/744/383 685/745/383
f 654/644/384 653/643/384 678/718/384 661/746/384
f 662/747/385 677/713/385 676/672/385 657/671/385
f 658/748/386 675/705/386 670/708/386 665/749/386
f 686/750/387 656/701/387 669/704/387 687/751/387
f 691/752/367 677/673/367 678/676/367 694/753/367
f 690/754/368 675/669/368 676/672/368 692/715/368
f 687/755/366 669/659/366 670/662/366 689/756/366
f 693/716/363 653/643/363 656/646/363 686/757/363
f 695/583/365 696/584/365 697/585/365 698/586/365
f 699/587/367 700/588/367 701/589/367 702/590/367
f 703/591/383 704/592/383 705/593/383 706/594/383
f 707/595/388 708/596/388 709/597/388 710/598/388
f 711/599/366 712/600/366 713/601/366 714/602/366
f 715/603/367 716/604/367 717/605/367 718/606/367
f 719/607/389 720/608/389 721/609/389 722/610/389
f 723/611/388 724/612/388 725/613/388 726/614/388
f 727/615/368 728/616/368 729/617/368 730/618/368
f 726/614/363 725/613/363 731/619/363 732/620/363
f 706/594/366 705/593/366 733/621/366 734/622/366
f 735/623/383 702/590/383 701/589/383 732/620/383 731/619/383 734/622/383 733/621/383 736/624/383
f 710/598/368 709/597/368 735/623/368 736/624/368
f 713/601/390 722/610/390 697/585/390
f 714/602/391 696/584/391 729/617/391
f 730/618/392 695/583/392 717/605/392
f 718/606/393 698/586/393 721/609/393
f 697/585/394 696/584/394 714/602/394 713/601/394
f 696/584/395 695/583/395 730/618/395 729/617/395
f 695/583/396 698/586/396 718/606/396 717/605/396
f 698/586/397 697/585/397 722/610/397 721/609/397
f 727/625/398 730/618/398 717/605/398 716/604/398
f 720/626/399 707/627/399 704/628/399 715/603/399
f 719/629/400 722/610/400 713/601/400 712/600/400
f 728/630/401 723/631/401 737/632/401 711/599/401
f 725/613/383 724/612/383 703/591/383 706/594/383
f 707/595/402 710/598/402 705/593/402 704/592/402
f 709/597/388 708/596/388 738/633/388 699/587/388
f 723/611/383 726/614/383 700/588/383 737/634/383
f 733/621/380 705/593/380 710/598/380 736/624/380
f 699/587/403 702/590/403 735/623/403 709/597/403
f 701/589/404 700/588/404 726/614/404 732/620/404
f 706/594/405 734/622/405 731/619/405 725/613/405
f 738/633/383 737/634/383 700/588/383 699/587/383
f 729/617/406 728/630/406 711/599/406 714/602/406
f 708/635/407 719/629/407 712/600/407 738/636/407
f 721/609/408 720/626/408 715/603/408 718/606/408
f 724/637/409 727/625/409 716/604/409 703/638/409
f 724/639/368 723/640/368 728/616/368 727/615/368
f 708/641/363 707/642/363 720/608/363 719/607/363
f 704/628/367 703/638/367 716/604/367 715/603/367
f 737/632/366 738/636/366 712/600/366 711/599/366
f 739/643/410 740/644/410 741/645/410 742/646/410
f 743/647/5 744/648/5 745/649/5 746/650/5
f 747/651/5 748/652/5 749/653/5 750/654/5
f 751/655/5 752/656/5 753/657/5 754/658/5
f 755/659/411 752/660/411 751/661/411 756/662/411
f 754/658/412 753/657/412 757/663/412 758/664/412
f 741/665/5 740/666/5 759/667/5 760/668/5
f 761/669/413 744/670/413 743/671/413 762/672/413
f 763/673/412 748/674/412 747/675/412 764/676/412
f 746/650/410 745/649/410 765/677/410 766/678/410
f 750/654/411 749/653/411 767/679/411 768/680/411
f 757/681/5 769/682/5 770/683/5 768/684/5 767/685/5 766/686/5 765/687/5 758/688/5
f 760/668/413 759/667/413 770/689/413 769/690/413
f 771/691/414 772/692/414 773/693/414
f 774/694/415 775/695/415 776/696/415
f 774/697/416 771/698/416 773/699/416 775/700/416
f 742/701/417 741/702/417 752/703/417 755/704/417
f 761/705/418 776/706/418 775/707/418 756/708/418
f 777/709/419 774/710/419 776/711/419 778/712/419
f 763/713/420 777/714/420 778/715/420 762/672/420
f 739/643/421 779/716/421 780/717/421 764/718/421
f 771/719/422 780/720/422 779/721/422 772/722/422
f 759/667/5 740/666/5 747/723/5 750/724/5
f 743/725/5 746/650/5 749/726/5 748/727/5
f 745/728/5 744/729/5 751/730/5 754/731/5
f 741/732/5 760/733/5 753/734/5 752/735/5
f 757/736/423 753/734/423 760/733/423 769/737/423
f 750/724/424 768/738/424 770/689/424 759/667/424
f 767/739/417 749/726/417 746/650/417 766/678/417
f 754/731/425 758/740/425 765/741/425 745/728/425
f 774/742/43 777/743/43 780/744/43 771/745/43
f 740/644/426 739/643/426 764/718/426 747/746/426
f 748/747/427 763/713/427 762/672/427 743/671/427
f 744/748/418 761/705/418 756/708/418 751/749/418
f 772/750/417 742/701/417 755/704/417 773/751/417
f 777/752/412 763/673/412 764/676/412 780/753/412
f 776/754/413 761/669/413 762/672/413 778/715/413
f 773/755/411 755/659/411 756/662/411 775/756/411
f 779/716/410 739/643/410 742/646/410 772/757/410
