# 3ds Max Wavefront OBJ Exporter v0.97b - (c)2007 guruware
# File Created: 20.12.2025 20:12:39

mtllib miro.mtl

#
# object Box013
#

v  2758.9622 -12.8037 -865.6814
v  1599.1410 -12.8037 -865.6814
v  1599.1410 398.9070 -865.6814
v  2758.9622 398.9070 -865.6814
v  1599.1410 -12.8037 -852.3218
v  1599.1410 398.9070 -852.3218
v  2758.9622 -12.8037 -852.3218
v  2758.9622 398.9070 -852.3218
# 8 vertices

vn 0.5774 -0.5774 -0.5774
vn -0.5774 -0.5774 -0.5774
vn -0.5774 0.5774 -0.5774
vn 0.5774 0.5774 -0.5774
vn -0.5774 -0.5774 0.5774
vn -0.5774 0.5774 0.5774
vn 0.5774 -0.5774 0.5774
vn 0.5774 0.5774 0.5774
# 8 vertex normals

vt 0.0000 0.0000 0.0000
vt 1.0000 0.0000 0.0000
vt 1.0000 1.0000 0.0000
vt 0.0000 1.0000 0.0000
vt 0.0419 0.0000 0.0000
vt 0.0419 1.0000 0.0000
vt 1.0000 0.9581 0.0000
vt 0.0000 0.9581 0.0000
vt 0.9581 0.0000 0.0000
vt 0.9581 1.0000 0.0000
# 10 texture coords

o Box013
g Box013
usemtl Material__45
s 32
f 1/1/1 2/2/2 3/3/3 4/4/4 
s 64
f 2/1/2 5/5/5 6/6/6 3/4/3 
s 2
f 5/7/5 2/3/2 1/4/1 7/8/7 
s 4
f 8/7/8 4/3/4 3/4/3 6/8/6 
s 16
f 7/9/7 1/2/1 4/3/4 8/10/8 
s off
f 7/8/7 8/10/8 6/8/6 5/5/5 
# 6 polygons

#
# object Box014
#

v  2762.8911 -15.4422 -1839.1880
v  1605.6624 -15.4422 -1839.1880
v  1605.6624 2.9879 -1839.1880
v  2762.8911 2.9879 -1839.1880
v  1605.6624 -15.4422 -851.5427
v  1605.6624 2.9879 -851.5427
v  2762.8911 -15.4422 -851.5427
v  2762.8911 2.9879 -851.5427
# 8 vertices

vn 0.5774 -0.5774 -0.5774
vn -0.5774 -0.5774 -0.5774
vn -0.5774 0.5774 -0.5774
vn 0.5774 0.5774 -0.5774
vn -0.5774 -0.5774 0.5774
vn -0.5774 0.5774 0.5774
vn 0.5774 -0.5774 0.5774
vn 0.5774 0.5774 0.5774
# 8 vertex normals

vt 0.0000 0.0000 0.0000
vt 1.0000 0.0000 0.0000
vt 1.0000 1.0000 0.0000
vt 0.0000 1.0000 0.0000
vt 0.7345 0.0000 0.0000
vt 0.7345 1.0000 0.0000
vt 1.0000 0.2655 0.0000
vt 0.0000 0.2655 0.0000
vt 0.2655 0.0000 0.0000
vt 0.2655 1.0000 0.0000
# 10 texture coords

o Box014
g Box014
usemtl Material__45
s 32
f 9/11/9 10/12/10 11/13/11 12/14/12 
s 64
f 10/11/10 13/15/13 14/16/14 11/14/11 
s 2
f 13/17/13 10/13/10 9/14/9 15/18/15 
s 4
f 16/17/16 12/13/12 11/14/11 14/18/14 
s 16
f 15/19/15 9/12/9 12/13/12 16/20/16 
s 9
f 14/12/14 13/14/13 15/11/15 16/14/16 
# 6 polygons

#
# object Box018
#

v  1621.7231 -12.8037 -1838.2537
v  1601.3397 -12.8037 -1838.2538
v  1601.3397 398.9070 -1838.2538
v  1621.7231 398.9070 -1838.2537
v  1601.3397 -12.8037 -861.1357
v  1601.3397 398.9070 -861.1357
v  1621.7231 -12.8037 -861.1357
v  1621.7231 398.9070 -861.1357
# 8 vertices

vn 0.5774 -0.5773 -0.5773
vn -0.5773 -0.5774 -0.5774
vn -0.5773 0.5774 -0.5774
vn 0.5774 0.5773 -0.5773
vn -0.5774 -0.5774 0.5774
vn -0.5773 0.5774 0.5774
vn 0.5774 -0.5774 0.5774
vn 0.5774 0.5774 0.5774
# 8 vertex normals

vt 0.0000 0.0000 0.0000
vt 1.0000 0.0000 0.0000
vt 1.0000 1.0000 0.0000
vt 0.0000 1.0000 0.0000
vt 0.0419 0.0000 0.0000
vt 0.0419 1.0000 0.0000
vt 1.0000 0.9581 0.0000
vt 0.0000 0.9581 0.0000
vt 0.9581 0.0000 0.0000
vt 0.9581 1.0000 0.0000
# 10 texture coords

o Box018
g Box018
usemtl Material__45
s 32
f 17/21/17 18/22/18 19/23/19 20/24/20 
s 64
f 18/21/18 21/25/21 22/26/22 19/24/19 
s 2
f 21/27/21 18/23/18 17/24/17 23/28/23 
s 4
f 24/27/24 20/23/20 19/24/19 22/28/22 
s 16
f 23/29/23 17/22/17 20/23/20 24/30/24 
s off
f 23/28/23 24/30/24 22/28/22 21/25/21 
# 6 polygons

#
# object Box022
#

v  2303.4058 36.9263 -893.3759
v  2303.4058 36.9263 -960.2585
v  2367.6458 36.9263 -960.2585
v  2367.6458 36.9263 -893.3759
v  2303.4058 126.1056 -893.3759
v  2367.6458 126.1056 -893.3759
v  2367.6458 126.1056 -960.2585
v  2303.4058 126.1056 -960.2585
# 8 vertices

vn -0.5774 -0.5774 0.5774
vn -0.5774 -0.5774 -0.5774
vn 0.5774 -0.5774 -0.5774
vn 0.5774 -0.5774 0.5774
vn -0.5774 0.5774 0.5774
vn 0.5774 0.5774 0.5774
vn 0.5774 0.5774 -0.5774
vn -0.5774 0.5774 -0.5774
# 8 vertex normals

vt 1.0000 0.0000 0.0000
vt 1.0000 1.0000 0.0000
vt 0.0000 1.0000 0.0000
vt 0.0000 0.0000 0.0000
# 4 texture coords

o Box022
g Box022
usemtl Material__173
s 2
f 25/31/25 26/32/26 27/33/27 28/34/28 
s 4
f 29/34/29 30/31/30 31/32/31 32/33/32 
s 8
f 25/34/25 28/31/28 30/32/30 29/33/29 
s 16
f 28/34/28 27/31/27 31/32/31 30/33/30 
s 32
f 27/34/27 26/31/26 32/32/32 31/33/31 
s 64
f 26/34/26 25/31/25 29/32/29 32/33/32 
# 6 polygons

#
# object Box023
#

v  1605.2402 -12.8037 -1835.6970
v  1605.2402 -12.8037 -1815.3137
v  1605.2402 398.9070 -1815.3137
v  1605.2402 398.9070 -1835.6970
v  2763.3184 -12.8037 -1815.3137
v  2763.3184 398.9070 -1815.3137
v  2763.3184 -12.8037 -1835.6970
v  2763.3184 398.9070 -1835.6970
# 8 vertices

vn -0.5773 -0.5773 -0.5774
vn -0.5774 -0.5774 0.5773
vn -0.5774 0.5774 0.5773
vn -0.5773 0.5773 -0.5774
vn 0.5774 -0.5774 0.5774
vn 0.5774 0.5774 0.5773
vn 0.5774 -0.5774 -0.5774
vn 0.5774 0.5774 -0.5774
# 8 vertex normals

vt 0.0000 0.0000 0.0000
vt 1.0000 0.0000 0.0000
vt 1.0000 1.0000 0.0000
vt 0.0000 1.0000 0.0000
vt 0.0419 0.0000 0.0000
vt 0.0419 1.0000 0.0000
vt 1.0000 0.9581 0.0000
vt 0.0000 0.9581 0.0000
vt 0.9581 0.0000 0.0000
vt 0.9581 1.0000 0.0000
# 10 texture coords

o Box023
g Box023
usemtl Material__45
s 32
f 33/35/33 34/36/34 35/37/35 36/38/36 
s 64
f 34/35/34 37/39/37 38/40/38 35/38/35 
s 2
f 37/41/37 34/37/34 33/38/33 39/42/39 
s 4
f 40/41/40 36/37/36 35/38/35 38/42/38 
s 16
f 39/43/39 33/36/33 36/37/36 40/44/40 
s off
f 39/42/39 40/44/40 38/42/38 37/39/37 
# 6 polygons

#
# object Box024
#

v  1603.5542 -12.8037 -1033.6019
v  1603.5542 -12.8037 -1013.2186
v  1603.5542 398.9070 -1013.2186
v  1603.5542 398.9070 -1033.6019
v  1781.0093 -12.8037 -1013.2186
v  1781.0093 398.9070 -1013.2186
v  1801.6118 -12.8037 -1013.2186
v  1781.0093 -12.8037 -1033.6021
v  1801.6118 -12.8037 -1033.6021
v  1801.6118 398.9070 -1033.6021
v  1781.0093 398.9070 -1033.6021
v  1801.6118 398.9070 -1013.2186
v  1801.6118 398.9070 -1145.9976
v  1781.0093 398.9070 -1145.9976
v  1801.6118 -12.8037 -1145.9976
v  1781.0093 -12.8037 -1145.9976
# 16 vertices

vn -0.5773 -0.5773 -0.5774
vn -0.5774 -0.5774 0.5773
vn -0.5774 0.5774 0.5773
vn -0.5773 0.5773 -0.5774
vn 0.0000 -0.7071 0.7071
vn -0.0000 0.7071 0.7071
vn 0.5774 -0.5774 0.5774
vn -0.3015 -0.9045 -0.3015
vn 0.7071 -0.7071 -0.0000
vn 0.7071 0.7071 -0.0000
vn -0.3015 0.9045 -0.3015
vn 0.5774 0.5774 0.5774
vn 0.5774 0.5774 -0.5774
vn -0.5774 0.5774 -0.5774
vn 0.5774 -0.5774 -0.5774
vn -0.5774 -0.5774 -0.5774
# 16 vertex normals

vt 0.0000 0.0000 0.0000
vt 1.0000 0.0000 0.0000
vt 1.0000 1.0000 0.0000
vt 0.0000 1.0000 0.0000
vt 0.0353 0.0000 0.0000
vt 0.0353 1.0000 0.0000
vt 1.0000 0.9581 0.0000
vt 1.0000 0.9647 0.0000
vt 0.0000 0.9647 0.0000
vt 0.0000 0.9581 0.0000
vt 0.9581 1.0000 0.0000
vt 0.0419 0.0000 0.0000
vt 0.0419 1.0000 0.0000
vt 0.9647 0.0000 0.0000
vt 0.9647 1.0000 0.0000
# 15 texture coords

o Box024
g Box024
usemtl Material__45
s 32
f 41/45/41 42/46/42 43/47/43 44/48/44 
s 64
f 42/45/42 45/49/45 46/50/46 43/48/43 
s 2
f 47/51/47 45/52/45 48/53/48 49/54/49 
s 4
f 50/51/50 51/52/51 46/53/46 52/54/52 
s off
f 49/54/49 50/55/50 52/54/52 47/56/47 
s 64
f 45/49/45 47/56/47 52/57/52 46/50/46 
s 2
f 45/52/45 42/47/42 41/48/41 48/53/48 
s 4
f 51/52/51 44/47/44 43/48/43 46/53/46 
s 16
f 48/58/48 41/46/41 44/47/44 51/59/51 
s off
f 51/52/51 50/51/50 53/51/53 54/52/54 
f 50/55/50 49/54/49 55/54/55 53/55/53 
f 49/54/49 48/53/48 56/53/56 55/54/55 
f 48/58/48 51/59/51 54/59/54 56/58/56 
f 53/51/53 55/54/55 56/53/56 54/59/54 
# 14 polygons

#
# object Box025
#

v  1951.3901 -12.8037 -1182.2655
v  1931.0068 -12.8037 -1182.2656
v  1931.0068 398.9070 -1182.2656
v  1951.3901 398.9070 -1182.2655
v  1931.0068 -12.8037 -1043.2782
v  1931.0068 398.9070 -1043.2782
v  1931.0068 -12.8037 -861.1357
v  1931.0068 -12.8037 -1020.6661
v  1951.3901 -12.8037 -1020.6661
v  1951.3901 -12.8037 -861.1357
v  1951.3901 398.9070 -861.1357
v  1951.3901 398.9070 -1020.6661
v  1931.0068 398.9070 -1020.6661
v  1931.0068 398.9070 -861.1357
v  1951.3901 -12.8037 -1043.2781
v  1951.3901 398.9070 -1043.2781
v  2125.1377 -12.8037 -1043.2781
v  2125.1377 -12.8037 -1020.6661
v  2125.1377 398.9070 -1043.2781
v  2125.1377 398.9070 -1020.6661
# 20 vertices

vn 0.5774 -0.5773 -0.5773
vn -0.5773 -0.5774 -0.5774
vn -0.5773 0.5774 -0.5774
vn 0.5774 0.5773 -0.5773
vn -0.7071 -0.7071 -0.0000
vn -0.7071 0.7071 -0.0000
vn -0.5774 -0.5774 0.5774
vn 0.3015 -0.9045 0.3015
vn 0.5774 -0.5774 0.5774
vn 0.5774 0.5774 0.5774
vn 0.3015 0.9045 0.3015
vn -0.5774 0.5774 0.5774
vn 0.3015 -0.9045 -0.3015
vn 0.3015 0.9045 -0.3015
vn 0.5774 -0.5774 -0.5774
vn 0.5774 0.5774 -0.5774
# 16 vertex normals

vt 0.0000 0.0000 0.0000
vt 1.0000 0.0000 0.0000
vt 1.0000 1.0000 0.0000
vt 0.0000 1.0000 0.0000
vt 0.0166 0.0000 0.0000
vt 0.0166 1.0000 0.0000
vt 1.0000 0.9581 0.0000
vt 1.0000 0.9789 0.0000
vt 0.0000 0.9789 0.0000
vt 0.0000 0.9581 0.0000
vt 0.9581 0.0000 0.0000
vt 0.9789 0.0000 0.0000
vt 0.9789 1.0000 0.0000
vt 0.9581 1.0000 0.0000
vt 0.0419 0.0000 0.0000
vt 0.0211 0.0000 0.0000
vt 0.0211 1.0000 0.0000
vt 1.0000 0.9834 0.0000
vt 0.0000 0.9834 0.0000
vt 0.9834 0.0000 0.0000
vt 0.9834 1.0000 0.0000
vt 0.0419 1.0000 0.0000
# 22 texture coords

o Box025
g Box025
usemtl Material__45
s 32
f 57/60/57 58/61/58 59/62/59 60/63/60 
s 64
f 58/60/58 61/64/61 62/65/62 59/63/59 
s 2
f 63/66/63 64/67/61 65/68/64 66/69/65 
s 4
f 67/66/66 68/67/67 69/68/62 70/69/68 
s 16
f 66/70/65 65/71/64 68/72/67 67/73/66 
s off
f 66/69/65 67/73/66 70/69/68 63/74/63 
s 64
f 61/64/61 64/75/61 69/76/62 62/65/62 
s 2
f 61/77/61 58/62/58 57/63/57 71/78/69 
s 4
f 72/77/70 60/62/60 59/63/59 62/78/62 
s 16
f 71/79/69 57/61/57 60/62/60 72/80/70 
s 2
f 64/67/61 61/77/61 71/78/69 65/68/64 
s 4
f 68/67/67 72/77/70 62/78/62 69/68/62 
s 64
f 64/75/61 63/74/63 70/81/68 69/76/62 
s off
f 65/68/64 71/78/69 73/78/71 74/68/65 
f 71/79/69 72/80/70 75/80/72 73/79/71 
f 72/77/70 68/67/67 76/67/66 75/77/72 
f 68/72/67 65/71/64 74/71/65 76/72/66 
f 73/78/71 75/80/72 76/67/66 74/71/65 
# 18 polygons

#
# object Box026
#

v  1801.9731 -12.8037 -1284.2800
v  1801.9730 -12.8037 -1263.8967
v  1801.9730 398.9070 -1263.8967
v  1801.9731 398.9070 -1284.2800
v  2063.0818 -12.8037 -1263.8967
v  2063.0818 398.9070 -1263.8967
v  2063.0818 -12.8037 -1284.2800
v  2063.0818 398.9070 -1284.2800
# 8 vertices

vn -0.5773 -0.5773 -0.5774
vn -0.5774 -0.5774 0.5773
vn -0.5774 0.5774 0.5773
vn -0.5773 0.5773 -0.5774
vn 0.5774 -0.5774 0.5774
vn 0.5774 0.5774 0.5773
vn 0.5774 -0.5774 -0.5774
vn 0.5774 0.5774 -0.5774
# 8 vertex normals

vt 0.0000 0.0000 0.0000
vt 1.0000 0.0000 0.0000
vt 1.0000 1.0000 0.0000
vt 0.0000 1.0000 0.0000
vt 0.0419 0.0000 0.0000
vt 0.0419 1.0000 0.0000
vt 1.0000 0.9581 0.0000
vt 0.0000 0.9581 0.0000
vt 0.9581 0.0000 0.0000
vt 0.9581 1.0000 0.0000
# 10 texture coords

o Box026
g Box026
usemtl Material__45
s 32
f 77/82/73 78/83/74 79/84/75 80/85/76 
s 64
f 78/82/74 81/86/77 82/87/78 79/85/75 
s 2
f 81/88/77 78/84/74 77/85/73 83/89/79 
s 4
f 84/88/80 80/84/76 79/85/75 82/89/78 
s 16
f 83/90/79 77/83/73 80/84/76 84/91/80 
s off
f 83/89/79 84/91/80 82/89/78 81/86/77 
# 6 polygons

#
# object Box027
#

v  2076.6499 -12.8037 -1416.9287
v  2056.2666 -12.8037 -1416.9287
v  2056.2666 398.9070 -1416.9287
v  2076.6499 398.9070 -1416.9287
v  2056.2666 -12.8037 -1174.0863
v  2056.2666 398.9070 -1174.0863
v  2076.6499 -12.8037 -1174.0863
v  2076.6499 398.9070 -1174.0863
# 8 vertices

vn 0.5774 -0.5773 -0.5773
vn -0.5773 -0.5774 -0.5774
vn -0.5773 0.5774 -0.5774
vn 0.5774 0.5773 -0.5773
vn -0.5774 -0.5774 0.5774
vn -0.5773 0.5774 0.5774
vn 0.5774 -0.5774 0.5774
vn 0.5774 0.5774 0.5774
# 8 vertex normals

vt 0.0000 0.0000 0.0000
vt 1.0000 0.0000 0.0000
vt 1.0000 1.0000 0.0000
vt 0.0000 1.0000 0.0000
vt 0.0419 0.0000 0.0000
vt 0.0419 1.0000 0.0000
vt 1.0000 0.9581 0.0000
vt 0.0000 0.9581 0.0000
vt 0.9581 0.0000 0.0000
vt 0.9581 1.0000 0.0000
# 10 texture coords

o Box027
g Box027
usemtl Material__45
s 32
f 85/92/81 86/93/82 87/94/83 88/95/84 
s 64
f 86/92/82 89/96/85 90/97/86 87/95/83 
s 2
f 89/98/85 86/94/82 85/95/81 91/99/87 
s 4
f 92/98/88 88/94/84 87/95/83 90/99/86 
s 16
f 91/100/87 85/93/81 88/94/84 92/101/88 
s off
f 91/99/87 92/101/88 90/99/86 89/96/85 
# 6 polygons

#
# object Box028
#

v  2058.4216 -12.8037 -1195.7510
v  2058.4214 -12.8037 -1175.3677
v  2058.4214 398.9070 -1175.3677
v  2058.4216 398.9070 -1195.7510
v  2251.3364 -12.8037 -1175.3677
v  2251.3364 398.9070 -1175.3677
v  2251.3364 -12.8037 -1195.7510
v  2251.3364 398.9070 -1195.7510
# 8 vertices

vn -0.5773 -0.5773 -0.5774
vn -0.5774 -0.5774 0.5773
vn -0.5774 0.5774 0.5773
vn -0.5773 0.5773 -0.5774
vn 0.5774 -0.5774 0.5774
vn 0.5774 0.5774 0.5773
vn 0.5774 -0.5774 -0.5774
vn 0.5774 0.5774 -0.5774
# 8 vertex normals

vt 0.0000 0.0000 0.0000
vt 1.0000 0.0000 0.0000
vt 1.0000 1.0000 0.0000
vt 0.0000 1.0000 0.0000
vt 0.0419 0.0000 0.0000
vt 0.0419 1.0000 0.0000
vt 1.0000 0.9581 0.0000
vt 0.0000 0.9581 0.0000
vt 0.9581 0.0000 0.0000
vt 0.9581 1.0000 0.0000
# 10 texture coords

o Box028
g Box028
usemtl Material__45
s 32
f 93/102/89 94/103/90 95/104/91 96/105/92 
s 64
f 94/102/90 97/106/93 98/107/94 95/105/91 
s 2
f 97/108/93 94/104/90 93/105/89 99/109/95 
s 4
f 100/108/96 96/104/92 95/105/91 98/109/94 
s 16
f 99/110/95 93/103/89 96/104/92 100/111/96 
s off
f 99/109/95 100/111/96 98/109/94 97/106/93 
# 6 polygons

#
# object Box029
#

v  2241.8350 -12.8037 -1199.1318
v  2221.4517 -12.8037 -1199.1318
v  2221.4517 398.9070 -1199.1318
v  2241.8350 398.9070 -1199.1318
v  2221.4517 -12.8037 -1000.3578
v  2221.4517 398.9070 -1000.3578
v  2241.8350 -12.8037 -1000.3578
v  2241.8350 398.9070 -1000.3578
# 8 vertices

vn 0.5774 -0.5774 -0.5774
vn -0.5774 -0.5774 -0.5774
vn -0.5774 0.5774 -0.5774
vn 0.5774 0.5774 -0.5774
vn -0.5774 -0.5774 0.5774
vn -0.5774 0.5774 0.5774
vn 0.5774 -0.5774 0.5774
vn 0.5774 0.5774 0.5774
# 8 vertex normals

vt 0.0000 0.0000 0.0000
vt 1.0000 0.0000 0.0000
vt 1.0000 1.0000 0.0000
vt 0.0000 1.0000 0.0000
vt 0.0419 0.0000 0.0000
vt 0.0419 1.0000 0.0000
vt 1.0000 0.9581 0.0000
vt 0.0000 0.9581 0.0000
vt 0.9581 0.0000 0.0000
vt 0.9581 1.0000 0.0000
# 10 texture coords

o Box029
g Box029
usemtl Material__45
s 32
f 101/112/97 102/113/98 103/114/99 104/115/100 
s 64
f 102/112/98 105/116/101 106/117/102 103/115/99 
s 2
f 105/118/101 102/114/98 101/115/97 107/119/103 
s 4
f 108/118/104 104/114/100 103/115/99 106/119/102 
s 16
f 107/120/103 101/113/97 104/114/100 108/121/104 
s off
f 107/119/103 108/121/104 106/119/102 105/116/101 
# 6 polygons

#
# object Box030
#

v  2230.8801 -12.8037 -1017.9283
v  2230.8801 -12.8037 -997.5450
v  2230.8801 398.9070 -997.5450
v  2230.8801 398.9070 -1017.9283
v  2426.8545 -12.8037 -997.5450
v  2426.8545 398.9070 -997.5450
v  2426.8545 -12.8037 -1017.9284
v  2426.8545 398.9070 -1017.9284
# 8 vertices

vn -0.5773 -0.5773 -0.5774
vn -0.5774 -0.5774 0.5773
vn -0.5774 0.5774 0.5773
vn -0.5773 0.5773 -0.5774
vn 0.5774 -0.5774 0.5774
vn 0.5774 0.5774 0.5773
vn 0.5774 -0.5774 -0.5774
vn 0.5774 0.5774 -0.5774
# 8 vertex normals

vt 0.0000 0.0000 0.0000
vt 1.0000 0.0000 0.0000
vt 1.0000 1.0000 0.0000
vt 0.0000 1.0000 0.0000
vt 0.0419 0.0000 0.0000
vt 0.0419 1.0000 0.0000
vt 1.0000 0.9581 0.0000
vt 0.0000 0.9581 0.0000
vt 0.9581 0.0000 0.0000
vt 0.9581 1.0000 0.0000
# 10 texture coords

o Box030
g Box030
usemtl Material__45
s 32
f 109/122/105 110/123/106 111/124/107 112/125/108 
s 64
f 110/122/106 113/126/109 114/127/110 111/125/107 
s 2
f 113/128/109 110/124/106 109/125/105 115/129/111 
s 4
f 116/128/112 112/124/108 111/125/107 114/129/110 
s 16
f 115/130/111 109/123/105 112/124/108 116/131/112 
s off
f 115/129/111 116/131/112 114/129/110 113/126/109 
# 6 polygons

#
# object Box031
#

v  2426.4629 -12.8037 -1019.2109
v  2406.0796 -12.8037 -1019.2109
v  2406.0796 398.9070 -1019.2109
v  2426.4629 398.9070 -1019.2109
v  2406.0796 -12.8037 -851.7994
v  2406.0796 398.9070 -851.7994
v  2426.4629 -12.8037 -851.7994
v  2426.4629 398.9070 -851.7994
# 8 vertices

vn 0.5774 -0.5774 -0.5774
vn -0.5774 -0.5774 -0.5774
vn -0.5774 0.5774 -0.5774
vn 0.5774 0.5774 -0.5774
vn -0.5774 -0.5774 0.5774
vn -0.5774 0.5774 0.5774
vn 0.5774 -0.5774 0.5774
vn 0.5774 0.5774 0.5774
# 8 vertex normals

vt 0.0000 0.0000 0.0000
vt 1.0000 0.0000 0.0000
vt 1.0000 1.0000 0.0000
vt 0.0000 1.0000 0.0000
vt 0.0419 0.0000 0.0000
vt 0.0419 1.0000 0.0000
vt 1.0000 0.9581 0.0000
vt 0.0000 0.9581 0.0000
vt 0.9581 0.0000 0.0000
vt 0.9581 1.0000 0.0000
# 10 texture coords

o Box031
g Box031
usemtl Material__45
s 32
f 117/132/113 118/133/114 119/134/115 120/135/116 
s 64
f 118/132/114 121/136/117 122/137/118 119/135/115 
s 2
f 121/138/117 118/134/114 117/135/113 123/139/119 
s 4
f 124/138/120 120/134/116 119/135/115 122/139/118 
s 16
f 123/140/119 117/133/113 120/134/116 124/141/120 
s off
f 123/139/119 124/141/120 122/139/118 121/136/117 
# 6 polygons

#
# object Box032
#

v  2055.7952 -12.8037 -1419.1783
v  2055.7949 -12.8037 -1398.7950
v  2055.7949 398.9070 -1398.7950
v  2055.7952 398.9070 -1419.1783
v  2295.9785 -12.8037 -1398.7950
v  2295.9785 398.9070 -1398.7950
v  2295.9785 -12.8037 -1419.1785
v  2295.9785 398.9070 -1419.1785
# 8 vertices

vn -0.5773 -0.5773 -0.5774
vn -0.5774 -0.5774 0.5773
vn -0.5774 0.5774 0.5773
vn -0.5773 0.5773 -0.5774
vn 0.5774 -0.5774 0.5774
vn 0.5774 0.5774 0.5773
vn 0.5774 -0.5774 -0.5774
vn 0.5774 0.5774 -0.5774
# 8 vertex normals

vt 0.0000 0.0000 0.0000
vt 1.0000 0.0000 0.0000
vt 1.0000 1.0000 0.0000
vt 0.0000 1.0000 0.0000
vt 0.0419 0.0000 0.0000
vt 0.0419 1.0000 0.0000
vt 1.0000 0.9581 0.0000
vt 0.0000 0.9581 0.0000
vt 0.9581 0.0000 0.0000
vt 0.9581 1.0000 0.0000
# 10 texture coords

o Box032
g Box032
usemtl Material__45
s 32
f 125/142/121 126/143/122 127/144/123 128/145/124 
s 64
f 126/142/122 129/146/125 130/147/126 127/145/123 
s 2
f 129/148/125 126/144/122 125/145/121 131/149/127 
s 4
f 132/148/128 128/144/124 127/145/123 130/149/126 
s 16
f 131/150/127 125/143/121 128/144/124 132/151/128 
s off
f 131/149/127 132/151/128 130/149/126 129/146/125 
# 6 polygons

#
# object Box033
#

v  1762.5519 -12.8037 -1618.4551
v  1762.5518 -12.8037 -1598.0718
v  1762.5518 398.9070 -1598.0718
v  1762.5519 398.9070 -1618.4551
v  1996.9325 -12.8037 -1598.0718
v  1996.9325 398.9070 -1598.0718
v  1996.9325 -12.8037 -1618.4552
v  1996.9325 398.9070 -1618.4552
# 8 vertices

vn -0.5773 -0.5773 -0.5774
vn -0.5774 -0.5774 0.5773
vn -0.5774 0.5774 0.5773
vn -0.5773 0.5773 -0.5774
vn 0.5774 -0.5774 0.5774
vn 0.5774 0.5774 0.5773
vn 0.5774 -0.5774 -0.5774
vn 0.5774 0.5774 -0.5774
# 8 vertex normals

vt 0.0000 0.0000 0.0000
vt 1.0000 0.0000 0.0000
vt 1.0000 1.0000 0.0000
vt 0.0000 1.0000 0.0000
vt 0.0419 0.0000 0.0000
vt 0.0419 1.0000 0.0000
vt 1.0000 0.9581 0.0000
vt 0.0000 0.9581 0.0000
vt 0.9581 0.0000 0.0000
vt 0.9581 1.0000 0.0000
# 10 texture coords

o Box033
g Box033
usemtl Material__45
s 32
f 133/152/129 134/153/130 135/154/131 136/155/132 
s 64
f 134/152/130 137/156/133 138/157/134 135/155/131 
s 2
f 137/158/133 134/154/130 133/155/129 139/159/135 
s 4
f 140/158/136 136/154/132 135/155/131 138/159/134 
s 16
f 139/160/135 133/153/129 136/154/132 140/161/136 
s off
f 139/159/135 140/161/136 138/159/134 137/156/133 
# 6 polygons

#
# object Box034
#

v  1778.7466 -12.8037 -1837.8986
v  1758.3633 -12.8037 -1837.8987
v  1758.3633 398.9070 -1837.8987
v  1778.7466 398.9070 -1837.8986
v  1758.3633 -12.8037 -1595.0562
v  1758.3633 398.9070 -1595.0562
v  1778.7466 -12.8037 -1595.0562
v  1778.7466 398.9070 -1595.0562
# 8 vertices

vn 0.5774 -0.5773 -0.5773
vn -0.5773 -0.5774 -0.5774
vn -0.5773 0.5774 -0.5774
vn 0.5774 0.5773 -0.5773
vn -0.5774 -0.5774 0.5774
vn -0.5773 0.5774 0.5774
vn 0.5774 -0.5774 0.5774
vn 0.5774 0.5774 0.5774
# 8 vertex normals

vt 0.0000 0.0000 0.0000
vt 1.0000 0.0000 0.0000
vt 1.0000 1.0000 0.0000
vt 0.0000 1.0000 0.0000
vt 0.0419 0.0000 0.0000
vt 0.0419 1.0000 0.0000
vt 1.0000 0.9581 0.0000
vt 0.0000 0.9581 0.0000
vt 0.9581 0.0000 0.0000
vt 0.9581 1.0000 0.0000
# 10 texture coords

o Box034
g Box034
usemtl Material__45
s 32
f 141/162/137 142/163/138 143/164/139 144/165/140 
s 64
f 142/162/138 145/166/141 146/167/142 143/165/139 
s 2
f 145/168/141 142/164/138 141/165/137 147/169/143 
s 4
f 148/168/144 144/164/140 143/165/139 146/169/142 
s 16
f 147/170/143 141/163/137 144/164/140 148/171/144 
s off
f 147/169/143 148/171/144 146/169/142 145/166/141 
# 6 polygons

#
# object Box035
#

v  1996.8381 -12.8037 -1618.8960
v  1976.4548 -12.8037 -1618.8960
v  1976.4548 398.9070 -1618.8960
v  1996.8381 398.9070 -1618.8960
v  1976.4548 -12.8037 -1478.1906
v  1976.4548 398.9070 -1478.1906
v  1996.8381 -12.8037 -1478.1906
v  1996.8381 398.9070 -1478.1906
# 8 vertices

vn 0.5774 -0.5773 -0.5773
vn -0.5773 -0.5774 -0.5774
vn -0.5773 0.5774 -0.5774
vn 0.5774 0.5773 -0.5773
vn -0.5774 -0.5774 0.5774
vn -0.5774 0.5774 0.5774
vn 0.5774 -0.5774 0.5774
vn 0.5774 0.5774 0.5774
# 8 vertex normals

vt 0.0000 0.0000 0.0000
vt 1.0000 0.0000 0.0000
vt 1.0000 1.0000 0.0000
vt 0.0000 1.0000 0.0000
vt 0.0419 0.0000 0.0000
vt 0.0419 1.0000 0.0000
vt 1.0000 0.9581 0.0000
vt 0.0000 0.9581 0.0000
vt 0.9581 0.0000 0.0000
vt 0.9581 1.0000 0.0000
# 10 texture coords

o Box035
g Box035
usemtl Material__45
s 32
f 149/172/145 150/173/146 151/174/147 152/175/148 
s 64
f 150/172/146 153/176/149 154/177/150 151/175/147 
s 2
f 153/178/149 150/174/146 149/175/145 155/179/151 
s 4
f 156/178/152 152/174/148 151/175/147 154/179/150 
s 16
f 155/180/151 149/173/145 152/174/148 156/181/152 
s off
f 155/179/151 156/181/152 154/179/150 153/176/149 
# 6 polygons

#
# object Box036
#

v  1801.4182 -12.8037 -1492.9902
v  1801.4181 -12.8037 -1472.6069
v  1801.4181 398.9070 -1472.6069
v  1801.4182 398.9070 -1492.9902
v  1994.3331 -12.8037 -1472.6069
v  1994.3331 398.9070 -1472.6069
v  1994.3331 -12.8037 -1492.9902
v  1994.3331 398.9070 -1492.9902
# 8 vertices

vn -0.5773 -0.5773 -0.5774
vn -0.5774 -0.5774 0.5773
vn -0.5774 0.5774 0.5773
vn -0.5773 0.5773 -0.5774
vn 0.5774 -0.5774 0.5774
vn 0.5774 0.5774 0.5773
vn 0.5774 -0.5774 -0.5774
vn 0.5774 0.5774 -0.5774
# 8 vertex normals

vt 0.0000 0.0000 0.0000
vt 1.0000 0.0000 0.0000
vt 1.0000 1.0000 0.0000
vt 0.0000 1.0000 0.0000
vt 0.0419 0.0000 0.0000
vt 0.0419 1.0000 0.0000
vt 1.0000 0.9581 0.0000
vt 0.0000 0.9581 0.0000
vt 0.9581 0.0000 0.0000
vt 0.9581 1.0000 0.0000
# 10 texture coords

o Box036
g Box036
usemtl Material__45
s 32
f 157/182/153 158/183/154 159/184/155 160/185/156 
s 64
f 158/182/154 161/186/157 162/187/158 159/185/155 
s 2
f 161/188/157 158/184/154 157/185/153 163/189/159 
s 4
f 164/188/160 160/184/156 159/185/155 162/189/158 
s 16
f 163/190/159 157/183/153 160/184/156 164/191/160 
s off
f 163/189/159 164/191/160 162/189/158 161/186/157 
# 6 polygons

#
# object Box037
#

v  1622.1838 -12.8037 -1393.4624
v  1622.1837 -12.8037 -1373.0791
v  1622.1837 398.9070 -1373.0791
v  1622.1838 398.9070 -1393.4624
v  1871.3481 -12.8037 -1373.0791
v  1871.3481 398.9070 -1373.0791
v  1871.3481 -12.8037 -1393.4624
v  1871.3481 398.9070 -1393.4624
# 8 vertices

vn -0.5773 -0.5773 -0.5774
vn -0.5774 -0.5774 0.5773
vn -0.5774 0.5774 0.5773
vn -0.5773 0.5773 -0.5774
vn 0.5774 -0.5774 0.5774
vn 0.5774 0.5774 0.5773
vn 0.5774 -0.5774 -0.5774
vn 0.5774 0.5774 -0.5774
# 8 vertex normals

vt 0.0000 0.0000 0.0000
vt 1.0000 0.0000 0.0000
vt 1.0000 1.0000 0.0000
vt 0.0000 1.0000 0.0000
vt 0.0419 0.0000 0.0000
vt 0.0419 1.0000 0.0000
vt 1.0000 0.9581 0.0000
vt 0.0000 0.9581 0.0000
vt 0.9581 0.0000 0.0000
vt 0.9581 1.0000 0.0000
# 10 texture coords

o Box037
g Box037
usemtl Material__45
s 32
f 165/192/161 166/193/162 167/194/163 168/195/164 
s 64
f 166/192/162 169/196/165 170/197/166 167/195/163 
s 2
f 169/198/165 166/194/162 165/195/161 171/199/167 
s 4
f 172/198/168 168/194/164 167/195/163 170/199/166 
s 16
f 171/200/167 165/193/161 168/194/164 172/201/168 
s off
f 171/199/167 172/201/168 170/199/166 169/196/165 
# 6 polygons

#
# object Box038
#

v  1662.2181 36.9263 -1738.3683
v  1662.2181 36.9263 -1805.2510
v  1726.4583 36.9263 -1805.2510
v  1726.4583 36.9263 -1738.3683
v  1662.2181 126.1056 -1738.3683
v  1726.4583 126.1056 -1738.3683
v  1726.4583 126.1056 -1805.2510
v  1662.2181 126.1056 -1805.2510
# 8 vertices

vn -0.5774 -0.5774 0.5774
vn -0.5774 -0.5774 -0.5774
vn 0.5774 -0.5774 -0.5774
vn 0.5774 -0.5774 0.5774
vn -0.5774 0.5774 0.5774
vn 0.5774 0.5774 0.5774
vn 0.5774 0.5774 -0.5774
vn -0.5774 0.5774 -0.5774
# 8 vertex normals

vt 1.0000 0.0000 0.0000
vt 1.0000 1.0000 0.0000
vt 0.0000 1.0000 0.0000
vt 0.0000 0.0000 0.0000
# 4 texture coords

o Box038
g Box038
usemtl Material__173
s 2
f 173/202/169 174/203/170 175/204/171 176/205/172 
s 4
f 177/205/173 178/202/174 179/203/175 180/204/176 
s 8
f 173/205/169 176/202/172 178/203/174 177/204/173 
s 16
f 176/205/172 175/202/171 179/203/175 178/204/174 
s 32
f 175/205/171 174/202/170 180/203/176 179/204/175 
s 64
f 174/205/170 173/202/169 177/203/173 180/204/176 
# 6 polygons

#
# object Box039
#

v  1927.4861 -12.8037 -1744.3286
v  1927.4860 -12.8037 -1723.9453
v  1927.4860 398.9070 -1723.9453
v  1927.4861 398.9070 -1744.3286
v  2120.4009 -12.8037 -1723.9453
v  2120.4009 398.9070 -1723.9453
v  2120.4009 -12.8037 -1744.3286
v  2120.4009 398.9070 -1744.3286
# 8 vertices

vn -0.5773 -0.5773 -0.5774
vn -0.5774 -0.5774 0.5773
vn -0.5774 0.5774 0.5773
vn -0.5773 0.5773 -0.5774
vn 0.5774 -0.5774 0.5774
vn 0.5774 0.5774 0.5773
vn 0.5774 -0.5774 -0.5774
vn 0.5774 0.5774 -0.5774
# 8 vertex normals

vt 0.0000 0.0000 0.0000
vt 1.0000 0.0000 0.0000
vt 1.0000 1.0000 0.0000
vt 0.0000 1.0000 0.0000
vt 0.0419 0.0000 0.0000
vt 0.0419 1.0000 0.0000
vt 1.0000 0.9581 0.0000
vt 0.0000 0.9581 0.0000
vt 0.9581 0.0000 0.0000
vt 0.9581 1.0000 0.0000
# 10 texture coords

o Box039
g Box039
usemtl Material__45
s 32
f 181/206/177 182/207/178 183/208/179 184/209/180 
s 64
f 182/206/178 185/210/181 186/211/182 183/209/179 
s 2
f 185/212/181 182/208/178 181/209/177 187/213/183 
s 4
f 188/212/184 184/208/180 183/209/179 186/213/182 
s 16
f 187/214/183 181/207/177 184/208/180 188/215/184 
s off
f 187/213/183 188/215/184 186/213/182 185/210/181 
# 6 polygons

#
# object Box040
#

v  2122.1599 -12.8037 -1746.1890
v  2101.7766 -12.8037 -1746.1890
v  2101.7766 398.9070 -1746.1890
v  2122.1599 398.9070 -1746.1890
v  2101.7766 -12.8037 -1547.8502
v  2101.7766 398.9070 -1547.8502
v  2122.1599 -12.8037 -1547.8502
v  2122.1599 398.9070 -1547.8502
# 8 vertices

vn 0.5774 -0.5773 -0.5773
vn -0.5773 -0.5774 -0.5774
vn -0.5773 0.5774 -0.5774
vn 0.5774 0.5773 -0.5773
vn -0.5774 -0.5774 0.5774
vn -0.5774 0.5774 0.5774
vn 0.5774 -0.5774 0.5774
vn 0.5774 0.5774 0.5774
# 8 vertex normals

vt 0.0000 0.0000 0.0000
vt 1.0000 0.0000 0.0000
vt 1.0000 1.0000 0.0000
vt 0.0000 1.0000 0.0000
vt 0.0419 0.0000 0.0000
vt 0.0419 1.0000 0.0000
vt 1.0000 0.9581 0.0000
vt 0.0000 0.9581 0.0000
vt 0.9581 0.0000 0.0000
vt 0.9581 1.0000 0.0000
# 10 texture coords

o Box040
g Box040
usemtl Material__45
s 32
f 189/216/185 190/217/186 191/218/187 192/219/188 
s 64
f 190/216/186 193/220/189 194/221/190 191/219/187 
s 2
f 193/222/189 190/218/186 189/219/185 195/223/191 
s 4
f 196/222/192 192/218/188 191/219/187 194/223/190 
s 16
f 195/224/191 189/217/185 192/218/188 196/225/192 
s off
f 195/223/191 196/225/192 194/223/190 193/220/189 
# 6 polygons

#
# object Box041
#

v  2101.5398 -12.8037 -1559.4681
v  2101.5396 -12.8037 -1539.0848
v  2101.5396 398.9070 -1539.0848
v  2101.5398 398.9070 -1559.4681
v  2294.4546 -12.8037 -1539.0848
v  2294.4546 398.9070 -1539.0848
v  2294.4546 -12.8037 -1559.4683
v  2294.4546 398.9070 -1559.4683
# 8 vertices

vn -0.5773 -0.5773 -0.5774
vn -0.5774 -0.5774 0.5773
vn -0.5774 0.5774 0.5773
vn -0.5773 0.5773 -0.5774
vn 0.5774 -0.5774 0.5774
vn 0.5774 0.5774 0.5773
vn 0.5774 -0.5774 -0.5774
vn 0.5774 0.5774 -0.5774
# 8 vertex normals

vt 0.0000 0.0000 0.0000
vt 1.0000 0.0000 0.0000
vt 1.0000 1.0000 0.0000
vt 0.0000 1.0000 0.0000
vt 0.0419 0.0000 0.0000
vt 0.0419 1.0000 0.0000
vt 1.0000 0.9581 0.0000
vt 0.0000 0.9581 0.0000
vt 0.9581 0.0000 0.0000
vt 0.9581 1.0000 0.0000
# 10 texture coords

o Box041
g Box041
usemtl Material__45
s 32
f 197/226/193 198/227/194 199/228/195 200/229/196 
s 64
f 198/226/194 201/230/197 202/231/198 199/229/195 
s 2
f 201/232/197 198/228/194 197/229/193 203/233/199 
s 4
f 204/232/200 200/228/196 199/229/195 202/233/198 
s 16
f 203/234/199 197/227/193 200/228/196 204/235/200 
s off
f 203/233/199 204/235/200 202/233/198 201/230/197 
# 6 polygons

#
# object Box042
#

v  2294.6348 -12.8037 -1556.8716
v  2274.2515 -12.8037 -1556.8718
v  2274.2515 398.9070 -1556.8718
v  2294.6348 398.9070 -1556.8716
v  2274.2515 -12.8037 -1404.5745
v  2274.2515 398.9070 -1404.5745
v  2294.6348 -12.8037 -1404.5745
v  2294.6348 398.9070 -1404.5745
# 8 vertices

vn 0.5774 -0.5773 -0.5773
vn -0.5773 -0.5774 -0.5774
vn -0.5773 0.5774 -0.5774
vn 0.5774 0.5773 -0.5773
vn -0.5774 -0.5774 0.5774
vn -0.5774 0.5774 0.5774
vn 0.5774 -0.5774 0.5774
vn 0.5774 0.5774 0.5774
# 8 vertex normals

vt 0.0000 0.0000 0.0000
vt 1.0000 0.0000 0.0000
vt 1.0000 1.0000 0.0000
vt 0.0000 1.0000 0.0000
vt 0.0419 0.0000 0.0000
vt 0.0419 1.0000 0.0000
vt 1.0000 0.9581 0.0000
vt 0.0000 0.9581 0.0000
vt 0.9581 0.0000 0.0000
vt 0.9581 1.0000 0.0000
# 10 texture coords

o Box042
g Box042
usemtl Material__45
s 32
f 205/236/201 206/237/202 207/238/203 208/239/204 
s 64
f 206/236/202 209/240/205 210/241/206 207/239/203 
s 2
f 209/242/205 206/238/202 205/239/201 211/243/207 
s 4
f 212/242/208 208/238/204 207/239/203 210/243/206 
s 16
f 211/244/207 205/237/201 208/238/204 212/245/208 
s off
f 211/243/207 212/245/208 210/243/206 209/240/205 
# 6 polygons

#
# object Box043
#

v  2195.0613 36.9263 -1446.6724
v  2195.0613 36.9263 -1513.5551
v  2259.3013 36.9263 -1513.5551
v  2259.3013 36.9263 -1446.6724
v  2195.0613 126.1056 -1446.6724
v  2259.3013 126.1056 -1446.6724
v  2259.3013 126.1056 -1513.5551
v  2195.0613 126.1056 -1513.5551
# 8 vertices

vn -0.5774 -0.5774 0.5774
vn -0.5774 -0.5774 -0.5774
vn 0.5774 -0.5774 -0.5774
vn 0.5774 -0.5774 0.5774
vn -0.5774 0.5774 0.5774
vn 0.5774 0.5774 0.5774
vn 0.5774 0.5774 -0.5774
vn -0.5774 0.5774 -0.5774
# 8 vertex normals

vt 1.0000 0.0000 0.0000
vt 1.0000 1.0000 0.0000
vt 0.0000 1.0000 0.0000
vt 0.0000 0.0000 0.0000
# 4 texture coords

o Box043
g Box043
usemtl Material__173
s 2
f 213/246/209 214/247/210 215/248/211 216/249/212 
s 4
f 217/249/213 218/246/214 219/247/215 220/248/216 
s 8
f 213/249/209 216/246/212 218/247/214 217/248/213 
s 16
f 216/249/212 215/246/211 219/247/215 218/248/214 
s 32
f 215/249/211 214/246/210 220/247/216 219/248/215 
s 64
f 214/249/210 213/246/209 217/247/213 220/248/216 
# 6 polygons

#
# object Box044
#

v  2284.1313 -12.8037 -1841.0808
v  2263.7480 -12.8037 -1841.0808
v  2263.7480 398.9070 -1841.0808
v  2284.1313 398.9070 -1841.0808
v  2263.7480 -12.8037 -1659.3923
v  2263.7480 398.9070 -1659.3923
v  2284.1313 -12.8037 -1659.3923
v  2284.1313 398.9070 -1659.3923
# 8 vertices

vn 0.5774 -0.5773 -0.5773
vn -0.5773 -0.5774 -0.5774
vn -0.5773 0.5774 -0.5774
vn 0.5774 0.5773 -0.5773
vn -0.5774 -0.5774 0.5774
vn -0.5774 0.5774 0.5774
vn 0.5774 -0.5774 0.5774
vn 0.5774 0.5774 0.5774
# 8 vertex normals

vt 0.0000 0.0000 0.0000
vt 1.0000 0.0000 0.0000
vt 1.0000 1.0000 0.0000
vt 0.0000 1.0000 0.0000
vt 0.0419 0.0000 0.0000
vt 0.0419 1.0000 0.0000
vt 1.0000 0.9581 0.0000
vt 0.0000 0.9581 0.0000
vt 0.9581 0.0000 0.0000
vt 0.9581 1.0000 0.0000
# 10 texture coords

o Box044
g Box044
usemtl Material__45
s 32
f 221/250/217 222/251/218 223/252/219 224/253/220 
s 64
f 222/250/218 225/254/221 226/255/222 223/253/219 
s 2
f 225/256/221 222/252/218 221/253/217 227/257/223 
s 4
f 228/256/224 224/252/220 223/253/219 226/257/222 
s 16
f 227/258/223 221/251/217 224/252/220 228/259/224 
s off
f 227/257/223 228/259/224 226/257/222 225/254/221 
# 6 polygons

#
# object Box045
#

v  2456.4146 -12.8037 -1744.6613
v  2436.0313 -12.8037 -1744.6614
v  2436.0313 398.9070 -1744.6614
v  2456.4146 398.9070 -1744.6613
v  2436.0313 -12.8037 -1546.3225
v  2436.0313 398.9070 -1546.3225
v  2456.4146 -12.8037 -1546.3225
v  2456.4146 398.9070 -1546.3225
# 8 vertices

vn 0.5774 -0.5773 -0.5773
vn -0.5773 -0.5774 -0.5774
vn -0.5773 0.5774 -0.5774
vn 0.5774 0.5773 -0.5773
vn -0.5774 -0.5774 0.5774
vn -0.5774 0.5774 0.5774
vn 0.5774 -0.5774 0.5774
vn 0.5774 0.5774 0.5774
# 8 vertex normals

vt 0.0000 0.0000 0.0000
vt 1.0000 0.0000 0.0000
vt 1.0000 1.0000 0.0000
vt 0.0000 1.0000 0.0000
vt 0.0419 0.0000 0.0000
vt 0.0419 1.0000 0.0000
vt 1.0000 0.9581 0.0000
vt 0.0000 0.9581 0.0000
vt 0.9581 0.0000 0.0000
vt 0.9581 1.0000 0.0000
# 10 texture coords

o Box045
g Box045
usemtl Material__45
s 32
f 229/260/225 230/261/226 231/262/227 232/263/228 
s 64
f 230/260/226 233/264/229 234/265/230 231/263/227 
s 2
f 233/266/229 230/262/226 229/263/225 235/267/231 
s 4
f 236/266/232 232/262/228 231/263/227 234/267/230 
s 16
f 235/268/231 229/261/225 232/262/228 236/269/232 
s off
f 235/267/231 236/269/232 234/267/230 233/264/229 
# 6 polygons

#
# object Box046
#

v  2437.2268 -12.8037 -1742.6013
v  2437.2266 -12.8037 -1722.2180
v  2437.2266 398.9070 -1722.2180
v  2437.2268 398.9070 -1742.6013
v  2603.7368 -12.8037 -1722.2180
v  2603.7368 398.9070 -1722.2180
v  2603.7368 -12.8037 -1742.6013
v  2603.7368 398.9070 -1742.6013
# 8 vertices

vn -0.5773 -0.5773 -0.5774
vn -0.5774 -0.5774 0.5773
vn -0.5774 0.5774 0.5773
vn -0.5773 0.5773 -0.5774
vn 0.5774 -0.5774 0.5774
vn 0.5774 0.5774 0.5773
vn 0.5774 -0.5774 -0.5774
vn 0.5774 0.5774 -0.5774
# 8 vertex normals

vt 0.0000 0.0000 0.0000
vt 1.0000 0.0000 0.0000
vt 1.0000 1.0000 0.0000
vt 0.0000 1.0000 0.0000
vt 0.0419 0.0000 0.0000
vt 0.0419 1.0000 0.0000
vt 1.0000 0.9581 0.0000
vt 0.0000 0.9581 0.0000
vt 0.9581 0.0000 0.0000
vt 0.9581 1.0000 0.0000
# 10 texture coords

o Box046
g Box046
usemtl Material__45
s 32
f 237/270/233 238/271/234 239/272/235 240/273/236 
s 64
f 238/270/234 241/274/237 242/275/238 239/273/235 
s 2
f 241/276/237 238/272/234 237/273/233 243/277/239 
s 4
f 244/276/240 240/272/236 239/273/235 242/277/238 
s 16
f 243/278/239 237/271/233 240/272/236 244/279/240 
s off
f 243/277/239 244/279/240 242/277/238 241/274/237 
# 6 polygons

#
# object Box047
#

v  2608.8530 -12.8037 -1744.6613
v  2588.4697 -12.8037 -1744.6614
v  2588.4697 398.9070 -1744.6614
v  2608.8530 398.9070 -1744.6613
v  2588.4697 -12.8037 -1546.3225
v  2588.4697 398.9070 -1546.3225
v  2608.8530 -12.8037 -1546.3225
v  2608.8530 398.9070 -1546.3225
# 8 vertices

vn 0.5774 -0.5773 -0.5773
vn -0.5773 -0.5774 -0.5774
vn -0.5773 0.5774 -0.5774
vn 0.5774 0.5773 -0.5773
vn -0.5774 -0.5774 0.5774
vn -0.5774 0.5774 0.5774
vn 0.5774 -0.5774 0.5774
vn 0.5774 0.5774 0.5774
# 8 vertex normals

vt 0.0000 0.0000 0.0000
vt 1.0000 0.0000 0.0000
vt 1.0000 1.0000 0.0000
vt 0.0000 1.0000 0.0000
vt 0.0419 0.0000 0.0000
vt 0.0419 1.0000 0.0000
vt 1.0000 0.9581 0.0000
vt 0.0000 0.9581 0.0000
vt 0.9581 0.0000 0.0000
vt 0.9581 1.0000 0.0000
# 10 texture coords

o Box047
g Box047
usemtl Material__45
s 32
f 245/280/241 246/281/242 247/282/243 248/283/244 
s 64
f 246/280/242 249/284/245 250/285/246 247/283/243 
s 2
f 249/286/245 246/282/242 245/283/241 251/287/247 
s 4
f 252/286/248 248/282/244 247/283/243 250/287/246 
s 16
f 251/288/247 245/281/241 248/282/244 252/289/248 
s off
f 251/287/247 252/289/248 250/287/246 249/284/245 
# 6 polygons

#
# object Box048
#

v  2592.7996 -12.8037 -1568.4932
v  2592.7993 -12.8037 -1548.1099
v  2592.7993 398.9070 -1548.1099
v  2592.7996 398.9070 -1568.4932
v  2762.1636 -12.8037 -1548.1099
v  2762.1636 398.9070 -1548.1099
v  2762.1636 -12.8037 -1568.4933
v  2762.1636 398.9070 -1568.4933
# 8 vertices

vn -0.5773 -0.5773 -0.5774
vn -0.5774 -0.5774 0.5773
vn -0.5774 0.5774 0.5773
vn -0.5773 0.5773 -0.5774
vn 0.5774 -0.5774 0.5774
vn 0.5774 0.5774 0.5773
vn 0.5774 -0.5774 -0.5774
vn 0.5774 0.5774 -0.5774
# 8 vertex normals

vt 0.0000 0.0000 0.0000
vt 1.0000 0.0000 0.0000
vt 1.0000 1.0000 0.0000
vt 0.0000 1.0000 0.0000
vt 0.0419 0.0000 0.0000
vt 0.0419 1.0000 0.0000
vt 1.0000 0.9581 0.0000
vt 0.0000 0.9581 0.0000
vt 0.9581 0.0000 0.0000
vt 0.9581 1.0000 0.0000
# 10 texture coords

o Box048
g Box048
usemtl Material__45
s 32
f 253/290/249 254/291/250 255/292/251 256/293/252 
s 64
f 254/290/250 257/294/253 258/295/254 255/293/251 
s 2
f 257/296/253 254/292/250 253/293/249 259/297/255 
s 4
f 260/296/256 256/292/252 255/293/251 258/297/254 
s 16
f 259/298/255 253/291/249 256/292/252 260/299/256 
s off
f 259/297/255 260/299/256 258/297/254 257/294/253 
# 6 polygons

#
# object Box049
#

v  2462.6104 -12.8037 -1428.7147
v  2442.2271 -12.8037 -1428.7148
v  2442.2271 398.9070 -1428.7148
v  2462.6104 398.9070 -1428.7147
v  2442.2271 -12.8037 -1296.6011
v  2442.2271 398.9070 -1296.6011
v  2462.6104 -12.8037 -1296.6011
v  2462.6104 398.9070 -1296.6011
# 8 vertices

vn 0.5774 -0.5773 -0.5773
vn -0.5773 -0.5774 -0.5774
vn -0.5773 0.5774 -0.5774
vn 0.5774 0.5773 -0.5773
vn -0.5774 -0.5774 0.5774
vn -0.5774 0.5774 0.5774
vn 0.5774 -0.5774 0.5774
vn 0.5774 0.5774 0.5774
# 8 vertex normals

vt 0.0000 0.0000 0.0000
vt 1.0000 0.0000 0.0000
vt 1.0000 1.0000 0.0000
vt 0.0000 1.0000 0.0000
vt 0.0419 0.0000 0.0000
vt 0.0419 1.0000 0.0000
vt 1.0000 0.9581 0.0000
vt 0.0000 0.9581 0.0000
vt 0.9581 0.0000 0.0000
vt 0.9581 1.0000 0.0000
# 10 texture coords

o Box049
g Box049
usemtl Material__45
s 32
f 261/300/257 262/301/258 263/302/259 264/303/260 
s 64
f 262/300/258 265/304/261 266/305/262 263/303/259 
s 2
f 265/306/261 262/302/258 261/303/257 267/307/263 
s 4
f 268/306/264 264/302/260 263/303/259 266/307/262 
s 16
f 267/308/263 261/301/257 264/302/260 268/309/264 
s off
f 267/307/263 268/309/264 266/307/262 265/304/261 
# 6 polygons

#
# object Box050
#

v  2272.8496 -12.8037 -1309.1918
v  2272.8496 -12.8037 -1288.8085
v  2272.8496 398.9070 -1288.8085
v  2272.8496 398.9070 -1309.1918
v  2581.5835 -12.8037 -1288.8085
v  2581.5835 398.9070 -1288.8085
v  2581.5835 -12.8037 -1309.1919
v  2581.5835 398.9070 -1309.1919
# 8 vertices

vn -0.5773 -0.5773 -0.5774
vn -0.5774 -0.5774 0.5773
vn -0.5774 0.5774 0.5773
vn -0.5773 0.5773 -0.5774
vn 0.5774 -0.5774 0.5774
vn 0.5774 0.5774 0.5773
vn 0.5774 -0.5774 -0.5774
vn 0.5774 0.5774 -0.5774
# 8 vertex normals

vt 0.0000 0.0000 0.0000
vt 1.0000 0.0000 0.0000
vt 1.0000 1.0000 0.0000
vt 0.0000 1.0000 0.0000
vt 0.0419 0.0000 0.0000
vt 0.0419 1.0000 0.0000
vt 1.0000 0.9581 0.0000
vt 0.0000 0.9581 0.0000
vt 0.9581 0.0000 0.0000
vt 0.9581 1.0000 0.0000
# 10 texture coords

o Box050
g Box050
usemtl Material__45
s 32
f 269/310/265 270/311/266 271/312/267 272/313/268 
s 64
f 270/310/266 273/314/269 274/315/270 271/313/267 
s 2
f 273/316/269 270/312/266 269/313/265 275/317/271 
s 4
f 276/316/272 272/312/268 271/313/267 274/317/270 
s 16
f 275/318/271 269/311/265 272/312/268 276/319/272 
s off
f 275/317/271 276/319/272 274/317/270 273/314/269 
# 6 polygons

#
# object Box051
#

v  2589.4072 -12.8037 -1309.9979
v  2569.0239 -12.8037 -1309.9980
v  2569.0239 398.9070 -1309.9980
v  2589.4072 398.9070 -1309.9979
v  2569.0239 -12.8037 -983.0642
v  2569.0239 398.9070 -983.0642
v  2589.4072 -12.8037 -983.0642
v  2589.4072 398.9070 -983.0642
# 8 vertices

vn 0.5774 -0.5773 -0.5773
vn -0.5773 -0.5774 -0.5774
vn -0.5773 0.5774 -0.5774
vn 0.5774 0.5773 -0.5773
vn -0.5774 -0.5774 0.5774
vn -0.5773 0.5774 0.5774
vn 0.5774 -0.5774 0.5774
vn 0.5774 0.5774 0.5774
# 8 vertex normals

vt 0.0000 0.0000 0.0000
vt 1.0000 0.0000 0.0000
vt 1.0000 1.0000 0.0000
vt 0.0000 1.0000 0.0000
vt 0.0419 0.0000 0.0000
vt 0.0419 1.0000 0.0000
vt 1.0000 0.9581 0.0000
vt 0.0000 0.9581 0.0000
vt 0.9581 0.0000 0.0000
vt 0.9581 1.0000 0.0000
# 10 texture coords

o Box051
g Box051
usemtl Material__45
s 32
f 277/320/273 278/321/274 279/322/275 280/323/276 
s 64
f 278/320/274 281/324/277 282/325/278 279/323/275 
s 2
f 281/326/277 278/322/274 277/323/273 283/327/279 
s 4
f 284/326/280 280/322/276 279/323/275 282/327/278 
s 16
f 283/328/279 277/321/273 280/322/276 284/329/280 
s off
f 283/327/279 284/329/280 282/327/278 281/324/277 
# 6 polygons

#
# object Box052
#

v  2569.9055 -12.8037 -997.8542
v  2569.9055 -12.8037 -977.4709
v  2569.9055 398.9070 -977.4709
v  2569.9055 398.9070 -997.8542
v  2764.1206 -12.8037 -977.4709
v  2764.1206 398.9070 -977.4709
v  2764.1206 -12.8037 -997.8543
v  2764.1206 398.9070 -997.8543
# 8 vertices

vn -0.5773 -0.5773 -0.5774
vn -0.5774 -0.5774 0.5773
vn -0.5774 0.5774 0.5773
vn -0.5773 0.5773 -0.5774
vn 0.5774 -0.5774 0.5774
vn 0.5774 0.5774 0.5773
vn 0.5774 -0.5774 -0.5774
vn 0.5774 0.5774 -0.5774
# 8 vertex normals

vt 0.0000 0.0000 0.0000
vt 1.0000 0.0000 0.0000
vt 1.0000 1.0000 0.0000
vt 0.0000 1.0000 0.0000
vt 0.0419 0.0000 0.0000
vt 0.0419 1.0000 0.0000
vt 1.0000 0.9581 0.0000
vt 0.0000 0.9581 0.0000
vt 0.9581 0.0000 0.0000
vt 0.9581 1.0000 0.0000
# 10 texture coords

o Box052
g Box052
usemtl Material__45
s 32
f 285/330/281 286/331/282 287/332/283 288/333/284 
s 64
f 286/330/282 289/334/285 290/335/286 287/333/283 
s 2
f 289/336/285 286/332/282 285/333/281 291/337/287 
s 4
f 292/336/288 288/332/284 287/333/283 290/337/286 
s 16
f 291/338/287 285/331/281 288/332/284 292/339/288 
s off
f 291/337/287 292/339/288 290/337/286 289/334/285 
# 6 polygons

#
# object Box053
#

v  2420.4766 -12.8037 -1159.8585
v  2420.4766 -12.8037 -1139.4752
v  2420.4766 398.9070 -1139.4752
v  2420.4766 398.9070 -1159.8585
v  2574.9653 -12.8037 -1139.4752
v  2574.9653 398.9070 -1139.4752
v  2574.9653 -12.8037 -1159.8586
v  2574.9653 398.9070 -1159.8586
# 8 vertices

vn -0.5773 -0.5773 -0.5774
vn -0.5774 -0.5774 0.5773
vn -0.5774 0.5774 0.5773
vn -0.5773 0.5773 -0.5774
vn 0.5774 -0.5774 0.5774
vn 0.5774 0.5774 0.5773
vn 0.5774 -0.5774 -0.5774
vn 0.5774 0.5774 -0.5774
# 8 vertex normals

vt 0.0000 0.0000 0.0000
vt 1.0000 0.0000 0.0000
vt 1.0000 1.0000 0.0000
vt 0.0000 1.0000 0.0000
vt 0.0419 0.0000 0.0000
vt 0.0419 1.0000 0.0000
vt 1.0000 0.9581 0.0000
vt 0.0000 0.9581 0.0000
vt 0.9581 0.0000 0.0000
vt 0.9581 1.0000 0.0000
# 10 texture coords

o Box053
g Box053
usemtl Material__45
s 32
f 293/340/289 294/341/290 295/342/291 296/343/292 
s 64
f 294/340/290 297/344/293 298/345/294 295/343/291 
s 2
f 297/346/293 294/342/290 293/343/289 299/347/295 
s 4
f 300/346/296 296/342/292 295/343/291 298/347/294 
s 16
f 299/348/295 293/341/289 296/342/292 300/349/296 
s off
f 299/347/295 300/349/296 298/347/294 297/344/293 
# 6 polygons

#
# object Box054
#

v  2763.6201 -12.8037 -1838.2537
v  2743.2368 -12.8037 -1838.2538
v  2743.2368 398.9070 -1838.2538
v  2763.6201 398.9070 -1838.2537
v  2743.2368 -12.8037 -861.1357
v  2743.2368 398.9070 -861.1357
v  2763.6201 -12.8037 -861.1357
v  2763.6201 398.9070 -861.1357
# 8 vertices

vn 0.5774 -0.5773 -0.5773
vn -0.5773 -0.5774 -0.5774
vn -0.5773 0.5774 -0.5774
vn 0.5774 0.5773 -0.5773
vn -0.5774 -0.5774 0.5774
vn -0.5773 0.5774 0.5774
vn 0.5774 -0.5774 0.5774
vn 0.5774 0.5774 0.5774
# 8 vertex normals

vt 0.0000 0.0000 0.0000
vt 1.0000 0.0000 0.0000
vt 1.0000 1.0000 0.0000
vt 0.0000 1.0000 0.0000
vt 0.0419 0.0000 0.0000
vt 0.0419 1.0000 0.0000
vt 1.0000 0.9581 0.0000
vt 0.0000 0.9581 0.0000
vt 0.9581 0.0000 0.0000
vt 0.9581 1.0000 0.0000
# 10 texture coords

o Box054
g Box054
usemtl Material__45
s 32
f 301/350/297 302/351/298 303/352/299 304/353/300 
s 64
f 302/350/298 305/354/301 306/355/302 303/353/299 
s 2
f 305/356/301 302/352/298 301/353/297 307/357/303 
s 4
f 308/356/304 304/352/300 303/353/299 306/357/302 
s 16
f 307/358/303 301/351/297 304/352/300 308/359/304 
s off
f 307/357/303 308/359/304 306/357/302 305/354/301 
# 6 polygons

#
# object Box055
#

v  2639.6057 36.9263 -1043.1962
v  2639.6057 36.9263 -1110.0789
v  2703.8457 36.9263 -1110.0789
v  2703.8457 36.9263 -1043.1962
v  2639.6057 126.1056 -1043.1962
v  2703.8457 126.1056 -1043.1962
v  2703.8457 126.1056 -1110.0789
v  2639.6057 126.1056 -1110.0789
# 8 vertices

vn -0.5774 -0.5774 0.5774
vn -0.5774 -0.5774 -0.5774
vn 0.5774 -0.5774 -0.5774
vn 0.5774 -0.5774 0.5774
vn -0.5774 0.5774 0.5774
vn 0.5774 0.5774 0.5774
vn 0.5774 0.5774 -0.5774
vn -0.5774 0.5774 -0.5774
# 8 vertex normals

vt 1.0000 0.0000 0.0000
vt 1.0000 1.0000 0.0000
vt 0.0000 1.0000 0.0000
vt 0.0000 0.0000 0.0000
# 4 texture coords

o Box055
g Box055
usemtl Material__174
s 2
f 309/360/305 310/361/306 311/362/307 312/363/308 
s 4
f 313/363/309 314/360/310 315/361/311 316/362/312 
s 8
f 309/363/305 312/360/308 314/361/310 313/362/309 
s 16
f 312/363/308 311/360/307 315/361/311 314/362/310 
s 32
f 311/363/307 310/360/306 316/361/312 315/362/311 
s 64
f 310/363/306 309/360/305 313/361/309 316/362/312 
# 6 polygons

#
# object Cylinder005
#

v  1783.4172 109.2779 -864.2265
v  1785.7113 108.6632 -864.2265
v  1787.3907 106.9838 -864.2265
v  1788.0054 104.6898 -864.2265
v  1787.3907 102.3957 -864.2265
v  1785.7113 100.7164 -864.2265
v  1783.4172 100.1016 -864.2265
v  1781.1232 100.7164 -864.2265
v  1779.4438 102.3957 -864.2265
v  1778.8292 104.6898 -864.2265
v  1779.4438 106.9838 -864.2265
v  1781.1232 108.6632 -864.2265
v  1787.3907 106.9839 -872.5083
v  1788.0054 104.6898 -872.5083
v  1785.7113 108.6633 -872.5083
v  1783.4172 109.2779 -872.5083
v  1781.1232 108.6633 -872.5083
v  1779.4438 106.9839 -872.5083
v  1778.8292 104.6898 -872.5083
v  1779.4438 102.3957 -872.5083
v  1781.1232 100.7164 -872.5083
v  1783.4172 100.1016 -872.5083
v  1785.7113 100.7164 -872.5083
v  1787.3907 102.3957 -872.5083
v  1698.6343 209.0340 -860.5548
v  1698.6343 12.2037 -860.5549
v  1698.6343 12.2037 -869.6825
v  1698.6343 209.0340 -869.6824
v  1792.1112 209.0340 -860.5549
v  1792.1112 12.2037 -860.5549
v  1792.1112 12.2037 -869.6826
v  1792.1112 209.0340 -869.6824
v  1694.0247 215.4915 -858.2672
v  1694.0247 -0.2033 -858.2673
v  1694.0247 -0.2033 -868.3662
v  1694.0247 215.4915 -868.3661
v  1796.3221 215.4915 -858.2673
v  1796.3221 -0.2033 -858.2673
v  1796.3221 -0.2033 -868.3663
v  1796.3221 215.4915 -868.3662
v  1778.8292 104.6898 -856.3896
v  1779.4438 102.3957 -856.3896
v  1781.1232 100.7164 -856.3896
v  1783.4172 100.1016 -856.3896
v  1785.7113 100.7164 -856.3896
v  1787.3907 102.3957 -856.3896
v  1788.0054 104.6898 -856.3896
v  1787.3907 106.9838 -856.3896
v  1785.7113 108.6632 -856.3896
v  1783.4172 109.2779 -856.3896
v  1781.1232 108.6632 -856.3896
v  1779.4438 106.9838 -856.3896
v  1788.0054 104.6898 -848.1078
v  1787.3907 106.9838 -848.1078
v  1785.7113 108.6632 -848.1078
v  1783.4172 109.2779 -848.1078
v  1781.1232 108.6632 -848.1078
v  1779.4440 106.9838 -848.1078
v  1778.8292 104.6898 -848.1078
v  1779.4440 102.3957 -848.1078
v  1781.1232 100.7164 -848.1078
v  1783.4172 100.1016 -848.1078
v  1785.7113 100.7164 -848.1078
v  1787.3907 102.3957 -848.1078
v  1698.6343 209.0340 -860.0612
v  1698.6343 209.0340 -850.9335
v  1698.6343 12.2037 -850.9337
v  1698.6343 12.2037 -860.0612
v  1792.1112 12.2037 -860.0613
v  1792.1112 209.0340 -860.0612
v  1792.1112 12.2037 -850.9337
v  1792.1112 209.0340 -850.9336
v  1694.0247 215.4915 -852.2498
v  1694.0247 -0.2033 -852.2499
v  1694.0247 -0.2033 -862.3488
v  1694.0247 215.4915 -862.3488
v  1796.3221 -0.2033 -862.3489
v  1796.3221 215.4915 -862.3488
v  1796.3221 -0.2033 -852.2499
v  1796.3221 215.4915 -852.2498
# 80 vertices

vn -0.0000 0.7572 -0.6532
vn 0.3786 0.6557 -0.6532
vn 0.6557 0.3786 -0.6532
vn 0.7572 -0.0000 -0.6532
vn 0.6557 -0.3786 -0.6532
vn 0.3786 -0.6557 -0.6532
vn -0.0000 -0.7572 -0.6532
vn -0.3786 -0.6557 -0.6532
vn -0.6557 -0.3786 -0.6532
vn -0.7572 -0.0000 -0.6532
vn -0.6557 0.3786 -0.6532
vn -0.3786 0.6557 -0.6532
vn 0.6557 0.3786 0.6532
vn 0.7572 -0.0000 0.6532
vn 0.3786 0.6557 0.6532
vn -0.0000 0.7572 0.6532
vn -0.3786 0.6557 0.6532
vn -0.6557 0.3786 0.6532
vn -0.7572 -0.0000 0.6532
vn -0.6557 -0.3786 0.6532
vn -0.3786 -0.6557 0.6532
vn -0.0000 -0.7572 0.6532
vn 0.3786 -0.6557 0.6532
vn 0.6557 -0.3786 0.6532
vn -1.0000 -0.0000 -0.0000
vn -0.0000 -0.0000 -1.0000
vn 1.0000 -0.0000 -0.0000
vn -0.0000 -0.0000 1.0000
vn -0.0000 -1.0000 -0.0000
vn -0.0000 1.0000 -0.0000
# 30 vertex normals

vt 0.8884 0.0000 0.0000
vt 0.9167 0.0000 0.0000
vt 0.8333 0.0000 0.0000
vt 0.7500 0.0000 0.0000
vt 0.4450 0.0000 0.0000
vt 0.2440 0.0000 0.0000
vt 0.1116 0.0000 0.0000
vt 0.0833 0.0000 0.0000
vt 0.1667 0.0000 0.0000
vt 0.3393 0.0000 0.0000
vt 0.5550 0.0000 0.0000
vt 0.7560 0.0000 0.0000
vt 0.8333 1.0000 0.0000
vt 0.7500 1.0000 0.0000
vt 0.9167 1.0000 0.0000
vt 0.0000 0.0000 0.0000
vt 0.0000 1.0000 0.0000
vt -0.0833 1.0000 0.0000
vt -0.0833 0.0000 0.0000
vt 0.0833 1.0000 0.0000
vt 0.1667 1.0000 0.0000
vt 0.2500 0.0000 0.0000
vt 0.2500 1.0000 0.0000
vt 0.3333 0.0000 0.0000
vt 0.3333 1.0000 0.0000
vt 0.4167 1.0000 0.0000
vt 0.4167 0.0000 0.0000
vt 0.5000 0.0000 0.0000
vt 0.5000 1.0000 0.0000
vt 0.5833 0.0000 0.0000
vt 0.5833 1.0000 0.0000
vt 0.6667 0.0000 0.0000
vt 0.6667 1.0000 0.0000
vt 0.1116 1.0000 0.0000
vt 0.2440 1.0000 0.0000
vt 0.8884 1.0000 0.0000
vt 0.7560 1.0000 0.0000
vt 0.5550 1.0000 0.0000
vt 0.3393 1.0000 0.0000
vt 0.6250 0.2500 0.0000
vt 0.3750 0.2500 0.0000
vt 0.3750 0.0000 0.0000
vt 0.6250 0.0000 0.0000
vt 0.6250 0.5000 0.0000
vt 0.3750 0.5000 0.0000
vt 0.3750 0.7500 0.0000
vt 0.6250 0.7500 0.0000
vt 0.6250 1.0000 0.0000
vt 0.3750 1.0000 0.0000
vt 0.1250 0.7500 0.0000
vt 0.1250 0.5000 0.0000
vt 0.8750 0.7500 0.0000
vt 0.8750 0.5000 0.0000
# 53 texture coords

o Cylinder005
g Cylinder005
usemtl stage1_Material__45
s 1
f 328/375/324 327/374/323 326/373/322 325/372/321 324/371/320 323/370/319 322/369/318 321/368/317 320/367/316 319/366/315 318/365/314 317/364/313 
f 320/367/316 330/377/326 329/376/325 319/366/315 
f 318/365/314 319/366/315 329/376/325 331/378/327 
f 318/382/314 331/381/327 332/380/328 317/379/313 
f 333/383/329 328/371/324 317/379/313 332/380/328 
f 333/383/329 334/384/330 327/372/323 328/371/324 
f 327/372/323 334/384/330 335/386/331 326/385/322 
f 336/388/332 325/387/321 326/385/322 335/386/331 
f 324/390/320 325/387/321 336/388/332 337/389/333 
f 338/392/334 323/391/319 324/390/320 337/389/333 
f 338/392/334 339/394/335 322/393/318 323/391/319 
f 322/393/318 339/394/335 340/396/336 321/395/317 
f 320/367/316 321/395/317 340/396/336 330/377/326 
f 335/402/331 334/401/330 333/400/329 332/399/328 331/378/327 329/376/325 330/377/326 340/396/336 339/398/335 338/397/334 337/383/333 336/384/332 
s off
f 344/406/337 343/405/337 342/404/337 341/403/337 
f 346/408/338 345/407/338 341/403/338 342/404/338 
f 348/410/339 345/407/339 346/408/339 347/409/339 
f 348/410/340 347/409/340 343/412/340 344/411/340 
f 346/408/341 342/414/341 343/413/341 347/409/341 
f 341/416/342 345/407/342 348/410/342 344/415/342 
f 352/406/337 351/405/337 350/404/337 349/403/337 
f 350/404/338 354/408/338 353/407/338 349/403/338 
f 356/410/339 353/407/339 354/408/339 355/409/339 
f 352/411/340 356/410/340 355/409/340 351/412/340 
f 354/408/341 350/414/341 351/413/341 355/409/341 
f 352/415/342 349/416/342 353/407/342 356/410/342 
s 1
f 368/374/330 367/375/329 366/364/328 365/365/327 364/366/325 363/367/326 362/368/336 361/369/335 360/370/334 359/371/333 358/372/332 357/373/331 
f 370/376/315 369/377/316 363/367/326 364/366/325 
f 370/376/315 364/366/325 365/365/327 371/378/314 
f 365/382/327 366/379/328 372/380/313 371/381/314 
f 372/380/313 366/379/328 367/371/329 373/383/324 
f 373/383/324 367/371/329 368/372/330 374/384/323 
f 368/372/330 357/385/331 375/386/322 374/384/323 
f 376/388/321 375/386/322 357/385/331 358/387/332 
f 377/389/320 376/388/321 358/387/332 359/390/333 
f 360/391/334 378/392/319 377/389/320 359/390/333 
f 361/393/335 379/394/318 378/392/319 360/391/334 
f 361/393/335 362/395/336 380/396/317 379/394/318 
f 369/377/316 380/396/317 362/395/336 363/367/326 
f 373/400/324 374/401/323 375/402/322 376/384/321 377/383/320 378/397/319 379/398/318 380/396/317 369/377/316 370/376/315 371/378/314 372/399/313 
s off
f 384/404/337 383/405/337 382/406/337 381/403/337 
f 381/403/340 386/407/340 385/408/340 384/404/340 
f 385/408/339 386/407/339 388/410/339 387/409/339 
f 388/410/338 382/411/338 383/412/338 387/409/338 
f 383/413/341 384/414/341 385/408/341 387/409/341 
f 382/415/342 388/410/342 386/407/342 381/416/342 
f 392/403/337 391/404/337 390/405/337 389/406/337 
f 391/404/340 392/403/340 394/407/340 393/408/340 
f 396/410/339 395/409/339 393/408/339 394/407/339 
f 389/411/338 390/412/338 395/409/338 396/410/338 
f 390/413/341 391/414/341 393/408/341 395/409/341 
f 394/407/342 392/416/342 389/415/342 396/410/342 
# 52 polygons

#
# object Cylinder006
#

v  2676.8098 109.2779 -864.2265
v  2679.1040 108.6632 -864.2265
v  2680.7832 106.9838 -864.2265
v  2681.3979 104.6898 -864.2265
v  2680.7832 102.3957 -864.2265
v  2679.1040 100.7164 -864.2265
v  2676.8098 100.1016 -864.2265
v  2674.5159 100.7164 -864.2265
v  2672.8364 102.3957 -864.2265
v  2672.2217 104.6898 -864.2265
v  2672.8364 106.9838 -864.2265
v  2674.5159 108.6632 -864.2265
v  2680.7832 106.9839 -872.5083
v  2681.3979 104.6898 -872.5083
v  2679.1040 108.6633 -872.5083
v  2676.8098 109.2779 -872.5083
v  2674.5159 108.6633 -872.5083
v  2672.8364 106.9839 -872.5083
v  2672.2217 104.6898 -872.5083
v  2672.8364 102.3957 -872.5083
v  2674.5159 100.7164 -872.5083
v  2676.8098 100.1016 -872.5083
v  2679.1040 100.7164 -872.5083
v  2680.7832 102.3957 -872.5083
v  2592.0269 209.0340 -860.5548
v  2592.0269 12.2037 -860.5549
v  2592.0269 12.2037 -869.6825
v  2592.0269 209.0340 -869.6824
v  2685.5039 209.0340 -860.5549
v  2685.5039 12.2037 -860.5549
v  2685.5039 12.2037 -869.6826
v  2685.5039 209.0340 -869.6824
v  2587.4172 215.4915 -858.2672
v  2587.4172 -0.2033 -858.2673
v  2587.4172 -0.2033 -868.3662
v  2587.4172 215.4915 -868.3661
v  2689.7148 215.4915 -858.2673
v  2689.7148 -0.2033 -858.2673
v  2689.7148 -0.2033 -868.3663
v  2689.7148 215.4915 -868.3662
v  2672.2217 104.6898 -856.3896
v  2672.8364 102.3957 -856.3896
v  2674.5159 100.7164 -856.3896
v  2676.8098 100.1016 -856.3896
v  2679.1040 100.7164 -856.3896
v  2680.7832 102.3957 -856.3896
v  2681.3979 104.6898 -856.3896
v  2680.7832 106.9838 -856.3896
v  2679.1040 108.6632 -856.3896
v  2676.8098 109.2779 -856.3896
v  2674.5159 108.6632 -856.3896
v  2672.8364 106.9838 -856.3896
v  2681.3979 104.6898 -848.1078
v  2680.7832 106.9838 -848.1078
v  2679.1040 108.6632 -848.1078
v  2676.8098 109.2779 -848.1078
v  2674.5159 108.6632 -848.1078
v  2672.8364 106.9838 -848.1078
v  2672.2217 104.6898 -848.1078
v  2672.8364 102.3957 -848.1078
v  2674.5159 100.7164 -848.1078
v  2676.8098 100.1016 -848.1078
v  2679.1040 100.7164 -848.1078
v  2680.7832 102.3957 -848.1078
v  2592.0269 209.0340 -860.0612
v  2592.0269 209.0340 -850.9335
v  2592.0269 12.2037 -850.9337
v  2592.0269 12.2037 -860.0612
v  2685.5039 12.2037 -860.0613
v  2685.5039 209.0340 -860.0612
v  2685.5039 12.2037 -850.9337
v  2685.5039 209.0340 -850.9336
v  2587.4172 215.4915 -852.2498
v  2587.4172 -0.2033 -852.2499
v  2587.4172 -0.2033 -862.3488
v  2587.4172 215.4915 -862.3488
v  2689.7148 -0.2033 -862.3489
v  2689.7148 215.4915 -862.3488
v  2689.7148 -0.2033 -852.2499
v  2689.7148 215.4915 -852.2498
# 80 vertices

vn -0.0000 0.7572 -0.6532
vn 0.3786 0.6557 -0.6532
vn 0.6557 0.3786 -0.6532
vn 0.7572 -0.0000 -0.6532
vn 0.6557 -0.3786 -0.6532
vn 0.3786 -0.6557 -0.6532
vn -0.0000 -0.7572 -0.6532
vn -0.3786 -0.6557 -0.6532
vn -0.6557 -0.3786 -0.6532
vn -0.7572 -0.0000 -0.6532
vn -0.6557 0.3786 -0.6532
vn -0.3786 0.6557 -0.6532
vn 0.6557 0.3786 0.6532
vn 0.7572 -0.0000 0.6532
vn 0.3786 0.6557 0.6532
vn -0.0000 0.7572 0.6532
vn -0.3786 0.6557 0.6532
vn -0.6557 0.3786 0.6532
vn -0.7572 -0.0000 0.6532
vn -0.6557 -0.3786 0.6532
vn -0.3786 -0.6557 0.6532
vn -0.0000 -0.7572 0.6532
vn 0.3786 -0.6557 0.6532
vn 0.6557 -0.3786 0.6532
vn -1.0000 -0.0000 -0.0000
vn -0.0000 -0.0000 -1.0000
vn 1.0000 -0.0000 -0.0000
vn -0.0000 -0.0000 1.0000
vn -0.0000 -1.0000 -0.0000
vn -0.0000 1.0000 -0.0000
# 30 vertex normals

vt 0.8884 0.0000 0.0000
vt 0.9167 0.0000 0.0000
vt 0.8333 0.0000 0.0000
vt 0.7500 0.0000 0.0000
vt 0.4450 0.0000 0.0000
vt 0.2440 0.0000 0.0000
vt 0.1116 0.0000 0.0000
vt 0.0833 0.0000 0.0000
vt 0.1667 0.0000 0.0000
vt 0.3393 0.0000 0.0000
vt 0.5550 0.0000 0.0000
vt 0.7560 0.0000 0.0000
vt 0.8333 1.0000 0.0000
vt 0.7500 1.0000 0.0000
vt 0.9167 1.0000 0.0000
vt 0.0000 0.0000 0.0000
vt 0.0000 1.0000 0.0000
vt -0.0833 1.0000 0.0000
vt -0.0833 0.0000 0.0000
vt 0.0833 1.0000 0.0000
vt 0.1667 1.0000 0.0000
vt 0.2500 0.0000 0.0000
vt 0.2500 1.0000 0.0000
vt 0.3333 0.0000 0.0000
vt 0.3333 1.0000 0.0000
vt 0.4167 1.0000 0.0000
vt 0.4167 0.0000 0.0000
vt 0.5000 0.0000 0.0000
vt 0.5000 1.0000 0.0000
vt 0.5833 0.0000 0.0000
vt 0.5833 1.0000 0.0000
vt 0.6667 0.0000 0.0000
vt 0.6667 1.0000 0.0000
vt 0.1116 1.0000 0.0000
vt 0.2440 1.0000 0.0000
vt 0.8884 1.0000 0.0000
vt 0.7560 1.0000 0.0000
vt 0.5550 1.0000 0.0000
vt 0.3393 1.0000 0.0000
vt 0.6250 0.2500 0.0000
vt 0.3750 0.2500 0.0000
vt 0.3750 0.0000 0.0000
vt 0.6250 0.0000 0.0000
vt 0.6250 0.5000 0.0000
vt 0.3750 0.5000 0.0000
vt 0.3750 0.7500 0.0000
vt 0.6250 0.7500 0.0000
vt 0.6250 1.0000 0.0000
vt 0.3750 1.0000 0.0000
vt 0.1250 0.7500 0.0000
vt 0.1250 0.5000 0.0000
vt 0.8750 0.7500 0.0000
vt 0.8750 0.5000 0.0000
# 53 texture coords

o Cylinder006
g Cylinder006
usemtl stage1_Material__45
s 1
f 408/428/354 407/427/353 406/426/352 405/425/351 404/424/350 403/423/349 402/422/348 401/421/347 400/420/346 399/419/345 398/418/344 397/417/343 
f 400/420/346 410/430/356 409/429/355 399/419/345 
f 398/418/344 399/419/345 409/429/355 411/431/357 
f 398/435/344 411/434/357 412/433/358 397/432/343 
f 413/436/359 408/424/354 397/432/343 412/433/358 
f 413/436/359 414/437/360 407/425/353 408/424/354 
f 407/425/353 414/437/360 415/439/361 406/438/352 
f 416/441/362 405/440/351 406/438/352 415/439/361 
f 404/443/350 405/440/351 416/441/362 417/442/363 
f 418/445/364 403/444/349 404/443/350 417/442/363 
f 418/445/364 419/447/365 402/446/348 403/444/349 
f 402/446/348 419/447/365 420/449/366 401/448/347 
f 400/420/346 401/448/347 420/449/366 410/430/356 
f 415/455/361 414/454/360 413/453/359 412/452/358 411/431/357 409/429/355 410/430/356 420/449/366 419/451/365 418/450/364 417/436/363 416/437/362 
s off
f 424/459/367 423/458/367 422/457/367 421/456/367 
f 426/461/368 425/460/368 421/456/368 422/457/368 
f 428/463/369 425/460/369 426/461/369 427/462/369 
f 428/463/370 427/462/370 423/465/370 424/464/370 
f 426/461/371 422/467/371 423/466/371 427/462/371 
f 421/469/372 425/460/372 428/463/372 424/468/372 
f 432/459/367 431/458/367 430/457/367 429/456/367 
f 430/457/368 434/461/368 433/460/368 429/456/368 
f 436/463/369 433/460/369 434/461/369 435/462/369 
f 432/464/370 436/463/370 435/462/370 431/465/370 
f 434/461/371 430/467/371 431/466/371 435/462/371 
f 432/468/372 429/469/372 433/460/372 436/463/372 
s 1
f 448/427/360 447/428/359 446/417/358 445/418/357 444/419/355 443/420/356 442/421/366 441/422/365 440/423/364 439/424/363 438/425/362 437/426/361 
f 450/429/345 449/430/346 443/420/356 444/419/355 
f 450/429/345 444/419/355 445/418/357 451/431/344 
f 445/435/357 446/432/358 452/433/343 451/434/344 
f 452/433/343 446/432/358 447/424/359 453/436/354 
f 453/436/354 447/424/359 448/425/360 454/437/353 
f 448/425/360 437/438/361 455/439/352 454/437/353 
f 456/441/351 455/439/352 437/438/361 438/440/362 
f 457/442/350 456/441/351 438/440/362 439/443/363 
f 440/444/364 458/445/349 457/442/350 439/443/363 
f 441/446/365 459/447/348 458/445/349 440/444/364 
f 441/446/365 442/448/366 460/449/347 459/447/348 
f 449/430/346 460/449/347 442/448/366 443/420/356 
f 453/453/354 454/454/353 455/455/352 456/437/351 457/436/350 458/450/349 459/451/348 460/449/347 449/430/346 450/429/345 451/431/344 452/452/343 
s off
f 464/457/367 463/458/367 462/459/367 461/456/367 
f 461/456/370 466/460/370 465/461/370 464/457/370 
f 465/461/369 466/460/369 468/463/369 467/462/369 
f 468/463/368 462/464/368 463/465/368 467/462/368 
f 463/466/371 464/467/371 465/461/371 467/462/371 
f 462/468/372 468/463/372 466/460/372 461/469/372 
f 472/456/367 471/457/367 470/458/367 469/459/367 
f 471/457/370 472/456/370 474/460/370 473/461/370 
f 476/463/369 475/462/369 473/461/369 474/460/369 
f 469/464/368 470/465/368 475/462/368 476/463/368 
f 470/466/371 471/467/371 473/461/371 475/462/371 
f 474/460/372 472/469/372 469/468/372 476/463/372 
# 52 polygons

