# 3ds Max Wavefront OBJ Exporter v0.97b - (c)2007 guruware
# File Created: 02.05.2026 17:50:59

mtllib st2_wall_uvedit.mtl

#
# object Object083
#

v  -18.6891 57.2020 161.7749
v  -18.6891 69.9826 161.7749
v  238.7306 69.9826 161.7750
v  238.7306 57.2020 161.7750
v  -276.1088 57.2020 381.9974
v  -276.1088 69.9826 381.9974
v  -276.1087 69.9826 161.7749
v  -276.1087 57.2020 161.7749
v  238.7306 57.2020 381.9976
v  -18.6891 57.2020 381.9975
v  -18.6891 69.9826 381.9975
v  238.7306 69.9826 381.9976
# 12 vertices

vn 0.0000 -0.7071 -0.7071
vn 0.0000 0.7071 -0.7071
vn 0.5774 0.5774 -0.5774
vn 0.5774 -0.5774 -0.5774
vn -0.5774 -0.5774 0.5774
vn -0.5774 0.5774 0.5774
vn -0.5774 0.5774 -0.5774
vn -0.5774 -0.5774 -0.5774
vn 0.5774 -0.5774 0.5774
vn -0.0000 -0.7071 0.7071
vn -0.0000 0.7071 0.7071
vn 0.5774 0.5774 0.5774
# 12 vertex normals

vt 0.3493 0.6932 0.0000
vt 0.3412 0.6932 0.0000
vt 0.3412 0.5301 0.0000
vt 0.3493 0.5301 0.0000
vt 0.4888 0.8562 0.0000
vt 0.4888 0.8643 0.0000
vt 0.3493 0.8643 0.0000
vt 0.3493 0.8562 0.0000
vt 0.4888 0.5301 0.0000
vt 0.4888 0.6932 0.0000
vt 0.3412 0.8562 0.0000
vt 0.7374 0.1670 0.0000
vt 0.7374 0.0039 0.0000
vt 0.8769 0.0039 0.0000
vt 0.8769 0.1670 0.0000
vt 0.3493 0.5220 0.0000
vt 0.4888 0.5220 0.0000
vt 0.7374 0.3300 0.0000
vt 0.8769 0.3300 0.0000
vt 0.4969 0.8562 0.0000
vt 0.4969 0.6932 0.0000
vt 0.4969 0.5301 0.0000
# 22 texture coords

o Object083
g Object083
usemtl Material__448
s 1
f 1/1/1 2/2/2 3/3/3 4/4/4 
s 2
f 5/5/5 6/6/6 7/7/7 8/8/8 
s 4
f 4/4/4 9/9/9 10/10/10 1/1/1 
s 1
f 8/8/8 7/11/7 2/2/2 1/1/1 
s 4
f 8/8/8 1/1/1 10/10/10 5/5/5 
f 2/12/2 7/13/7 6/14/6 11/15/11 
s 2
f 4/4/4 3/16/3 12/17/12 9/9/9 
s 4
f 3/18/3 2/12/2 11/15/11 12/19/12 
s 1
f 6/20/6 5/5/5 10/10/10 11/21/11 
f 11/21/11 10/10/10 9/9/9 12/22/12 
# 10 polygons

#
# object Object084
#

v  -18.6889 68.7960 -399.0082
v  -18.6890 81.5765 -399.0082
v  238.7307 81.5765 -399.0081
v  238.7307 68.7960 -399.0081
v  -276.1087 68.7960 181.6733
v  -276.1087 81.5766 181.6733
v  -276.1086 81.5766 -399.0082
v  -276.1086 68.7960 -399.0082
v  238.7306 68.7960 181.6734
v  -18.6891 68.7960 181.6734
v  -18.6891 81.5765 181.6734
v  238.7306 81.5765 181.6734
# 12 vertices

vn 0.0000 0.0000 -1.0000
vn -1.0000 0.0000 -0.0000
vn 0.0000 -1.0000 -0.0000
vn 0.0000 1.0000 0.0000
vn 1.0000 -0.0000 0.0000
vn 0.0000 1.0000 -0.0000
vn -0.0000 -0.0000 1.0000
vn -0.0000 0.0000 1.0000
# 8 vertex normals

vt 0.1751 0.3798 0.0000
vt 0.1751 0.3879 0.0000
vt 0.0120 0.3879 0.0000
vt 0.0120 0.3798 0.0000
vt 0.3381 0.0120 0.0000
vt 0.3462 0.0120 0.0000
vt 0.3462 0.3798 0.0000
vt 0.3381 0.3798 0.0000
vt 0.0120 0.0120 0.0000
vt 0.1751 0.0120 0.0000
vt 0.3381 0.3879 0.0000
vt 0.1670 0.7636 0.0000
vt 0.0039 0.7636 0.0000
vt 0.0039 0.3958 0.0000
vt 0.1670 0.3958 0.0000
vt 0.0039 0.3798 0.0000
vt 0.0039 0.0120 0.0000
vt 0.3300 0.7636 0.0000
vt 0.3300 0.3958 0.0000
vt 0.3381 0.0039 0.0000
vt 0.1751 0.0039 0.0000
vt 0.0120 0.0039 0.0000
# 22 texture coords

o Object084
g Object084
usemtl Material__448
s 1
f 13/23/13 14/24/13 15/25/13 16/26/13 
s 2
f 17/27/14 18/28/14 19/29/14 20/30/14 
s 4
f 16/26/15 21/31/15 22/32/15 13/23/15 
s 1
f 20/30/13 19/33/13 14/24/13 13/23/13 
s 4
f 20/30/15 13/23/15 22/32/15 17/27/15 
f 14/34/16 19/35/16 18/36/16 23/37/16 
s 2
f 16/26/17 15/38/17 24/39/17 21/31/17 
s 4
f 15/40/18 14/34/16 23/37/16 24/41/18 
s 1
f 18/42/19 17/27/19 22/32/20 23/43/20 
f 23/43/20 22/32/20 21/31/20 24/44/20 
# 10 polygons

#
# object Object085
#

v  -284.2056 68.7960 -399.0083
v  -284.2056 344.8293 -399.0083
v  -274.7096 344.8293 -399.0083
v  -274.7096 68.7960 -399.0083
v  -274.7097 68.7960 387.5829
v  -284.2057 68.7960 387.5829
v  -274.7097 344.8293 387.5829
v  -284.2057 344.8293 387.5829
# 8 vertices

vn 0.0000 0.0000 -1.0000
vn 0.0000 -1.0000 -0.0000
vn 1.0000 -0.0000 0.0000
vn -0.0000 1.0000 -0.0000
vn 0.0000 0.0000 1.0000
vn -1.0000 0.0000 -0.0000
# 6 vertex normals

vt 0.5378 0.0099 0.0000
vt 0.3629 0.0099 0.0000
vt 0.3629 0.0039 0.0000
vt 0.5378 0.0039 0.0000
vt 0.5438 0.0099 0.0000
vt 0.5438 0.5082 0.0000
vt 0.5378 0.5082 0.0000
vt 0.5530 0.0039 0.0000
vt 0.7279 0.0039 0.0000
vt 0.7279 0.5022 0.0000
vt 0.5530 0.5022 0.0000
vt 0.3569 0.0099 0.0000
vt 0.3629 0.5082 0.0000
vt 0.3569 0.5082 0.0000
vt 0.5378 0.5142 0.0000
vt 0.3629 0.5142 0.0000
# 16 texture coords

o Object085
g Object085
usemtl Material__448
s 1
f 25/45/21 26/46/21 27/47/21 28/48/21 
s 2
f 28/49/22 29/50/22 30/51/22 25/45/22 
s 4
f 28/52/23 27/53/23 31/54/23 29/55/23 
s 2
f 27/56/24 26/46/24 32/57/24 31/58/24 
s 1
f 32/57/25 30/51/25 29/59/25 31/60/25 
s 4
f 32/57/26 26/46/26 25/45/26 30/51/26 
# 6 polygons

#
# object Object086
#

v  -274.2311 345.2137 -301.2772
v  -274.2310 269.8983 -301.2772
v  236.7738 269.8981 -301.2771
v  236.7739 345.2135 -301.2771
v  -274.2311 345.2137 -304.8937
v  -274.2310 269.8983 -304.8937
v  236.7739 345.2135 -304.8936
v  236.7738 269.8981 -304.8936
# 8 vertices

vn -0.5774 0.5774 0.5774
vn -0.5774 -0.5774 0.5774
vn 0.5773 -0.5774 0.5773
vn 0.5774 0.5773 0.5774
vn -0.5774 0.5774 -0.5774
vn -0.5774 -0.5774 -0.5774
vn 0.5774 0.5773 -0.5774
vn 0.5773 -0.5774 -0.5774
# 8 vertex normals

vt 0.6007 0.8337 0.0000
vt 0.5530 0.8337 0.0000
vt 0.5530 0.5100 0.0000
vt 0.6007 0.5100 0.0000
vt 0.8188 0.6661 0.0000
vt 0.7711 0.6661 0.0000
vt 0.7711 0.6638 0.0000
vt 0.8188 0.6638 0.0000
vt 0.7711 0.3402 0.0000
vt 0.8188 0.3402 0.0000
vt 0.7711 0.3379 0.0000
vt 0.8188 0.3379 0.0000
vt 0.7688 0.3402 0.0000
vt 0.7688 0.6638 0.0000
vt 0.8211 0.3402 0.0000
vt 0.8211 0.6638 0.0000
# 16 texture coords

o Object086
g Object086
usemtl Material__448
s 1
f 33/61/27 34/62/28 35/63/29 36/64/30 
s 2
f 34/65/28 33/66/27 37/67/31 38/68/32 
s 1
f 37/67/31 39/69/33 40/70/34 38/68/32 
s 2
f 40/70/34 39/69/33 36/71/30 35/72/29 
s 4
f 36/73/30 39/69/33 37/67/31 33/74/27 
f 40/70/34 35/75/29 34/76/28 38/68/32 
# 6 polygons

#
# object Object087
#

v  137.9562 267.4840 -305.0137
v  234.8940 267.4841 -305.5482
v  234.8940 79.3703 -305.5482
v  137.9563 79.3702 -305.0137
v  234.8940 79.3703 -301.9316
v  234.8940 267.4841 -301.9316
v  137.9562 267.4840 -302.4660
v  137.9563 79.3702 -302.4660
# 8 vertices

vn -0.5788 0.5776 -0.5756
vn 0.5759 0.5771 -0.5791
vn 0.5759 -0.5771 -0.5791
vn -0.5788 -0.5776 -0.5756
vn 0.5759 -0.5771 0.5791
vn 0.5759 0.5771 0.5791
vn -0.5788 0.5776 0.5756
vn -0.5788 -0.5776 0.5756
# 8 vertex normals

vt 0.9776 0.6778 0.0000
vt 0.9162 0.6778 0.0000
vt 0.9162 0.5587 0.0000
vt 0.9776 0.5587 0.0000
vt 0.9139 0.8071 0.0000
vt 0.9139 0.6880 0.0000
vt 0.9753 0.6880 0.0000
vt 0.9753 0.8071 0.0000
vt 0.9139 0.6778 0.0000
vt 0.9139 0.5587 0.0000
vt 0.9162 0.5564 0.0000
vt 0.9776 0.5571 0.0000
vt 0.9776 0.6794 0.0000
vt 0.9162 0.6801 0.0000
vt 0.9792 0.6778 0.0000
vt 0.9792 0.5587 0.0000
# 16 texture coords

o Object087
g Object087
usemtl Material__448
s 1
f 41/77/35 42/78/36 43/79/37 44/80/38 
f 45/81/39 46/82/40 47/83/41 48/84/42 
s 2
f 46/85/40 45/86/39 43/79/37 42/78/36 
s 4
f 45/87/39 48/88/42 44/80/38 43/79/37 
f 42/78/36 41/77/35 47/89/41 46/90/40 
s 2
f 47/91/41 41/77/35 44/80/38 48/92/42 
# 6 polygons

#
# object Object088
#

v  -185.0190 90.8526 -428.9955
v  -185.0190 90.8525 -305.1809
v  147.5615 90.8525 -305.1807
v  147.5615 90.8526 -428.9954
v  -185.0191 79.8041 -428.9955
v  -185.0190 79.8040 -305.1810
v  147.5616 79.8041 -428.9954
v  147.5615 79.8040 -305.1808
# 8 vertices

vn -0.5773 0.5774 -0.5773
vn -0.5774 0.5773 0.5774
vn 0.5774 0.5773 0.5774
vn 0.5774 0.5774 -0.5773
vn -0.5774 -0.5773 -0.5774
vn -0.5774 -0.5774 0.5773
vn 0.5774 -0.5773 -0.5774
vn 0.5773 -0.5774 0.5773
# 8 vertex normals

vt 0.9766 0.2146 0.0000
vt 0.8982 0.2146 0.0000
vt 0.8982 0.0039 0.0000
vt 0.9766 0.0039 0.0000
vt 0.0893 0.9961 0.0000
vt 0.0109 0.9961 0.0000
vt 0.0109 0.9891 0.0000
vt 0.0893 0.9891 0.0000
vt 0.0109 0.7784 0.0000
vt 0.0893 0.7784 0.0000
vt 0.0109 0.7714 0.0000
vt 0.0893 0.7714 0.0000
vt 0.0039 0.7784 0.0000
vt 0.0039 0.9891 0.0000
vt 0.0963 0.7784 0.0000
vt 0.0963 0.9891 0.0000
# 16 texture coords

o Object088
g Object088
usemtl Material__448
s 1
f 49/93/43 50/94/44 51/95/45 52/96/46 
s 2
f 50/97/44 49/98/43 53/99/47 54/100/48 
s 1
f 53/99/47 55/101/49 56/102/50 54/100/48 
s 2
f 56/102/50 55/101/49 52/103/46 51/104/45 
s 4
f 52/105/46 55/101/49 53/99/47 49/106/43 
f 56/102/50 51/107/45 50/108/44 54/100/48 
# 6 polygons

#
# object Object089
#

v  -274.2311 271.4188 -386.7795
v  -274.2310 271.4187 -298.5630
v  236.7738 271.4187 -298.5628
v  236.7739 271.4188 -386.7791
v  -274.2311 267.8023 -386.7795
v  -274.2310 267.8022 -298.5630
v  236.7739 267.8023 -386.7791
v  236.7738 267.8022 -298.5628
# 8 vertices

vn -0.5774 0.5774 -0.5773
vn -0.5774 0.5773 0.5774
vn 0.5773 0.5774 0.5774
vn 0.5774 0.5774 -0.5773
vn -0.5774 -0.5774 -0.5774
vn -0.5774 -0.5774 0.5774
vn 0.5774 -0.5774 -0.5773
vn 0.5773 -0.5774 0.5774
# 8 vertex normals

vt 0.6993 0.8361 0.0000
vt 0.6433 0.8354 0.0000
vt 0.6444 0.5116 0.0000
vt 0.7002 0.5125 0.0000
vt 0.6962 0.8919 0.0000
vt 0.7016 0.8361 0.0000
vt 0.6985 0.8921 0.0000
vt 0.7024 0.5130 0.0000
vt 0.7579 0.5110 0.0000
vt 0.7579 0.8365 0.0000
vt 0.7575 0.5087 0.0000
vt 0.8864 0.0039 0.0000
vt 0.8887 0.0039 0.0000
vt 0.8887 0.3276 0.0000
vt 0.8864 0.3276 0.0000
# 15 texture coords

o Object089
g Object089
usemtl Material__448
s 1
f 57/109/51 58/110/52 59/111/53 60/112/54 
s 2
f 58/113/52 57/109/51 61/114/55 62/115/56 
s 1
f 61/114/55 63/116/57 64/117/58 62/118/56 
s 2
f 64/117/58 63/116/57 60/112/54 59/119/53 
s 4
f 60/112/54 63/116/57 61/114/55 57/109/51 
f 64/120/58 59/121/53 58/122/52 62/123/56 
# 6 polygons

#
# object Object090
#

v  235.6955 68.1832 374.2289
v  235.6954 218.9985 374.2289
v  235.6955 218.9985 386.6752
v  235.6956 68.1832 386.6752
v  235.6954 346.9723 386.6752
v  235.6953 346.9723 374.2289
v  -157.6058 346.9720 374.2288
v  -157.6058 346.9720 386.6752
v  -157.6057 218.9982 386.6752
v  -157.6056 68.1828 386.6752
v  -157.6057 218.9982 374.2288
v  -157.6057 68.1828 374.2288
v  -226.5749 346.9719 374.2288
v  -226.5749 346.9719 386.6752
v  -226.5748 218.9981 386.6752
v  -226.5748 218.9981 374.2288
v  -274.0296 346.9719 374.2288
v  -274.0295 346.9719 386.6752
v  -274.0294 218.9981 386.6752
v  -274.0294 218.9981 374.2288
v  -274.0293 67.9813 386.6752
v  -226.5747 67.9814 386.6752
v  -226.5747 67.9814 374.2288
v  -274.0294 67.9813 374.2288
# 24 vertices

vn 0.5774 -0.5773 -0.5774
vn 0.7071 0.0000 -0.7071
vn 0.7071 0.0000 0.7071
vn 0.5774 -0.5774 0.5773
vn 0.5774 0.5774 0.5773
vn 0.5773 0.5774 -0.5774
vn -0.0000 0.7071 -0.7071
vn -0.0000 0.7071 0.7071
vn -0.3015 -0.3015 0.9045
vn -0.5773 -0.5773 0.5774
vn -0.3015 -0.3015 -0.9045
vn -0.5774 -0.5774 -0.5773
vn 0.3015 -0.3015 0.9045
vn 0.3015 -0.3015 -0.9045
vn -0.5774 0.5774 -0.5773
vn -0.5773 0.5773 0.5774
vn -0.7071 -0.0000 0.7071
vn -0.7071 -0.0000 -0.7071
vn -0.5773 -0.5774 0.5774
# 19 vertex normals

vt 0.9801 0.0207 0.0000
vt 0.9801 0.3050 0.0000
vt 0.9801 0.5463 0.0000
vt 0.2387 0.5463 0.0000
vt 0.2387 0.3050 0.0000
vt 0.2387 0.0207 0.0000
vt 0.1086 0.5463 0.0000
vt 0.1086 0.3050 0.0000
vt 0.0192 0.5463 0.0000
vt 0.0192 0.3050 0.0000
vt 0.0192 0.0203 0.0000
vt 0.1086 0.0203 0.0000
# 12 texture coords

o Object090
g Object090
usemtl Material__448
s 1
f 65/124/59 66/125/60 67/125/61 68/124/62 
s 2
f 69/126/63 70/126/64 71/127/65 72/127/66 
s 4
f 67/125/61 73/128/67 74/129/68 68/124/62 
f 66/125/60 75/128/69 71/127/65 70/126/64 
s 2
f 65/124/59 68/124/62 74/129/68 76/129/70 
s 1
f 70/126/64 69/126/63 67/125/61 66/125/60 
s 4
f 69/126/63 72/127/66 73/128/67 67/125/61 
f 65/124/59 76/129/70 75/128/69 66/125/60 
s 2
f 72/127/66 71/127/65 77/130/65 78/130/66 
s 4
f 73/128/67 72/127/66 78/130/66 79/131/71 
f 71/127/65 75/128/69 80/131/72 77/130/65 
s 2
f 78/130/66 77/130/65 81/132/73 82/132/74 
s 4
f 79/131/71 78/130/66 82/132/74 83/133/75 
f 77/130/65 80/131/72 84/133/76 81/132/73 
f 79/131/71 83/133/75 85/134/77 86/135/62 
f 84/133/76 80/131/72 87/135/59 88/134/70 
s 1
f 87/135/59 86/135/62 85/134/77 88/134/70 
s 8
f 88/134/70 85/134/77 83/133/75 84/133/76 
s 1
f 75/128/69 73/128/67 79/131/71 80/131/72 
s 8
f 73/128/67 75/128/69 76/129/70 74/129/68 
f 84/133/76 83/133/75 82/132/74 81/132/73 
s 2
f 86/135/62 87/135/59 80/131/72 79/131/71 
# 22 polygons

#
# object Object091
#

v  -185.0190 274.6445 -434.6011
v  -185.0190 274.6444 -425.4254
v  147.5616 274.6444 -425.4252
v  147.5616 274.6445 -434.6009
v  -185.0190 80.4630 -434.6011
v  -185.0190 80.4629 -425.4254
v  147.5616 80.4630 -434.6009
v  147.5616 80.4629 -425.4252
# 8 vertices

vn -0.5774 0.5774 -0.5773
vn -0.5773 0.5773 0.5774
vn 0.5773 0.5773 0.5774
vn 0.5774 0.5774 -0.5773
vn -0.5773 -0.5773 -0.5774
vn -0.5774 -0.5774 0.5773
vn 0.5773 -0.5773 -0.5774
vn 0.5774 -0.5774 0.5773
# 8 vertex normals

vt 0.7786 0.8921 0.0000
vt 0.7741 0.8952 0.0000
vt 0.7688 0.6784 0.0000
vt 0.7735 0.6812 0.0000
vt 0.9014 0.8915 0.0000
vt 0.9059 0.8947 0.0000
vt 0.9000 0.6744 0.0000
vt 0.9059 0.6746 0.0000
vt 0.8992 0.6685 0.0000
vt 0.8315 0.3379 0.0000
vt 0.9545 0.3379 0.0000
vt 0.9545 0.5485 0.0000
vt 0.8315 0.5485 0.0000
# 13 texture coords

o Object091
g Object091
usemtl Material__448
s 1
f 89/136/78 90/137/79 91/138/80 92/139/81 
s 2
f 90/137/79 89/136/78 93/140/82 94/141/83 
s 1
f 93/140/82 95/142/84 96/143/85 94/141/83 
s 2
f 96/144/85 95/142/84 92/139/81 91/138/80 
s 4
f 92/139/81 95/142/84 93/140/82 89/136/78 
f 96/145/85 91/146/80 90/147/79 94/148/83 
# 6 polygons

#
# object Object092
#

v  142.9273 83.2517 -304.6031
v  142.9273 267.4771 -304.6031
v  142.9273 267.4771 -438.8084
v  142.9273 83.2518 -438.8085
v  147.9140 83.2517 -304.6031
v  147.9140 267.4771 -304.6031
v  147.9140 83.2518 -438.8085
v  147.9140 267.4771 -438.8084
# 8 vertices

vn -0.5774 -0.5774 0.5774
vn -0.5774 0.5774 0.5774
vn -0.5774 0.5774 -0.5774
vn -0.5774 -0.5774 -0.5774
vn 0.5774 -0.5774 0.5774
vn 0.5774 0.5774 0.5774
vn 0.5774 -0.5774 -0.5774
vn 0.5774 0.5774 -0.5774
# 8 vertex normals

vt 0.2929 0.7714 0.0000
vt 0.2929 0.8881 0.0000
vt 0.2079 0.8881 0.0000
vt 0.2079 0.7714 0.0000
vt 0.1972 0.7746 0.0000
vt 0.1972 0.8913 0.0000
vt 0.1941 0.8913 0.0000
vt 0.1941 0.7746 0.0000
vt 0.1090 0.8913 0.0000
vt 0.1090 0.7746 0.0000
vt 0.1059 0.8913 0.0000
vt 0.1059 0.7746 0.0000
vt 0.1090 0.8944 0.0000
vt 0.1941 0.8944 0.0000
vt 0.1090 0.7714 0.0000
vt 0.1941 0.7714 0.0000
# 16 texture coords

o Object092
g Object092
usemtl Material__448
s 1
f 97/149/86 98/150/87 99/151/88 100/152/89 
s 2
f 98/153/87 97/154/86 101/155/90 102/156/91 
s 1
f 101/155/90 103/157/92 104/158/93 102/156/91 
s 2
f 104/158/93 103/157/92 100/159/89 99/160/88 
s 4
f 100/161/89 103/157/92 101/155/90 97/162/86 
f 104/158/93 99/163/88 98/164/87 102/156/91 
# 6 polygons

