# 3ds Max Wavefront OBJ Exporter v0.97b - (c)2007 guruware
# File Created: 02.05.2026 18:51:08

mtllib wall.mtl

#
# object Object093
#

v  258.1429 350.9340 403.9379
v  258.1430 350.9340 -455.9714
v  -299.3143 350.9340 -455.9727
v  -299.3142 350.9340 403.9363
v  -299.3144 339.8855 -455.9727
v  -299.3143 339.8854 403.9360
v  258.1430 339.8855 403.9375
v  258.1430 339.8855 -455.9714
# 8 vertices

vn 0.5774 0.5773 0.5774
vn 0.5774 0.5774 -0.5773
vn -0.5773 0.5774 -0.5773
vn -0.5774 0.5773 0.5774
vn -0.5774 -0.5773 -0.5774
vn -0.5774 -0.5774 0.5773
vn 0.5773 -0.5774 0.5773
vn 0.5774 -0.5773 -0.5774
# 8 vertex normals

vt 0.5138 0.7479 0.0000
vt 0.5138 0.0039 0.0000
vt 0.9961 0.0039 0.0000
vt 0.9961 0.7479 0.0000
vt 0.0135 0.0135 0.0000
vt 0.0135 0.7574 0.0000
vt 0.0039 0.7574 0.0000
vt 0.0039 0.0135 0.0000
vt 0.4958 0.7574 0.0000
vt 0.4958 0.0135 0.0000
vt 0.5053 0.0135 0.0000
vt 0.5053 0.7574 0.0000
vt 0.0135 0.0039 0.0000
vt 0.4958 0.0039 0.0000
vt 0.0135 0.7670 0.0000
vt 0.4958 0.7670 0.0000
# 16 texture coords

o Object093
g Object093
usemtl Material__448
s 1
f 1/1/1 2/2/2 3/3/3 4/4/4 
s 2
f 5/5/5 6/6/6 4/7/4 3/8/3 
s 1
f 7/9/7 6/6/6 5/5/5 8/10/8 
s 2
f 2/11/2 1/12/1 7/9/7 8/10/8 
s 4
f 5/5/5 3/13/3 2/14/2 8/10/8 
f 4/15/4 6/6/6 7/9/7 1/16/1 
# 6 polygons

